<?xml version="1.0" encoding="UTF-8" standalone="no"?>
<!-- Created with Inkscape (http://www.inkscape.org/) -->

<svg
   width="11in"
   height="8.5in"
   viewBox="0 0 279.4 215.9"
   version="1.1"
   id="svg5"
   xml:space="preserve"
   inkscape:version="1.2.2 (b0a8486541, 2022-12-01)"
   sodipodi:docname="ignite_plainsign.svg"
   inkscape:export-filename="ignite.jpg"
   inkscape:export-xdpi="103.68"
   inkscape:export-ydpi="103.68"
   xmlns:inkscape="http://www.inkscape.org/namespaces/inkscape"
   xmlns:sodipodi="http://sodipodi.sourceforge.net/DTD/sodipodi-0.dtd"
   xmlns="http://www.w3.org/2000/svg"
   xmlns:svg="http://www.w3.org/2000/svg"><sodipodi:namedview
     id="namedview7"
     pagecolor="#ffffff"
     bordercolor="#666666"
     borderopacity="1.0"
     inkscape:showpageshadow="2"
     inkscape:pageopacity="0.0"
     inkscape:pagecheckerboard="0"
     inkscape:deskcolor="#d1d1d1"
     inkscape:document-units="px"
     showgrid="false"
     inkscape:zoom="0.5946522"
     inkscape:cx="1262.9231"
     inkscape:cy="486.8392"
     inkscape:window-width="1900"
     inkscape:window-height="1040"
     inkscape:window-x="10"
     inkscape:window-y="30"
     inkscape:window-maximized="1"
     inkscape:current-layer="layer1"><inkscape:page
       x="0"
       y="0"
       width="279.39999"
       height="215.89999"
       id="page716" /><inkscape:page
       x="289.39999"
       y="0"
       width="279.39999"
       height="215.89999"
       id="page718" /><inkscape:page
       x="578.79999"
       y="0"
       width="279.39999"
       height="215.89999"
       id="page772" /></sodipodi:namedview><defs
     id="defs2" /><g
     inkscape:label="Layer 1"
     inkscape:groupmode="layer"
     id="layer1"><path
       d="m 48.751484,101.63424 q -1.36131,0.90754 -2.333675,2.46332 -0.90754,1.49096 -1.490959,3.30604 -0.518594,1.75026 -0.777891,3.69499 -0.259297,1.8799 -0.259297,3.63016 0,1.23166 0.06482,2.65779 0.129648,1.36131 0.324121,2.85227 0.259298,1.42614 0.583419,2.85227 0.388946,1.36131 0.90754,2.52815 -1.037189,1.75026 -1.426134,4.21358 -0.324122,2.46332 -0.324122,4.92665 0,4.14875 1.037189,7.90856 1.037189,3.69499 4.343228,7.26032 -3.500512,-0.45377 -6.158308,-0.58341 -2.592973,-0.19448 -4.732175,-0.19448 -2.917093,0 -5.056295,0.19448 -2.139202,0.19447 -4.278404,0.51859 1.36131,-0.84272 2.528148,-2.20403 1.166837,-1.42613 2.009553,-3.11156 0.842716,-1.68543 1.296486,-3.56534 0.518594,-1.8799 0.518594,-3.69499 0,-3.30603 -0.777891,-6.4176 -0.777892,-3.17639 -2.463324,-5.25077 1.815081,-3.37086 2.3985,-6.15831 0.583418,-2.78744 0.583418,-5.76936 0,-1.81508 -0.194473,-3.88946 -2.528147,-1.03719 -3.435688,-3.24121 -0.90754,-2.26886 -1.166837,-4.99148 2.139202,0.58342 3.954282,0.84272 1.879905,0.2593 3.565337,0.2593 2.981918,0 5.510066,-0.32412 2.528148,-0.38895 5.250768,-0.71307 z"
       id="path387"
       style="font-size:64.8243px;line-height:1.25;font-family:'New Rocker';-inkscape-font-specification:'New Rocker';stroke-width:0.264583" /><path
       d="m 86.997817,118.03479 q -1.296486,-0.90754 -2.204027,-1.81508 -0.842715,-0.97237 -1.426134,-2.07438 -0.583419,-1.10201 -0.972365,-2.3985 -0.388946,-1.29649 -0.648243,-2.85227 -0.90754,-0.71307 -2.917093,-0.90754 -2.009554,-0.19447 -4.083931,-0.19447 -1.685432,0 -2.917094,0.0648 -1.231662,0.0648 -2.139202,0.0648 -0.583419,1.6206 -0.777892,5.57489 -0.194473,3.88945 -0.194473,8.94575 0,2.72262 0,5.57489 0.06482,2.85227 0.06482,5.63971 0.06482,2.78745 0.06482,5.44525 0.06482,2.59297 0.06482,4.86182 1.944729,0.45377 3.176391,0.84271 1.231662,0.32413 2.398499,0.58342 1.166838,0.19448 2.657797,0.38895 1.490959,0.12965 3.954282,0.2593 0.129649,-0.5186 0.129649,-2.20403 0.06482,-1.75026 0.06482,-4.01911 0,-2.52815 -0.06482,-4.21358 0,-1.68543 -0.129649,-3.37086 -0.842716,0 -1.426134,-0.12965 -0.518595,-0.19447 -1.296487,-0.38895 -0.713067,-0.19447 -1.944729,-0.38894 -1.166837,-0.19447 -3.17639,-0.32412 0.259297,-0.45377 0.648243,-1.16684 0.388945,-0.77789 0.777891,-1.62061 0.388946,-0.84271 0.648243,-1.55578 0.324122,-0.77789 0.45377,-1.29649 2.463324,0.5186 4.796999,0.77789 2.398499,0.2593 4.537701,0.2593 2.204026,0 4.019107,-0.2593 1.81508,-0.32412 3.046742,-1.03718 -0.194473,0.51859 -0.713067,1.49096 -0.45377,0.90754 -0.972365,2.00955 -0.518594,1.03719 -0.90754,2.07438 -0.388946,1.03718 -0.388946,1.81508 0.194473,2.72262 0.324122,5.25077 0.129648,2.52814 0.259297,4.60252 0.194473,2.00955 0.324121,3.37086 0.129649,1.36131 0.324122,1.75026 -3.046742,0.71307 -5.769363,2.20403 -2.722621,1.55578 -6.352782,4.60252 -2.852269,-1.75025 -6.093484,-2.98192 -3.241215,-1.23166 -6.417606,-2.1392 -3.111567,-0.97236 -6.02866,-1.68543 -2.85227,-0.71307 -4.991472,-1.42613 1.037189,-0.2593 1.750256,-1.23167 0.777892,-1.03718 1.231662,-2.52814 0.518595,-1.49096 0.777892,-3.30604 0.259297,-1.87991 0.259297,-3.75981 0,-2.9171 -0.648243,-5.57489 -0.583419,-2.6578 -1.685432,-4.01911 1.037189,-1.03719 1.685432,-2.72262 0.713067,-1.75026 1.102013,-3.69499 0.388946,-2.00955 0.518595,-4.08393 0.129648,-2.07437 0.129648,-3.88945 0,-1.49096 -0.06482,-2.59298 -0.06482,-1.10201 -0.129649,-1.68543 -1.490959,-0.51859 -3.111566,-2.1392 -1.555783,-1.62061 -2.333675,-3.50051 4.148755,0.45377 7.843741,0.64824 3.759809,0.12965 7.065849,0.12965 7.195497,0 11.798023,-0.45377 4.602525,-0.45377 7.130673,-0.45377 0.518594,0 0.90754,0.0648 0.388946,0 0.713067,0.0648 -0.259297,0.58342 -0.583418,2.00955 -0.259297,1.36131 -0.583419,3.11157 -0.324121,1.68543 -0.583419,3.63016 -0.259297,1.8799 -0.518594,3.56533 -0.194473,1.62061 -0.324122,2.85227 -0.129648,1.23167 -0.129648,1.55579 z"
       id="path389"
       style="font-size:64.8243px;line-height:1.25;font-family:'New Rocker';-inkscape-font-specification:'New Rocker';stroke-width:0.264583" /><path
       d="m 128.22614,141.11224 q -0.32413,-6.41761 -0.5186,-12.31662 -0.12965,-5.89901 -0.2593,-10.43671 -0.0648,-4.5377 -0.12964,-7.26032 0,-2.72262 0,-2.78745 -0.32413,-3.95428 -4.08394,-5.44524 0.64825,0.0648 1.23167,0.0648 0.64824,0 1.29648,0 2.9171,0 5.3156,-0.25929 2.46332,-0.32412 4.47287,-0.64825 2.00956,-0.32412 3.63016,-0.58341 1.68543,-0.32413 3.11157,-0.32413 0.77789,0 1.49096,0.19448 -3.88946,2.78744 -6.02866,6.09348 -2.07438,3.24122 -2.07438,7.32515 0,4.797 3.17639,10.89048 -1.49096,3.75981 -2.46332,8.10304 -0.90754,4.34323 -0.90754,8.68645 0,1.87991 0.12965,4.34323 0.19447,2.3985 0.64824,4.73218 1.94473,2.07437 3.43569,3.24121 1.55578,1.16684 2.78744,1.75026 1.23166,0.58342 2.26885,0.77789 1.10202,0.19447 2.1392,0.32412 l -1.68543,-4.2784 q 2.20403,1.23166 4.40806,2.33367 2.20402,1.10202 4.5377,1.94473 2.33367,0.84272 4.86182,1.29649 2.59297,0.51859 5.51007,0.51859 1.94472,0 4.0191,-0.12965 2.1392,-0.12965 4.47288,-0.45377 -5.70454,2.26885 -10.76084,3.24122 -4.99147,1.03719 -9.46434,1.03719 -5.70454,0 -10.56636,-1.62061 -4.797,-1.62061 -8.94576,-4.40805 -4.08393,-2.72262 -7.51962,-6.35278 -3.37086,-3.56534 -6.22313,-7.51962 -2.78745,-4.01911 -5.0563,-8.10304 -2.20402,-4.08393 -3.95428,-7.77892 v 6.61208 q 0,4.01911 0.2593,6.74173 0.2593,2.72262 0.84271,4.73217 0.58342,2.00956 1.49096,3.56534 0.90754,1.49096 2.20403,3.04674 -1.42614,-0.38894 -2.52815,-0.77789 -1.03719,-0.38895 -2.07438,-0.90754 -0.97236,-0.51859 -2.07437,-1.29649 -1.03719,-0.77789 -2.46333,-1.94473 -1.75025,3.11157 -4.66735,5.38042 -2.917091,2.26885 -7.843738,3.88946 1.94473,-1.8799 3.630161,-4.2784 1.685432,-2.33368 2.917097,-4.99148 1.29648,-2.72262 2.00955,-5.57489 0.77789,-2.85226 0.77789,-5.76936 0,-2.72262 -0.71307,-5.25077 -0.64824,-2.52814 -2.20402,-4.86182 3.17639,-6.09348 3.17639,-10.89048 0,-4.08393 -2.1392,-7.32515 -2.07438,-3.30604 -5.963839,-6.09348 0.648243,-0.19448 1.490959,-0.19448 1.296486,0 2.917094,0.32413 1.685436,0.25929 3.630156,0.58341 2.00956,0.32413 4.27841,0.64825 2.33367,0.25929 4.99147,0.25929 0.64824,0 1.23166,0 0.64825,0 1.29649,-0.0648 -3.50051,1.36131 -4.01911,4.797 1.16684,2.91709 2.78745,6.74173 1.68543,3.82463 3.69498,8.03821 2.07438,4.21358 4.47288,8.55681 2.3985,4.2784 4.99147,8.16786 z"
       id="path391"
       style="font-size:64.8243px;line-height:1.25;font-family:'New Rocker';-inkscape-font-specification:'New Rocker';stroke-width:0.264583" /><path
       d="m 166.40763,101.63424 q -1.36131,0.90754 -2.33368,2.46332 -0.90754,1.49096 -1.49096,3.30604 -0.51859,1.75026 -0.77789,3.69499 -0.2593,1.8799 -0.2593,3.63016 0,1.23166 0.0648,2.65779 0.12965,1.36131 0.32412,2.85227 0.2593,1.42614 0.58342,2.85227 0.38895,1.36131 0.90754,2.52815 -1.03719,1.75026 -1.42614,4.21358 -0.32412,2.46332 -0.32412,4.92665 0,4.14875 1.03719,7.90856 1.03719,3.69499 4.34323,7.26032 -3.50051,-0.45377 -6.15831,-0.58341 -2.59297,-0.19448 -4.73217,-0.19448 -2.9171,0 -5.0563,0.19448 -2.1392,0.19447 -4.2784,0.51859 1.36131,-0.84272 2.52815,-2.20403 1.16683,-1.42613 2.00955,-3.11156 0.84272,-1.68543 1.29649,-3.56534 0.51859,-1.8799 0.51859,-3.69499 0,-3.30603 -0.77789,-6.4176 -0.77789,-3.17639 -2.46333,-5.25077 1.81509,-3.37086 2.3985,-6.15831 0.58342,-2.78744 0.58342,-5.76936 0,-1.81508 -0.19447,-3.88946 -2.52815,-1.03719 -3.43569,-3.24121 -0.90754,-2.26886 -1.16684,-4.99148 2.13921,0.58342 3.95429,0.84272 1.8799,0.2593 3.56533,0.2593 2.98192,0 5.51007,-0.32412 2.52815,-0.38895 5.25077,-0.71307 z"
       id="path393"
       style="font-size:64.8243px;line-height:1.25;font-family:'New Rocker';-inkscape-font-specification:'New Rocker';stroke-width:0.264583" /><path
       d="m 214.05349,102.28248 q -1.55578,1.36131 -3.43569,2.59297 -1.81508,1.23167 -3.82463,2.13921 -2.00955,0.90754 -4.14876,1.49095 -2.1392,0.5186 -4.2784,0.5186 -0.71307,0 -1.36131,0 -0.64824,0 -1.29649,-0.0648 -0.19447,1.94473 -0.19447,3.95429 0,5.51006 0.0648,11.08495 0.0648,5.57489 0.0648,11.86285 0,3.37086 1.16684,6.54725 1.23166,3.11157 3.50051,4.53771 -2.72262,1.29648 -4.60253,2.72262 -1.81508,1.49096 -3.24121,4.21358 -1.10201,-2.6578 -3.43569,-4.27841 -2.33367,-1.55578 -5.25077,-2.65779 1.29649,-1.87991 1.94473,-4.86183 0.64824,-3.04674 0.64824,-5.89901 0,-2.78744 0,-4.92665 0,-2.20402 0,-4.08393 0.0648,-1.8799 0.0648,-3.63016 0.0648,-1.75025 0.0648,-3.75981 0.0648,-2.00955 0.0648,-4.40805 0,-2.3985 0,-5.63971 0,-0.5186 0,-0.97237 0,-0.45377 -0.12965,-0.97236 -4.27841,-0.77789 -8.16786,-1.55579 -3.82464,-0.84271 -7.00103,-0.84271 -1.42613,0 -3.04674,0.32412 l -0.0648,-0.19447 q 3.50051,-1.03719 5.70453,-2.52815 2.26885,-1.49096 4.5377,-3.565338 3.37087,0.972368 5.70454,1.555788 2.3985,0.58341 4.40806,0.90754 2.07437,0.32412 4.0191,0.45377 2.00956,0.0648 4.5377,0.0648 -0.64824,-1.10201 -0.90754,-1.94473 -0.25929,-0.907539 -0.32412,-1.879904 2.1392,1.361311 3.95428,2.139204 1.87991,0.71307 3.56534,1.10201 1.68543,0.32412 3.37087,0.38895 1.68543,0.0648 3.50051,0.0648 1.03719,0 1.8799,-0.0648 0.90754,-0.0648 1.81508,-0.19448 z"
       id="path395"
       style="font-size:64.8243px;line-height:1.25;font-family:'New Rocker';-inkscape-font-specification:'New Rocker';stroke-width:0.264583" /><path
       d="m 215.80375,149.5394 q 0.97237,-0.58342 1.68543,-2.20403 0.77789,-1.62061 1.29649,-3.69498 0.58342,-2.07438 0.84271,-4.27841 0.2593,-2.26885 0.2593,-4.14875 0,-2.9171 -0.64824,-5.57489 -0.58342,-2.6578 -1.68543,-4.01911 1.03719,-1.03719 1.68543,-2.72262 0.71307,-1.75026 1.10201,-3.69499 0.38895,-2.00955 0.5186,-4.08393 0.12964,-2.07437 0.12964,-3.88945 0,-1.49096 -0.0648,-2.59298 -0.0648,-1.10201 -0.12965,-1.68543 -1.49096,-0.51859 -3.11156,-2.1392 -1.55579,-1.62061 -2.33368,-3.50051 4.14876,0.45377 7.84374,0.64824 3.75981,0.12965 7.06585,0.12965 7.06585,0 11.40908,-0.45377 4.34323,-0.45377 6.87137,-0.45377 0.5186,0 0.90754,0.0648 0.38895,0 0.71307,0.0648 -0.38894,0.71306 -0.84271,2.59297 -0.38895,1.8799 -0.7779,4.14875 -0.38894,2.20403 -0.71306,4.34323 -0.2593,2.07438 -0.38895,3.11157 l -0.45377,0.19447 q -2.26885,-1.29648 -3.30604,-2.91709 -0.97236,-1.62061 -1.49096,-3.88946 -0.90754,-0.71307 -2.26885,-0.90754 -1.36131,-0.19447 -3.43569,-0.19447 -1.68543,0 -3.24121,0.0648 -1.55579,0.0648 -2.46333,0.0648 -0.51859,2.52814 -0.77789,6.1583 -0.25929,3.63017 -0.38894,7.7141 0.90754,0.12965 1.81508,0.19447 0.97236,0 1.49096,0 1.36131,0 2.65779,-1.03719 1.36131,-1.10201 2.59298,-2.78744 0.32412,0.77789 0.64824,1.81508 0.32412,0.97236 0.71307,2.00955 0.45377,0.97236 0.97236,1.8799 0.51859,0.90754 1.23166,1.36131 -0.58342,0.58342 -1.16684,1.49096 -0.51859,0.90754 -1.03718,1.94473 -0.45377,1.03719 -0.90754,2.07438 -0.38895,1.03719 -0.71307,1.87991 -0.38895,-0.71307 -0.90754,-1.55579 -0.5186,-0.84271 -1.10202,-1.55578 -0.58341,-0.71307 -1.29648,-1.16684 -0.64824,-0.51859 -1.42614,-0.51859 -0.58342,0 -1.68543,0.0648 -1.10201,0.0648 -2.00955,0.2593 v 1.16684 q 0,4.08393 0.0648,7.77891 0.12965,3.63016 0.38895,6.35278 l 10.95531,1.10202 q 0.90754,-4.01911 3.17639,-7.13068 2.33367,-3.11156 4.99147,-6.02866 l 0.38894,0.12965 q -0.19447,1.49096 -0.25929,2.98192 -0.0648,1.42613 -0.0648,2.78744 0,3.37087 0.32412,6.09349 0.32413,2.72262 0.7779,4.08393 -1.10202,0.12965 -2.20403,0.38895 -1.03719,0.19447 -2.26885,0.71306 -1.23166,0.5186 -2.6578,1.42614 -1.36131,0.90754 -3.04674,2.33367 -5.44524,-1.6206 -10.76083,-2.46332 -5.3156,-0.77789 -9.594,-0.77789 -2.07438,0 -3.82464,0.64824 z"
       id="path397"
       style="font-size:64.8243px;line-height:1.25;font-family:'New Rocker';-inkscape-font-specification:'New Rocker';stroke-width:0.264583" /><path
       style="fill:#f04222;fill-opacity:1;stroke-width:1"
       d="m 142.67068,92.678948 c -0.94035,-0.87993 -2.74757,-3.02792 -3.48168,-4.13814 -2.12231,-3.20973 -3.58504,-6.82972 -4.54495,-11.247904 -0.31152,-1.43386 -0.46186,-2.42136 -0.77583,-5.09582 -0.0586,-0.49939 -0.11063,-2.26145 -0.11557,-3.91568 -0.0106,-3.43584 0.0888,-4.22122 0.88818,-7.03689 0.69916,-2.46279 2.57581,-6.2934 4.2537,-8.6826 0.17536,-0.24969 0.55794,-0.81151 0.85019,-1.24848 0.29226,-0.43696 0.55941,-0.82002 0.59368,-0.85124 0.0342,-0.0313 0.36971,-0.49087 0.74543,-1.02147 0.37571,-0.53061 0.95341,-1.32562 1.28377,-1.76669 1.00443,-1.34108 1.38366,-1.85927 2.52786,-3.45423 0.60457,-0.84271 1.13392,-1.5833 1.17636,-1.64572 0.98558,-1.44999 1.82828,-2.84488 2.84556,-4.71016 0.36141,-0.66267 1.28226,-2.837072 1.61589,-3.815637 0.3688,-1.081643 0.80746,-2.820609 1.11318,-4.41298 0.11986,-0.62424 0.32166,-1.67126 0.44847,-2.326712 0.89573,-4.630029 1.45477,-10.130541 1.26603,-12.456412 -0.058,-0.714504 -0.0522,-1.049404 0.018,-1.048434 0.22284,0.003 2.16771,1.981373 3.63881,3.701333 3.17591,3.71323 5.32532,7.306537 7.1541,11.959975 0.70193,1.786107 1.57112,5.016241 2.39745,8.909597 0.19873,0.93637 0.42641,2.00892 0.50594,2.38347 0.6681,3.14623 1.60289,9.4761 1.78759,12.10461 0.0881,1.25382 0.16094,1.39621 0.48479,0.94766 0.41226,-0.57102 1.1316,-2.33115 1.34515,-3.29144 0.58905,-2.64879 0.49145,-7.29049 -0.24343,-11.5768 -0.13913,-0.81152 -0.25315,-1.52004 -0.25335,-1.5745 -7.5e-4,-0.196317 0.30744,0.2019 1.15147,1.48772 3.4526,5.25979 5.58429,10.62932 6.09729,15.35849 0.16203,1.49363 0.0516,5.90389 -0.20592,8.22239 -0.39886,3.59135 -0.8119,5.75411 -1.59359,8.34429 -0.16049,0.5318 -0.2918,1.00424 -0.2918,1.04986 0,0.12254 1.13637,0.10079 1.43104,-0.0274 0.39356,-0.17122 1.09097,-0.96479 1.45898,-1.66019 0.1835,-0.34673 0.41026,-0.7414 0.50391,-0.87704 0.16496,-0.23891 0.17039,-0.21979 0.17359,0.61162 0.006,1.63123 -0.66454,6.02476 -1.38526,9.07285 -0.9989,4.224674 -3.00056,8.932974 -4.9946,11.748354 -2.10526,2.97239 -4.73583,5.24143 -7.50334,6.4721 -1.1321,0.50343 -2.9119,1.02908 -4.00986,1.18428 -7.07347,0.81246 -13.42642,-1.1185 -18.3573,-5.67601 z"
       id="path1262"
       sodipodi:nodetypes="cssssssssssscssssscssssssssssssssssssssscc" /><path
       style="fill:#f6821d;fill-opacity:1;stroke-width:1"
       d="m 146.03113,93.860378 c -0.66361,-0.67869 -1.92616,-2.31745 -2.43233,-3.15711 -1.46334,-2.42754 -2.43239,-5.13112 -3.01093,-8.40049 -0.18777,-1.06103 -0.27007,-1.78939 -0.42477,-3.758614 -0.0289,-0.36771 -0.0174,-1.65943 0.0253,-2.87049 0.089,-2.51537 0.18359,-3.08662 0.84778,-5.11825 0.58094,-1.77703 2.06222,-4.51198 3.35751,-6.19915 0.13538,-0.17633 0.4312,-0.5735 0.65741,-0.8826 0.22619,-0.30911 0.4325,-0.57968 0.45848,-0.60126 0.026,-0.0215 0.2844,-0.34573 0.57433,-0.72031 0.28992,-0.37458 0.73512,-0.93527 0.98933,-1.24599 0.77289,-0.9447 1.06505,-1.31008 1.94738,-2.43549 0.4662,-0.59463 0.87449,-1.11725 0.90729,-1.16139 0.76218,-1.02514 1.41819,-2.01518 2.21522,-3.34315 0.28316,-0.47177 1.01828,-2.02955 1.28998,-2.73358 0.30033,-0.77818 0.67028,-2.03496 0.93879,-3.18932 0.10524,-0.45252 0.2824,-1.21151 0.39362,-1.68663 0.7857,-3.35619 1.34941,-7.36194 1.27658,-9.0714 -0.0224,-0.525133 -0.008,-0.770069 0.0427,-0.766773 0.16303,0.0106 1.5311,1.530063 2.55959,2.843153 2.22045,2.83483 3.69288,5.54414 4.90083,9.01765 0.46364,1.33322 1.00914,3.72961 1.50467,6.6099 0.11917,0.69271 0.2557,1.48619 0.3034,1.76327 1.17941,6.80797 0.42633,12.03262 1.08371,15.7326 2.31317,-2.86563 3.10436,-5.91575 3.84832,-10.44817 1.93456,10.92482 -1.39146,14.81356 -0.40141,19.016094 0.83178,1.43209 2.01601,2.56332 2.91413,2.51144 -0.84985,3.05569 -3.30777,7.9574 -4.84646,9.9449 -1.62451,2.09834 -3.61379,3.6625 -5.67413,4.46158 -0.84283,0.32687 -2.16038,0.64619 -2.96844,0.71941 -5.20054,0.3346 -9.79658,-1.31247 -13.27792,-4.82985 z"
       id="path3848"
       sodipodi:nodetypes="cssssssssssscssssscssscccccssccc" /><path
       style="fill:#fece0b;fill-opacity:1;stroke-width:1"
       d="m 149.07047,95.317858 c -0.4651,-0.47566 -1.34997,-1.62422 -1.70472,-2.21271 -1.02562,-1.70135 -1.70477,-3.5962 -2.11025,-5.88757 -0.1316,-0.74364 -0.18929,-1.25413 -0.29772,-2.63427 -0.0202,-0.25772 -0.0122,-1.16303 0.0178,-2.01183 0.0623,-1.76292 0.12867,-2.163294 0.59417,-3.587184 0.40717,-1.24546 1.44534,-3.16227 2.35316,-4.34475 5.86211,-6.52736 7.30155,-8.92874 9.99143,-16.90445 2.38227,11.96382 0.92145,16.6376 7.63622,22.15573 -0.60947,2.031404 2.03106,7.812164 1.23033,10.085224 -0.59563,2.1416 -1.26876,3.70272 -2.34716,5.09568 -1.13857,1.47064 -2.53277,2.56691 -3.97679,3.12694 -0.59071,0.22911 -1.51414,0.4529 -2.08047,0.50421 -3.64486,0.23451 -6.86606,-0.91986 -9.306,-3.38504 z"
       id="path6196"
       sodipodi:nodetypes="csssssccccssccc" /><path
       id="path404"
       style="font-size:64.8243px;line-height:1.25;font-family:'New Rocker';-inkscape-font-specification:'New Rocker';stroke-width:0.264583"
       d="m 206.913,165.47063 c 0.89099,2.75226 1.50051,5.84149 3.56396,9.80133 -37.6139,1.83089 -134.405582,1.29099 -148.190022,1.23564 l -2.44984,7.38787 c 18.93422,-1.12147 147.616922,-3.57812 150.908152,-2.29892 -2.82094,2.3492 -5.14131,8.03778 -5.4857,11.44982 2.83209,-1.45664 5.67603,-2.85174 8.53226,-4.1847 2.85624,-1.33299 5.82676,-2.55059 8.9114,-3.65284 3.08459,-1.10225 6.34025,-2.03143 9.76743,-2.78756 3.63579,-0.96629 9.11601,-2.36538 15.21275,-2.91912 l -6e-5,-0.63793 c -5.97068,-0.7496 -11.05023,-2.20329 -13.55924,-2.76848 -3.4272,-0.75614 -6.68285,-1.68531 -9.76745,-2.78757 -3.08465,-1.10225 -6.05516,-2.31986 -8.9114,-3.65285 -2.85622,-1.33295 -5.70016,-2.72805 -8.53224,-4.18469 z"
       sodipodi:nodetypes="ccccccssccccssc" /><path
       d="m 337.70433,101.63424 q -1.36131,0.90754 -2.33368,2.46332 -0.90754,1.49096 -1.49096,3.30604 -0.51859,1.75026 -0.77789,3.69499 -0.25929,1.8799 -0.25929,3.63016 0,1.23166 0.0648,2.65779 0.12964,1.36131 0.32412,2.85227 0.2593,1.42614 0.58342,2.85227 0.38894,1.36131 0.90754,2.52815 -1.03719,1.75026 -1.42614,4.21358 -0.32412,2.46332 -0.32412,4.92665 0,4.14875 1.03719,7.90856 1.03719,3.69499 4.34323,7.26032 -3.50051,-0.45377 -6.15831,-0.58341 -2.59297,-0.19448 -4.73218,-0.19448 -2.91709,0 -5.05629,0.19448 -2.1392,0.19447 -4.2784,0.51859 1.36131,-0.84272 2.52814,-2.20403 1.16684,-1.42613 2.00956,-3.11156 0.84271,-1.68543 1.29648,-3.56534 0.5186,-1.8799 0.5186,-3.69499 0,-3.30603 -0.77789,-6.4176 -0.7779,-3.17639 -2.46333,-5.25077 1.81508,-3.37086 2.3985,-6.15831 0.58342,-2.78744 0.58342,-5.76936 0,-1.81508 -0.19447,-3.88946 -2.52815,-1.03719 -3.43569,-3.24121 -0.90754,-2.26886 -1.16684,-4.99148 2.1392,0.58342 3.95428,0.84272 1.87991,0.2593 3.56534,0.2593 2.98192,0 5.51007,-0.32412 2.52814,-0.38895 5.25076,-0.71307 z"
       id="path750"
       style="font-size:64.8243px;line-height:1.25;font-family:'New Rocker';-inkscape-font-specification:'New Rocker';stroke-width:0.264583" /><path
       d="m 375.95066,118.03479 q -1.29648,-0.90754 -2.20403,-1.81508 -0.84271,-0.97237 -1.42613,-2.07438 -0.58342,-1.10201 -0.97236,-2.3985 -0.38895,-1.29649 -0.64825,-2.85227 -0.90754,-0.71307 -2.91709,-0.90754 -2.00955,-0.19447 -4.08393,-0.19447 -1.68543,0 -2.9171,0.0648 -1.23166,0.0648 -2.1392,0.0648 -0.58342,1.6206 -0.77789,5.57489 -0.19447,3.88945 -0.19447,8.94575 0,2.72262 0,5.57489 0.0648,2.85227 0.0648,5.63971 0.0648,2.78745 0.0648,5.44525 0.0648,2.59297 0.0648,4.86182 1.94473,0.45377 3.17639,0.84271 1.23166,0.32413 2.3985,0.58342 1.16684,0.19448 2.65779,0.38895 1.49096,0.12965 3.95429,0.2593 0.12965,-0.5186 0.12965,-2.20403 0.0648,-1.75026 0.0648,-4.01911 0,-2.52815 -0.0648,-4.21358 0,-1.68543 -0.12965,-3.37086 -0.84272,0 -1.42614,-0.12965 -0.51859,-0.19447 -1.29648,-0.38895 -0.71307,-0.19447 -1.94473,-0.38894 -1.16684,-0.19447 -3.17639,-0.32412 0.25929,-0.45377 0.64824,-1.16684 0.38894,-0.77789 0.77789,-1.62061 0.38895,-0.84271 0.64824,-1.55578 0.32413,-0.77789 0.45377,-1.29649 2.46333,0.5186 4.797,0.77789 2.3985,0.2593 4.5377,0.2593 2.20403,0 4.01911,-0.2593 1.81508,-0.32412 3.04674,-1.03718 -0.19447,0.51859 -0.71306,1.49096 -0.45377,0.90754 -0.97237,2.00955 -0.51859,1.03719 -0.90754,2.07438 -0.38895,1.03718 -0.38895,1.81508 0.19448,2.72262 0.32413,5.25077 0.12964,2.52814 0.25929,4.60252 0.19448,2.00955 0.32412,3.37086 0.12965,1.36131 0.32413,1.75026 -3.04675,0.71307 -5.76937,2.20403 -2.72262,1.55578 -6.35278,4.60252 -2.85227,-1.75025 -6.09348,-2.98192 -3.24122,-1.23166 -6.41761,-2.1392 -3.11157,-0.97236 -6.02866,-1.68543 -2.85227,-0.71307 -4.99147,-1.42613 1.03719,-0.2593 1.75026,-1.23167 0.77789,-1.03718 1.23166,-2.52814 0.51859,-1.49096 0.77789,-3.30604 0.2593,-1.87991 0.2593,-3.75981 0,-2.9171 -0.64825,-5.57489 -0.58342,-2.6578 -1.68543,-4.01911 1.03719,-1.03719 1.68543,-2.72262 0.71307,-1.75026 1.10202,-3.69499 0.38894,-2.00955 0.51859,-4.08393 0.12965,-2.07437 0.12965,-3.88945 0,-1.49096 -0.0648,-2.59298 -0.0648,-1.10201 -0.12965,-1.68543 -1.49096,-0.51859 -3.11157,-2.1392 -1.55578,-1.62061 -2.33367,-3.50051 4.14875,0.45377 7.84374,0.64824 3.75981,0.12965 7.06585,0.12965 7.1955,0 11.79802,-0.45377 4.60253,-0.45377 7.13068,-0.45377 0.51859,0 0.90754,0.0648 0.38894,0 0.71306,0.0648 -0.25929,0.58342 -0.58342,2.00955 -0.25929,1.36131 -0.58341,3.11157 -0.32413,1.68543 -0.58342,3.63016 -0.2593,1.8799 -0.5186,3.56533 -0.19447,1.62061 -0.32412,2.85227 -0.12965,1.23167 -0.12965,1.55579 z"
       id="path752"
       style="font-size:64.8243px;line-height:1.25;font-family:'New Rocker';-inkscape-font-specification:'New Rocker';stroke-width:0.264583" /><path
       d="m 417.17898,141.11224 q -0.32413,-6.41761 -0.5186,-12.31662 -0.12965,-5.89901 -0.2593,-10.43671 -0.0648,-4.5377 -0.12964,-7.26032 0,-2.72262 0,-2.78745 -0.32413,-3.95428 -4.08394,-5.44524 0.64825,0.0648 1.23167,0.0648 0.64824,0 1.29648,0 2.9171,0 5.3156,-0.25929 2.46332,-0.32412 4.47287,-0.64825 2.00956,-0.32412 3.63016,-0.58341 1.68543,-0.32413 3.11157,-0.32413 0.77789,0 1.49096,0.19448 -3.88946,2.78744 -6.02866,6.09348 -2.07438,3.24122 -2.07438,7.32515 0,4.797 3.17639,10.89048 -1.49096,3.75981 -2.46332,8.10304 -0.90754,4.34323 -0.90754,8.68645 0,1.87991 0.12965,4.34323 0.19447,2.3985 0.64824,4.73218 1.94473,2.07437 3.43569,3.24121 1.55578,1.16684 2.78744,1.75026 1.23166,0.58342 2.26885,0.77789 1.10202,0.19447 2.1392,0.32412 l -1.68543,-4.2784 q 2.20403,1.23166 4.40806,2.33367 2.20402,1.10202 4.5377,1.94473 2.33367,0.84272 4.86182,1.29649 2.59297,0.51859 5.51007,0.51859 1.94472,0 4.0191,-0.12965 2.1392,-0.12965 4.47288,-0.45377 -5.70454,2.26885 -10.76084,3.24122 -4.99147,1.03719 -9.46434,1.03719 -5.70454,0 -10.56636,-1.62061 -4.797,-1.62061 -8.94576,-4.40805 -4.08393,-2.72262 -7.51962,-6.35278 -3.37086,-3.56534 -6.22313,-7.51962 -2.78745,-4.01911 -5.0563,-8.10304 -2.20402,-4.08393 -3.95428,-7.77892 v 6.61208 q 0,4.01911 0.2593,6.74173 0.2593,2.72262 0.84271,4.73217 0.58342,2.00956 1.49096,3.56534 0.90754,1.49096 2.20403,3.04674 -1.42614,-0.38894 -2.52815,-0.77789 -1.03719,-0.38895 -2.07438,-0.90754 -0.97236,-0.51859 -2.07437,-1.29649 -1.03719,-0.77789 -2.46333,-1.94473 -1.75025,3.11157 -4.66735,5.38042 -2.91709,2.26885 -7.84373,3.88946 1.94473,-1.8799 3.63016,-4.2784 1.68543,-2.33368 2.91709,-4.99148 1.29648,-2.72262 2.00955,-5.57489 0.77789,-2.85226 0.77789,-5.76936 0,-2.72262 -0.71307,-5.25077 -0.64824,-2.52814 -2.20402,-4.86182 3.17639,-6.09348 3.17639,-10.89048 0,-4.08393 -2.1392,-7.32515 -2.07438,-3.30604 -5.96383,-6.09348 0.64824,-0.19448 1.49095,-0.19448 1.29649,0 2.9171,0.32413 1.68543,0.25929 3.63015,0.58341 2.00956,0.32413 4.27841,0.64825 2.33367,0.25929 4.99147,0.25929 0.64824,0 1.23166,0 0.64825,0 1.29649,-0.0648 -3.50051,1.36131 -4.01911,4.797 1.16684,2.91709 2.78745,6.74173 1.68543,3.82463 3.69498,8.03821 2.07438,4.21358 4.47288,8.55681 2.3985,4.2784 4.99147,8.16786 z"
       id="path754"
       style="font-size:64.8243px;line-height:1.25;font-family:'New Rocker';-inkscape-font-specification:'New Rocker';stroke-width:0.264583" /><path
       d="m 455.36047,101.63424 q -1.36131,0.90754 -2.33368,2.46332 -0.90754,1.49096 -1.49096,3.30604 -0.51859,1.75026 -0.77789,3.69499 -0.2593,1.8799 -0.2593,3.63016 0,1.23166 0.0648,2.65779 0.12965,1.36131 0.32412,2.85227 0.2593,1.42614 0.58342,2.85227 0.38895,1.36131 0.90754,2.52815 -1.03719,1.75026 -1.42614,4.21358 -0.32412,2.46332 -0.32412,4.92665 0,4.14875 1.03719,7.90856 1.03719,3.69499 4.34323,7.26032 -3.50051,-0.45377 -6.15831,-0.58341 -2.59297,-0.19448 -4.73217,-0.19448 -2.9171,0 -5.0563,0.19448 -2.1392,0.19447 -4.2784,0.51859 1.36131,-0.84272 2.52815,-2.20403 1.16683,-1.42613 2.00955,-3.11156 0.84272,-1.68543 1.29649,-3.56534 0.51859,-1.8799 0.51859,-3.69499 0,-3.30603 -0.77789,-6.4176 -0.77789,-3.17639 -2.46333,-5.25077 1.81509,-3.37086 2.3985,-6.15831 0.58342,-2.78744 0.58342,-5.76936 0,-1.81508 -0.19447,-3.88946 -2.52815,-1.03719 -3.43569,-3.24121 -0.90754,-2.26886 -1.16684,-4.99148 2.13921,0.58342 3.95429,0.84272 1.8799,0.2593 3.56533,0.2593 2.98192,0 5.51007,-0.32412 2.52815,-0.38895 5.25077,-0.71307 z"
       id="path756"
       style="font-size:64.8243px;line-height:1.25;font-family:'New Rocker';-inkscape-font-specification:'New Rocker';stroke-width:0.264583" /><path
       d="m 503.00633,102.28248 q -1.55578,1.36131 -3.43569,2.59297 -1.81508,1.23167 -3.82463,2.13921 -2.00955,0.90754 -4.14876,1.49095 -2.1392,0.5186 -4.2784,0.5186 -0.71307,0 -1.36131,0 -0.64824,0 -1.29649,-0.0648 -0.19447,1.94473 -0.19447,3.95429 0,5.51006 0.0648,11.08495 0.0648,5.57489 0.0648,11.86285 0,3.37086 1.16684,6.54725 1.23166,3.11157 3.50051,4.53771 -2.72262,1.29648 -4.60253,2.72262 -1.81508,1.49096 -3.24121,4.21358 -1.10201,-2.6578 -3.43569,-4.27841 -2.33367,-1.55578 -5.25077,-2.65779 1.29649,-1.87991 1.94473,-4.86183 0.64824,-3.04674 0.64824,-5.89901 0,-2.78744 0,-4.92665 0,-2.20402 0,-4.08393 0.0648,-1.8799 0.0648,-3.63016 0.0648,-1.75025 0.0648,-3.75981 0.0648,-2.00955 0.0648,-4.40805 0,-2.3985 0,-5.63971 0,-0.5186 0,-0.97237 0,-0.45377 -0.12965,-0.97236 -4.27841,-0.77789 -8.16786,-1.55579 -3.82464,-0.84271 -7.00103,-0.84271 -1.42613,0 -3.04674,0.32412 l -0.0648,-0.19447 q 3.50051,-1.03719 5.70453,-2.52815 2.26885,-1.49096 4.5377,-3.565338 3.37087,0.972368 5.70454,1.555788 2.3985,0.58341 4.40806,0.90754 2.07437,0.32412 4.0191,0.45377 2.00956,0.0648 4.5377,0.0648 -0.64824,-1.10201 -0.90754,-1.94473 -0.25929,-0.907539 -0.32412,-1.879904 2.1392,1.361311 3.95428,2.139204 1.87991,0.71307 3.56534,1.10201 1.68543,0.32412 3.37087,0.38895 1.68543,0.0648 3.50051,0.0648 1.03719,0 1.8799,-0.0648 0.90754,-0.0648 1.81508,-0.19448 z"
       id="path758"
       style="font-size:64.8243px;line-height:1.25;font-family:'New Rocker';-inkscape-font-specification:'New Rocker';stroke-width:0.264583" /><path
       d="m 504.75659,149.5394 q 0.97237,-0.58342 1.68543,-2.20403 0.77789,-1.62061 1.29649,-3.69498 0.58342,-2.07438 0.84271,-4.27841 0.2593,-2.26885 0.2593,-4.14875 0,-2.9171 -0.64824,-5.57489 -0.58342,-2.6578 -1.68543,-4.01911 1.03719,-1.03719 1.68543,-2.72262 0.71307,-1.75026 1.10201,-3.69499 0.38895,-2.00955 0.5186,-4.08393 0.12964,-2.07437 0.12964,-3.88945 0,-1.49096 -0.0648,-2.59298 -0.0648,-1.10201 -0.12965,-1.68543 -1.49096,-0.51859 -3.11156,-2.1392 -1.55579,-1.62061 -2.33368,-3.50051 4.14876,0.45377 7.84374,0.64824 3.75981,0.12965 7.06585,0.12965 7.06585,0 11.40908,-0.45377 4.34323,-0.45377 6.87137,-0.45377 0.5186,0 0.90754,0.0648 0.38895,0 0.71307,0.0648 -0.38894,0.71306 -0.84271,2.59297 -0.38895,1.8799 -0.7779,4.14875 -0.38894,2.20403 -0.71306,4.34323 -0.2593,2.07438 -0.38895,3.11157 l -0.45377,0.19447 q -2.26885,-1.29648 -3.30604,-2.91709 -0.97236,-1.62061 -1.49096,-3.88946 -0.90754,-0.71307 -2.26885,-0.90754 -1.36131,-0.19447 -3.43569,-0.19447 -1.68543,0 -3.24121,0.0648 -1.55579,0.0648 -2.46333,0.0648 -0.51859,2.52814 -0.77789,6.1583 -0.25929,3.63017 -0.38894,7.7141 0.90754,0.12965 1.81508,0.19447 0.97236,0 1.49096,0 1.36131,0 2.65779,-1.03719 1.36131,-1.10201 2.59298,-2.78744 0.32412,0.77789 0.64824,1.81508 0.32412,0.97236 0.71307,2.00955 0.45377,0.97236 0.97236,1.8799 0.51859,0.90754 1.23166,1.36131 -0.58342,0.58342 -1.16684,1.49096 -0.51859,0.90754 -1.03718,1.94473 -0.45377,1.03719 -0.90754,2.07438 -0.38895,1.03719 -0.71307,1.87991 -0.38895,-0.71307 -0.90754,-1.55579 -0.5186,-0.84271 -1.10202,-1.55578 -0.58341,-0.71307 -1.29648,-1.16684 -0.64824,-0.51859 -1.42614,-0.51859 -0.58342,0 -1.68543,0.0648 -1.10201,0.0648 -2.00955,0.2593 v 1.16684 q 0,4.08393 0.0648,7.77891 0.12965,3.63016 0.38895,6.35278 l 10.95531,1.10202 q 0.90754,-4.01911 3.17639,-7.13068 2.33367,-3.11156 4.99147,-6.02866 l 0.38894,0.12965 q -0.19447,1.49096 -0.25929,2.98192 -0.0648,1.42613 -0.0648,2.78744 0,3.37087 0.32412,6.09349 0.32413,2.72262 0.7779,4.08393 -1.10202,0.12965 -2.20403,0.38895 -1.03719,0.19447 -2.26885,0.71306 -1.23166,0.5186 -2.6578,1.42614 -1.36131,0.90754 -3.04674,2.33367 -5.44524,-1.6206 -10.76083,-2.46332 -5.3156,-0.77789 -9.594,-0.77789 -2.07438,0 -3.82464,0.64824 z"
       id="path760"
       style="font-size:64.8243px;line-height:1.25;font-family:'New Rocker';-inkscape-font-specification:'New Rocker';stroke-width:0.264583" /><path
       style="fill:#f04222;fill-opacity:1;stroke-width:1"
       d="m 431.62352,92.678948 c -0.94035,-0.87993 -2.74757,-3.02792 -3.48168,-4.13814 -2.12231,-3.20973 -3.58504,-6.82972 -4.54495,-11.247904 -0.31152,-1.43386 -0.46186,-2.42136 -0.77583,-5.09582 -0.0586,-0.49939 -0.11063,-2.26145 -0.11557,-3.91568 -0.0106,-3.43584 0.0888,-4.22122 0.88818,-7.03689 0.69916,-2.46279 2.57581,-6.2934 4.2537,-8.6826 0.17536,-0.24969 0.55794,-0.81151 0.85019,-1.24848 0.29226,-0.43696 0.55941,-0.82002 0.59368,-0.85124 0.0342,-0.0313 0.36971,-0.49087 0.74543,-1.02147 0.37571,-0.53061 0.95341,-1.32562 1.28377,-1.76669 1.00443,-1.34108 1.38366,-1.85927 2.52786,-3.45423 0.60457,-0.84271 1.13392,-1.5833 1.17636,-1.64572 0.98558,-1.44999 1.82828,-2.84488 2.84556,-4.71016 0.36141,-0.66267 1.28226,-2.837072 1.61589,-3.815637 0.3688,-1.081643 0.80746,-2.820609 1.11318,-4.41298 0.11986,-0.62424 0.32166,-1.67126 0.44847,-2.326712 0.89573,-4.630029 1.45477,-10.130541 1.26603,-12.456412 -0.058,-0.714504 -0.0522,-1.049404 0.018,-1.048434 0.22284,0.003 2.16771,1.981373 3.63881,3.701333 3.17591,3.71323 5.32532,7.306537 7.1541,11.959975 0.70193,1.786107 1.57112,5.016241 2.39745,8.909597 0.19873,0.93637 0.42641,2.00892 0.50594,2.38347 0.6681,3.14623 1.60289,9.4761 1.78759,12.10461 0.0881,1.25382 0.16094,1.39621 0.48479,0.94766 0.41226,-0.57102 1.1316,-2.33115 1.34515,-3.29144 0.58905,-2.64879 0.49145,-7.29049 -0.24343,-11.5768 -0.13913,-0.81152 -0.25315,-1.52004 -0.25335,-1.5745 -7.5e-4,-0.196317 0.30744,0.2019 1.15147,1.48772 3.4526,5.25979 5.58429,10.62932 6.09729,15.35849 0.16203,1.49363 0.0516,5.90389 -0.20592,8.22239 -0.39886,3.59135 -0.8119,5.75411 -1.59359,8.34429 -0.16049,0.5318 -0.2918,1.00424 -0.2918,1.04986 0,0.12254 1.13637,0.10079 1.43104,-0.0274 0.39356,-0.17122 1.09097,-0.96479 1.45898,-1.66019 0.1835,-0.34673 0.41026,-0.7414 0.50391,-0.87704 0.16496,-0.23891 0.17039,-0.21979 0.17359,0.61162 0.006,1.63123 -0.66454,6.02476 -1.38526,9.07285 -0.9989,4.224674 -3.00056,8.932974 -4.9946,11.748354 -2.10526,2.97239 -4.73583,5.24143 -7.50334,6.4721 -1.1321,0.50343 -2.9119,1.02908 -4.00986,1.18428 -7.07347,0.81246 -13.42642,-1.1185 -18.3573,-5.67601 z"
       id="path762"
       sodipodi:nodetypes="cssssssssssscssssscssssssssssssssssssssscc" /><path
       style="fill:#f6821d;fill-opacity:1;stroke-width:1"
       d="m 434.98397,93.860378 c -0.66361,-0.67869 -1.92616,-2.31745 -2.43233,-3.15711 -1.46334,-2.42754 -2.43239,-5.13112 -3.01093,-8.40049 -0.18777,-1.06103 -0.27007,-1.78939 -0.42477,-3.758614 -0.0289,-0.36771 -0.0174,-1.65943 0.0253,-2.87049 0.089,-2.51537 0.18359,-3.08662 0.84778,-5.11825 0.58094,-1.77703 2.06222,-4.51198 3.35751,-6.19915 0.13538,-0.17633 0.4312,-0.5735 0.65741,-0.8826 0.22619,-0.30911 0.4325,-0.57968 0.45848,-0.60126 0.026,-0.0215 0.2844,-0.34573 0.57433,-0.72031 0.28992,-0.37458 0.73512,-0.93527 0.98933,-1.24599 0.77289,-0.9447 1.06505,-1.31008 1.94738,-2.43549 0.4662,-0.59463 0.87449,-1.11725 0.90729,-1.16139 0.76218,-1.02514 1.41819,-2.01518 2.21522,-3.34315 0.28316,-0.47177 1.01828,-2.02955 1.28998,-2.73358 0.30033,-0.77818 0.67028,-2.03496 0.93879,-3.18932 0.10524,-0.45252 0.2824,-1.21151 0.39362,-1.68663 0.7857,-3.35619 1.34941,-7.36194 1.27658,-9.0714 -0.0224,-0.525133 -0.008,-0.770069 0.0427,-0.766773 0.16303,0.0106 1.5311,1.530063 2.55959,2.843153 2.22045,2.83483 3.69288,5.54414 4.90083,9.01765 0.46364,1.33322 1.00914,3.72961 1.50467,6.6099 0.11917,0.69271 0.2557,1.48619 0.3034,1.76327 1.17941,6.80797 0.42633,12.03262 1.08371,15.7326 2.31317,-2.86563 3.10436,-5.91575 3.84832,-10.44817 1.93456,10.92482 -1.39146,14.81356 -0.40141,19.016094 0.83178,1.43209 2.01601,2.56332 2.91413,2.51144 -0.84985,3.05569 -3.30777,7.9574 -4.84646,9.9449 -1.62451,2.09834 -3.61379,3.6625 -5.67413,4.46158 -0.84283,0.32687 -2.16038,0.64619 -2.96844,0.71941 -5.20054,0.3346 -9.79658,-1.31247 -13.27792,-4.82985 z"
       id="path764"
       sodipodi:nodetypes="cssssssssssscssssscssscccccssccc" /><path
       style="fill:#fece0b;fill-opacity:1;stroke-width:1"
       d="m 438.02331,95.317858 c -0.4651,-0.47566 -1.34997,-1.62422 -1.70472,-2.21271 -1.02562,-1.70135 -1.70477,-3.5962 -2.11025,-5.88757 -0.1316,-0.74364 -0.18929,-1.25413 -0.29772,-2.63427 -0.0202,-0.25772 -0.0122,-1.16303 0.0178,-2.01183 0.0623,-1.76292 0.12867,-2.163294 0.59417,-3.587184 0.40717,-1.24546 1.44534,-3.16227 2.35316,-4.34475 5.86211,-6.52736 7.30155,-8.92874 9.99143,-16.90445 2.38227,11.96382 0.92145,16.6376 7.63622,22.15573 -0.60947,2.031404 2.03106,7.812164 1.23033,10.085224 -0.59563,2.1416 -1.26876,3.70272 -2.34716,5.09568 -1.13857,1.47064 -2.53277,2.56691 -3.97679,3.12694 -0.59071,0.22911 -1.51414,0.4529 -2.08047,0.50421 -3.64486,0.23451 -6.86606,-0.91986 -9.306,-3.38504 z"
       id="path766"
       sodipodi:nodetypes="csssssccccssccc" /><path
       id="path770"
       style="font-size:64.8243px;line-height:1.25;font-family:'New Rocker';-inkscape-font-specification:'New Rocker';stroke-width:0.264583"
       d="m 389.56033,165.47063 c -0.89099,2.75226 -1.50051,5.84149 -3.56396,9.80133 37.6139,1.83089 134.40558,1.29099 148.19002,1.23564 l 2.44984,7.38787 c -18.93422,-1.12147 -147.61692,-3.57812 -150.90815,-2.29892 2.82094,2.3492 5.14131,8.03778 5.4857,11.44982 -2.83209,-1.45664 -5.67603,-2.85174 -8.53226,-4.1847 -2.85624,-1.33299 -5.82676,-2.55059 -8.9114,-3.65284 -3.08459,-1.10225 -6.34025,-2.03143 -9.76743,-2.78756 -3.63579,-0.96629 -9.11601,-2.36538 -15.21275,-2.91912 l 6e-5,-0.63793 c 5.97068,-0.7496 11.05023,-2.20329 13.55924,-2.76848 3.4272,-0.75614 6.68285,-1.68531 9.76745,-2.78757 3.08465,-1.10225 6.05516,-2.31986 8.9114,-3.65285 2.85622,-1.33295 5.70016,-2.72805 8.53224,-4.18469 z"
       sodipodi:nodetypes="ccccccssccccssc" /><path
       d="m 630.34211,135.18921 q -1.36131,0.90754 -2.33368,2.46332 -0.90754,1.49096 -1.49096,3.30604 -0.51859,1.75026 -0.77789,3.69499 -0.25929,1.8799 -0.25929,3.63016 0,1.23166 0.0648,2.65779 0.12964,1.36131 0.32412,2.85227 0.2593,1.42614 0.58342,2.85227 0.38894,1.36131 0.90754,2.52815 -1.03719,1.75026 -1.42614,4.21358 -0.32412,2.46332 -0.32412,4.92665 0,4.14875 1.03719,7.90856 1.03719,3.69499 4.34323,7.26032 -3.50051,-0.45377 -6.15831,-0.58341 -2.59297,-0.19448 -4.73218,-0.19448 -2.91709,0 -5.05629,0.19448 -2.1392,0.19447 -4.2784,0.51859 1.36131,-0.84272 2.52814,-2.20403 1.16684,-1.42613 2.00956,-3.11156 0.84271,-1.68543 1.29648,-3.56534 0.5186,-1.8799 0.5186,-3.69499 0,-3.30603 -0.77789,-6.4176 -0.7779,-3.17639 -2.46333,-5.25077 1.81508,-3.37086 2.3985,-6.15831 0.58342,-2.78744 0.58342,-5.76936 0,-1.81508 -0.19447,-3.88946 -2.52815,-1.03719 -3.43569,-3.24121 -0.90754,-2.26886 -1.16684,-4.99148 2.1392,0.58342 3.95428,0.84272 1.87991,0.2593 3.56534,0.2593 2.98192,0 5.51007,-0.32412 2.52814,-0.38895 5.25076,-0.71307 z"
       id="path774"
       style="font-size:64.8243px;line-height:1.25;font-family:'New Rocker';-inkscape-font-specification:'New Rocker';stroke-width:0.264583" /><path
       d="m 668.58844,151.58976 q -1.29648,-0.90754 -2.20403,-1.81508 -0.84271,-0.97237 -1.42613,-2.07438 -0.58342,-1.10201 -0.97236,-2.3985 -0.38895,-1.29649 -0.64825,-2.85227 -0.90754,-0.71307 -2.91709,-0.90754 -2.00955,-0.19447 -4.08393,-0.19447 -1.68543,0 -2.9171,0.0648 -1.23166,0.0648 -2.1392,0.0648 -0.58342,1.6206 -0.77789,5.57489 -0.19447,3.88945 -0.19447,8.94575 0,2.72262 0,5.57489 0.0648,2.85227 0.0648,5.63971 0.0648,2.78745 0.0648,5.44525 0.0648,2.59297 0.0648,4.86182 1.94473,0.45377 3.17639,0.84271 1.23166,0.32413 2.3985,0.58342 1.16684,0.19448 2.65779,0.38895 1.49096,0.12965 3.95429,0.2593 0.12965,-0.5186 0.12965,-2.20403 0.0648,-1.75026 0.0648,-4.01911 0,-2.52815 -0.0648,-4.21358 0,-1.68543 -0.12965,-3.37086 -0.84272,0 -1.42614,-0.12965 -0.51859,-0.19447 -1.29648,-0.38895 -0.71307,-0.19447 -1.94473,-0.38894 -1.16684,-0.19447 -3.17639,-0.32412 0.25929,-0.45377 0.64824,-1.16684 0.38894,-0.77789 0.77789,-1.62061 0.38895,-0.84271 0.64824,-1.55578 0.32413,-0.77789 0.45377,-1.29649 2.46333,0.5186 4.797,0.77789 2.3985,0.2593 4.5377,0.2593 2.20403,0 4.01911,-0.2593 1.81508,-0.32412 3.04674,-1.03718 -0.19447,0.51859 -0.71306,1.49096 -0.45377,0.90754 -0.97237,2.00955 -0.51859,1.03719 -0.90754,2.07438 -0.38895,1.03718 -0.38895,1.81508 0.19448,2.72262 0.32413,5.25077 0.12964,2.52814 0.25929,4.60252 0.19448,2.00955 0.32412,3.37086 0.12965,1.36131 0.32413,1.75026 -3.04675,0.71307 -5.76937,2.20403 -2.72262,1.55578 -6.35278,4.60252 -2.85227,-1.75025 -6.09348,-2.98192 -3.24122,-1.23166 -6.41761,-2.1392 -3.11157,-0.97236 -6.02866,-1.68543 -2.85227,-0.71307 -4.99147,-1.42613 1.03719,-0.2593 1.75026,-1.23167 0.77789,-1.03718 1.23166,-2.52814 0.51859,-1.49096 0.77789,-3.30604 0.2593,-1.87991 0.2593,-3.75981 0,-2.9171 -0.64825,-5.57489 -0.58342,-2.6578 -1.68543,-4.01911 1.03719,-1.03719 1.68543,-2.72262 0.71307,-1.75026 1.10202,-3.69499 0.38894,-2.00955 0.51859,-4.08393 0.12965,-2.07437 0.12965,-3.88945 0,-1.49096 -0.0648,-2.59298 -0.0648,-1.10201 -0.12965,-1.68543 -1.49096,-0.51859 -3.11157,-2.1392 -1.55578,-1.62061 -2.33367,-3.50051 4.14875,0.45377 7.84374,0.64824 3.75981,0.12965 7.06585,0.12965 7.1955,0 11.79802,-0.45377 4.60253,-0.45377 7.13068,-0.45377 0.51859,0 0.90754,0.0648 0.38894,0 0.71306,0.0648 -0.25929,0.58342 -0.58342,2.00955 -0.25929,1.36131 -0.58341,3.11157 -0.32413,1.68543 -0.58342,3.63016 -0.2593,1.8799 -0.5186,3.56533 -0.19447,1.62061 -0.32412,2.85227 -0.12965,1.23167 -0.12965,1.55579 z"
       id="path776"
       style="font-size:64.8243px;line-height:1.25;font-family:'New Rocker';-inkscape-font-specification:'New Rocker';stroke-width:0.264583" /><path
       d="m 709.81676,174.66721 q -0.32413,-6.41761 -0.5186,-12.31662 -0.12965,-5.89901 -0.2593,-10.43671 -0.0648,-4.5377 -0.12964,-7.26032 0,-2.72262 0,-2.78745 -0.32413,-3.95428 -4.08394,-5.44524 0.64825,0.0648 1.23167,0.0648 0.64824,0 1.29648,0 2.9171,0 5.3156,-0.25929 2.46332,-0.32412 4.47287,-0.64825 2.00956,-0.32412 3.63016,-0.58341 1.68543,-0.32413 3.11157,-0.32413 0.77789,0 1.49096,0.19448 -3.88946,2.78744 -6.02866,6.09348 -2.07438,3.24122 -2.07438,7.32515 0,4.797 3.17639,10.89048 -1.49096,3.75981 -2.46332,8.10304 -0.90754,4.34323 -0.90754,8.68645 0,1.87991 0.12965,4.34323 0.19447,2.3985 0.64824,4.73218 1.94473,2.07437 3.43569,3.24121 1.55578,1.16684 2.78744,1.75026 1.23166,0.58342 2.26885,0.77789 1.10202,0.19447 2.1392,0.32412 l -1.68543,-4.2784 q 2.20403,1.23166 4.40806,2.33367 2.20402,1.10202 4.5377,1.94473 2.33367,0.84272 4.86182,1.29649 2.59297,0.51859 5.51007,0.51859 1.94472,0 4.0191,-0.12965 2.1392,-0.12965 4.47288,-0.45377 -5.70454,2.26885 -10.76084,3.24122 -4.99147,1.03719 -9.46434,1.03719 -5.70454,0 -10.56636,-1.62061 -4.797,-1.62061 -8.94576,-4.40805 -4.08393,-2.72262 -7.51962,-6.35278 -3.37086,-3.56534 -6.22313,-7.51962 -2.78745,-4.01911 -5.0563,-8.10304 -2.20402,-4.08393 -3.95428,-7.77892 v 6.61208 q 0,4.01911 0.2593,6.74173 0.2593,2.72262 0.84271,4.73217 0.58342,2.00956 1.49096,3.56534 0.90754,1.49096 2.20403,3.04674 -1.42614,-0.38894 -2.52815,-0.77789 -1.03719,-0.38895 -2.07438,-0.90754 -0.97236,-0.51859 -2.07437,-1.29649 -1.03719,-0.77789 -2.46333,-1.94473 -1.75025,3.11157 -4.66735,5.38042 -2.91709,2.26885 -7.84373,3.88946 1.94473,-1.8799 3.63016,-4.2784 1.68543,-2.33368 2.91709,-4.99148 1.29648,-2.72262 2.00955,-5.57489 0.77789,-2.85226 0.77789,-5.76936 0,-2.72262 -0.71307,-5.25077 -0.64824,-2.52814 -2.20402,-4.86182 3.17639,-6.09348 3.17639,-10.89048 0,-4.08393 -2.1392,-7.32515 -2.07438,-3.30604 -5.96383,-6.09348 0.64824,-0.19448 1.49095,-0.19448 1.29649,0 2.9171,0.32413 1.68543,0.25929 3.63015,0.58341 2.00956,0.32413 4.27841,0.64825 2.33367,0.25929 4.99147,0.25929 0.64824,0 1.23166,0 0.64825,0 1.29649,-0.0648 -3.50051,1.36131 -4.01911,4.797 1.16684,2.91709 2.78745,6.74173 1.68543,3.82463 3.69498,8.03821 2.07438,4.21358 4.47288,8.55681 2.3985,4.2784 4.99147,8.16786 z"
       id="path778"
       style="font-size:64.8243px;line-height:1.25;font-family:'New Rocker';-inkscape-font-specification:'New Rocker';stroke-width:0.264583" /><path
       d="m 747.99825,135.18921 q -1.36131,0.90754 -2.33368,2.46332 -0.90754,1.49096 -1.49096,3.30604 -0.51859,1.75026 -0.77789,3.69499 -0.2593,1.8799 -0.2593,3.63016 0,1.23166 0.0648,2.65779 0.12965,1.36131 0.32412,2.85227 0.2593,1.42614 0.58342,2.85227 0.38895,1.36131 0.90754,2.52815 -1.03719,1.75026 -1.42614,4.21358 -0.32412,2.46332 -0.32412,4.92665 0,4.14875 1.03719,7.90856 1.03719,3.69499 4.34323,7.26032 -3.50051,-0.45377 -6.15831,-0.58341 -2.59297,-0.19448 -4.73217,-0.19448 -2.9171,0 -5.0563,0.19448 -2.1392,0.19447 -4.2784,0.51859 1.36131,-0.84272 2.52815,-2.20403 1.16683,-1.42613 2.00955,-3.11156 0.84272,-1.68543 1.29649,-3.56534 0.51859,-1.8799 0.51859,-3.69499 0,-3.30603 -0.77789,-6.4176 -0.77789,-3.17639 -2.46333,-5.25077 1.81509,-3.37086 2.3985,-6.15831 0.58342,-2.78744 0.58342,-5.76936 0,-1.81508 -0.19447,-3.88946 -2.52815,-1.03719 -3.43569,-3.24121 -0.90754,-2.26886 -1.16684,-4.99148 2.13921,0.58342 3.95429,0.84272 1.8799,0.2593 3.56533,0.2593 2.98192,0 5.51007,-0.32412 2.52815,-0.38895 5.25077,-0.71307 z"
       id="path780"
       style="font-size:64.8243px;line-height:1.25;font-family:'New Rocker';-inkscape-font-specification:'New Rocker';stroke-width:0.264583" /><path
       d="m 795.64411,135.83745 q -1.55578,1.36131 -3.43569,2.59297 -1.81508,1.23167 -3.82463,2.13921 -2.00955,0.90754 -4.14876,1.49095 -2.1392,0.5186 -4.2784,0.5186 -0.71307,0 -1.36131,0 -0.64824,0 -1.29649,-0.0648 -0.19447,1.94473 -0.19447,3.95429 0,5.51006 0.0648,11.08495 0.0648,5.57489 0.0648,11.86285 0,3.37086 1.16684,6.54725 1.23166,3.11157 3.50051,4.53771 -2.72262,1.29648 -4.60253,2.72262 -1.81508,1.49096 -3.24121,4.21358 -1.10201,-2.6578 -3.43569,-4.27841 -2.33367,-1.55578 -5.25077,-2.65779 1.29649,-1.87991 1.94473,-4.86183 0.64824,-3.04674 0.64824,-5.89901 0,-2.78744 0,-4.92665 0,-2.20402 0,-4.08393 0.0648,-1.8799 0.0648,-3.63016 0.0648,-1.75025 0.0648,-3.75981 0.0648,-2.00955 0.0648,-4.40805 0,-2.3985 0,-5.63971 0,-0.5186 0,-0.97237 0,-0.45377 -0.12965,-0.97236 -4.27841,-0.77789 -8.16786,-1.55579 -3.82464,-0.84271 -7.00103,-0.84271 -1.42613,0 -3.04674,0.32412 l -0.0648,-0.19447 q 3.50051,-1.03719 5.70453,-2.52815 2.26885,-1.49096 4.5377,-3.56534 3.37087,0.97237 5.70454,1.55579 2.3985,0.58341 4.40806,0.90754 2.07437,0.32412 4.0191,0.45377 2.00956,0.0648 4.5377,0.0648 -0.64824,-1.10201 -0.90754,-1.94473 -0.25929,-0.90754 -0.32412,-1.8799 2.1392,1.36131 3.95428,2.1392 1.87991,0.71307 3.56534,1.10201 1.68543,0.32412 3.37087,0.38895 1.68543,0.0648 3.50051,0.0648 1.03719,0 1.8799,-0.0648 0.90754,-0.0648 1.81508,-0.19448 z"
       id="path782"
       style="font-size:64.8243px;line-height:1.25;font-family:'New Rocker';-inkscape-font-specification:'New Rocker';stroke-width:0.264583" /><path
       d="m 797.39437,183.09437 q 0.97237,-0.58342 1.68543,-2.20403 0.77789,-1.62061 1.29649,-3.69498 0.58342,-2.07438 0.84271,-4.27841 0.2593,-2.26885 0.2593,-4.14875 0,-2.9171 -0.64824,-5.57489 -0.58342,-2.6578 -1.68543,-4.01911 1.03719,-1.03719 1.68543,-2.72262 0.71307,-1.75026 1.10201,-3.69499 0.38895,-2.00955 0.5186,-4.08393 0.12964,-2.07437 0.12964,-3.88945 0,-1.49096 -0.0648,-2.59298 -0.0648,-1.10201 -0.12965,-1.68543 -1.49096,-0.51859 -3.11156,-2.1392 -1.55579,-1.62061 -2.33368,-3.50051 4.14876,0.45377 7.84374,0.64824 3.75981,0.12965 7.06585,0.12965 7.06585,0 11.40908,-0.45377 4.34323,-0.45377 6.87137,-0.45377 0.5186,0 0.90754,0.0648 0.38895,0 0.71307,0.0648 -0.38894,0.71306 -0.84271,2.59297 -0.38895,1.8799 -0.7779,4.14875 -0.38894,2.20403 -0.71306,4.34323 -0.2593,2.07438 -0.38895,3.11157 l -0.45377,0.19447 q -2.26885,-1.29648 -3.30604,-2.91709 -0.97236,-1.62061 -1.49096,-3.88946 -0.90754,-0.71307 -2.26885,-0.90754 -1.36131,-0.19447 -3.43569,-0.19447 -1.68543,0 -3.24121,0.0648 -1.55579,0.0648 -2.46333,0.0648 -0.51859,2.52814 -0.77789,6.1583 -0.25929,3.63017 -0.38894,7.7141 0.90754,0.12965 1.81508,0.19447 0.97236,0 1.49096,0 1.36131,0 2.65779,-1.03719 1.36131,-1.10201 2.59298,-2.78744 0.32412,0.77789 0.64824,1.81508 0.32412,0.97236 0.71307,2.00955 0.45377,0.97236 0.97236,1.8799 0.51859,0.90754 1.23166,1.36131 -0.58342,0.58342 -1.16684,1.49096 -0.51859,0.90754 -1.03718,1.94473 -0.45377,1.03719 -0.90754,2.07438 -0.38895,1.03719 -0.71307,1.87991 -0.38895,-0.71307 -0.90754,-1.55579 -0.5186,-0.84271 -1.10202,-1.55578 -0.58341,-0.71307 -1.29648,-1.16684 -0.64824,-0.51859 -1.42614,-0.51859 -0.58342,0 -1.68543,0.0648 -1.10201,0.0648 -2.00955,0.2593 v 1.16684 q 0,4.08393 0.0648,7.77891 0.12965,3.63016 0.38895,6.35278 l 10.95531,1.10202 q 0.90754,-4.01911 3.17639,-7.13068 2.33367,-3.11156 4.99147,-6.02866 l 0.38894,0.12965 q -0.19447,1.49096 -0.25929,2.98192 -0.0648,1.42613 -0.0648,2.78744 0,3.37087 0.32412,6.09349 0.32413,2.72262 0.7779,4.08393 -1.10202,0.12965 -2.20403,0.38895 -1.03719,0.19447 -2.26885,0.71306 -1.23166,0.5186 -2.6578,1.42614 -1.36131,0.90754 -3.04674,2.33367 -5.44524,-1.6206 -10.76083,-2.46332 -5.3156,-0.77789 -9.594,-0.77789 -2.07438,0 -3.82464,0.64824 z"
       id="path784"
       style="font-size:64.8243px;line-height:1.25;font-family:'New Rocker';-inkscape-font-specification:'New Rocker';stroke-width:0.264583" /><path
       style="fill:#f04222;fill-opacity:1;stroke-width:1"
       d="m 724.2613,126.23392 c -0.94035,-0.87993 -2.74757,-3.02792 -3.48168,-4.13814 -2.12231,-3.20973 -3.58504,-6.82972 -4.54495,-11.2479 -0.31152,-1.43386 -0.46186,-2.42136 -0.77583,-5.09582 -0.0586,-0.49939 -0.11063,-2.26145 -0.11557,-3.91568 -0.0106,-3.435844 0.0888,-4.221224 0.88818,-7.036894 0.69916,-2.46279 2.57581,-6.2934 4.2537,-8.6826 0.17536,-0.24969 0.55794,-0.81151 0.85019,-1.24848 0.29226,-0.43696 0.55941,-0.82002 0.59368,-0.85124 0.0342,-0.0313 0.36971,-0.49087 0.74543,-1.02147 0.37571,-0.53061 0.95341,-1.32562 1.28377,-1.76669 1.00443,-1.34108 1.38366,-1.85927 2.52786,-3.45423 0.60457,-0.84271 1.13392,-1.5833 1.17636,-1.64572 0.98558,-1.44999 1.82828,-2.84488 2.84556,-4.71016 0.36141,-0.66267 1.28226,-2.837072 1.61589,-3.815637 0.3688,-1.081643 0.80746,-2.820609 1.11318,-4.41298 0.11986,-0.62424 0.32166,-1.67126 0.44847,-2.326712 0.89573,-4.630029 1.45477,-10.130541 1.26603,-12.456412 -0.058,-0.714504 -0.0522,-1.049404 0.018,-1.048434 0.22284,0.003 2.16771,1.981373 3.63881,3.701333 3.17591,3.71323 5.32532,7.306537 7.1541,11.959975 0.70193,1.786107 1.57112,5.016241 2.39745,8.909597 0.19873,0.93637 0.42641,2.00892 0.50594,2.38347 0.6681,3.14623 1.60289,9.4761 1.78759,12.10461 0.0881,1.25382 0.16094,1.39621 0.48479,0.94766 0.41226,-0.57102 1.1316,-2.33115 1.34515,-3.29144 0.58905,-2.64879 0.49145,-7.29049 -0.24343,-11.5768 -0.13913,-0.81152 -0.25315,-1.52004 -0.25335,-1.5745 -7.5e-4,-0.196317 0.30744,0.2019 1.15147,1.48772 3.4526,5.25979 5.58429,10.62932 6.09729,15.35849 0.16203,1.49363 0.0516,5.90389 -0.20592,8.22239 -0.39886,3.59135 -0.8119,5.754114 -1.59359,8.344294 -0.16049,0.5318 -0.2918,1.00424 -0.2918,1.04986 0,0.12254 1.13637,0.10079 1.43104,-0.0274 0.39356,-0.17122 1.09097,-0.96479 1.45898,-1.66019 0.1835,-0.34673 0.41026,-0.7414 0.50391,-0.87704 0.16496,-0.23891 0.17039,-0.21979 0.17359,0.61162 0.006,1.63123 -0.66454,6.02476 -1.38526,9.07285 -0.9989,4.22467 -3.00056,8.93297 -4.9946,11.74835 -2.10526,2.97239 -4.73583,5.24143 -7.50334,6.4721 -1.1321,0.50343 -2.9119,1.02908 -4.00986,1.18428 -7.07347,0.81246 -13.42642,-1.1185 -18.3573,-5.67601 z"
       id="path786"
       sodipodi:nodetypes="cssssssssssscssssscssssssssssssssssssssscc" /><path
       style="fill:#f6821d;fill-opacity:1;stroke-width:1"
       d="m 727.62175,127.41535 c -0.66361,-0.67869 -1.92616,-2.31745 -2.43233,-3.15711 -1.46334,-2.42754 -2.43239,-5.13112 -3.01093,-8.40049 -0.18777,-1.06103 -0.27007,-1.78939 -0.42477,-3.75861 -0.0289,-0.36771 -0.0174,-1.65943 0.0253,-2.87049 0.089,-2.51537 0.18359,-3.08662 0.84778,-5.11825 0.58094,-1.77703 2.06222,-4.511984 3.35751,-6.199154 0.13538,-0.17633 0.4312,-0.5735 0.65741,-0.8826 0.22619,-0.30911 0.4325,-0.57968 0.45848,-0.60126 0.026,-0.0215 0.2844,-0.34573 0.57433,-0.72031 0.28992,-0.37458 0.73512,-0.93527 0.98933,-1.24599 0.77289,-0.9447 1.06505,-1.31008 1.94738,-2.43549 0.4662,-0.59463 0.87449,-1.11725 0.90729,-1.16139 0.76218,-1.02514 1.41819,-2.01518 2.21522,-3.34315 0.28316,-0.47177 1.01828,-2.02955 1.28998,-2.73358 0.30033,-0.77818 0.67028,-2.03496 0.93879,-3.18932 0.10524,-0.45252 0.2824,-1.21151 0.39362,-1.68663 0.7857,-3.35619 1.34941,-7.36194 1.27658,-9.0714 -0.0224,-0.525133 -0.008,-0.770069 0.0427,-0.766773 0.16303,0.0106 1.5311,1.530063 2.55959,2.843153 2.22045,2.83483 3.69288,5.54414 4.90083,9.01765 0.46364,1.33322 1.00914,3.72961 1.50467,6.6099 0.11917,0.69271 0.2557,1.48619 0.3034,1.76327 1.17941,6.80797 0.42633,12.032624 1.08371,15.732604 2.31317,-2.86563 3.10436,-5.91575 3.84832,-10.448174 1.93456,10.924824 -1.39146,14.813564 -0.40141,19.016094 0.83178,1.43209 2.01601,2.56332 2.91413,2.51144 -0.84985,3.05569 -3.30777,7.9574 -4.84646,9.9449 -1.62451,2.09834 -3.61379,3.6625 -5.67413,4.46158 -0.84283,0.32687 -2.16038,0.64619 -2.96844,0.71941 -5.20054,0.3346 -9.79658,-1.31247 -13.27792,-4.82985 z"
       id="path788"
       sodipodi:nodetypes="cssssssssssscssssscssscccccssccc" /><path
       style="fill:#fece0b;fill-opacity:1;stroke-width:1"
       d="m 730.66109,128.87283 c -0.4651,-0.47566 -1.34997,-1.62422 -1.70472,-2.21271 -1.02562,-1.70135 -1.70477,-3.5962 -2.11025,-5.88757 -0.1316,-0.74364 -0.18929,-1.25413 -0.29772,-2.63427 -0.0202,-0.25772 -0.0122,-1.16303 0.0178,-2.01183 0.0623,-1.76292 0.12867,-2.16329 0.59417,-3.58718 0.40717,-1.24546 1.44534,-3.16227 2.35316,-4.34475 5.86211,-6.52736 7.30155,-8.928744 9.99143,-16.904454 2.38227,11.963824 0.92145,16.637604 7.63622,22.155734 -0.60947,2.0314 2.03106,7.81216 1.23033,10.08522 -0.59563,2.1416 -1.26876,3.70272 -2.34716,5.09568 -1.13857,1.47064 -2.53277,2.56691 -3.97679,3.12694 -0.59071,0.22911 -1.51414,0.4529 -2.08047,0.50421 -3.64486,0.23451 -6.86606,-0.91986 -9.306,-3.38504 z"
       id="path790"
       sodipodi:nodetypes="csssssccccssccc" /><path
       id="path792"
       style="font-size:64.8243px;line-height:1.25;font-family:'New Rocker';-inkscape-font-specification:'New Rocker';stroke-width:0.264583"
       d="m 668.49828,44.795718 c -2.75226,-0.461017 -5.8415,-0.776395 -9.80133,-1.844064 -1.83089,19.462178 -1.29099,69.544116 -1.23564,76.676456 l -7.38788,1.26759 c 1.12148,-9.79694 3.57813,-76.379917 2.29893,-78.082864 -2.3492,1.459611 -8.03778,2.660215 -11.44982,2.838409 1.45664,-1.465379 2.85174,-2.93689 4.1847,-4.414759 1.33299,-1.477876 2.55059,-3.014882 3.65284,-4.610936 1.10225,-1.596028 2.03143,-3.280571 2.78755,-5.053862 0.9663,-1.881227 2.36539,-4.716801 2.91913,-7.871374 l 0.63793,3e-5 c 0.74959,3.089348 2.20329,5.717608 2.76848,7.015819 0.75614,1.773298 1.68531,3.457836 2.78757,5.05387 1.10225,1.596059 2.31986,3.133059 3.65285,4.610934 1.33295,1.477866 2.72805,2.949376 4.18469,4.414751 z"
       sodipodi:nodetypes="ccccccssccccssc" /></g></svg>
