<?xml version="1.0" encoding="UTF-8" standalone="no"?>
<!-- Created with Inkscape (http://www.inkscape.org/) -->

<svg
   width="1000"
   height="300"
   viewBox="0 0 264.58333 79.375"
   version="1.1"
   id="svg5"
   xml:space="preserve"
   inkscape:version="1.2.2 (b0a8486541, 2022-12-01)"
   sodipodi:docname="signup.svg"
   inkscape:export-filename="ignite.jpg"
   inkscape:export-xdpi="103.68"
   inkscape:export-ydpi="103.68"
   xmlns:inkscape="http://www.inkscape.org/namespaces/inkscape"
   xmlns:sodipodi="http://sodipodi.sourceforge.net/DTD/sodipodi-0.dtd"
   xmlns="http://www.w3.org/2000/svg"
   xmlns:svg="http://www.w3.org/2000/svg"><sodipodi:namedview
     id="namedview7"
     pagecolor="#ffffff"
     bordercolor="#666666"
     borderopacity="1.0"
     inkscape:showpageshadow="2"
     inkscape:pageopacity="0.0"
     inkscape:pagecheckerboard="0"
     inkscape:deskcolor="#d1d1d1"
     inkscape:document-units="px"
     showgrid="false"
     inkscape:zoom="1.1893044"
     inkscape:cx="577.64858"
     inkscape:cy="201.37822"
     inkscape:window-width="1900"
     inkscape:window-height="1040"
     inkscape:window-x="10"
     inkscape:window-y="30"
     inkscape:window-maximized="1"
     inkscape:current-layer="layer1" /><defs
     id="defs2" /><g
     inkscape:label="Layer 1"
     inkscape:groupmode="layer"
     id="layer1"><path
       id="path7869"
       style="font-size:54.8654px;font-family:'New Rocker';-inkscape-font-specification:'New Rocker';fill:#f04222;fill-opacity:1;stroke-width:0.264583"
       d="m 239.72419,11.656064 c 0.96806,1.686989 1.20905,3.647784 1.20931,5.561982 0.0496,6.879374 0.0413,13.760416 0.008,20.640294 -0.009,2.228652 0.008,4.514692 -1.15299,6.516474 -0.27669,0.711231 0.58677,1.090495 1.16789,0.911144 3.44335,-0.01995 6.90084,5.97e-4 10.34969,-0.0068 -1.04809,-2.421447 -1.38949,-5.054294 -1.37879,-7.706539 0.0644,-7.084906 -0.0749,-14.173236 0.08,-21.256352 0.11591,-1.781622 0.60611,-3.646912 1.28516,-5.414062 -3.97396,0 -7.94792,0 -11.92188,0 0.11784,0.251302 0.23568,0.502604 0.35352,0.753906 z m 5.6289,35.623047 c -0.85718,0.328197 -1.62041,0.935802 -2.34961,1.505859 -1.79197,1.511529 -3.07982,3.503504 -4.28906,5.486329 2.22797,1.928144 4.79644,3.485935 6.6836,5.785156 0.91219,-2.090512 2.22135,-4.051351 4.09864,-5.390014 0.94977,-0.773479 1.96316,-1.464099 2.94628,-2.193971 -2.23738,-1.292668 -4.44676,-2.739371 -6.20499,-4.646926 -0.19163,-0.299757 -0.49919,-0.603904 -0.88486,-0.546433 z" /><path
       id="path7655"
       style="font-size:54.8654px;font-family:'New Rocker';-inkscape-font-specification:'New Rocker';fill:#f6821d;fill-opacity:1;stroke-width:0.264583"
       d="m 240.55622,13.24338 c 0.96008,1.922447 0.86868,4.111729 0.93555,6.180469 -0.0199,6.974704 0.0398,13.950675 -0.03,20.924593 -0.0566,1.724307 -0.21392,3.597189 -1.11788,5.158187 -0.37661,0.613229 0.91791,0.164338 1.2908,0.301205 2.96992,0 5.93984,-10e-7 8.90976,0 -1.06154,-2.660404 -1.19849,-5.553855 -1.13476,-8.383594 0.0194,-6.455545 -0.0389,-12.912504 0.0293,-19.36717 0.069,-1.901387 0.43769,-3.785383 1.10544,-5.567596 -3.44726,0 -6.89453,0 -10.34179,0 0.11783,0.251302 0.23567,0.502604 0.35351,0.753906 z m 4.55274,35.798828 c -2.53315,1.352682 -4.24729,3.773836 -5.70118,6.173829 1.93748,1.671343 4.16704,3.02549 5.85938,4.966797 0.82562,-1.789913 2.00061,-3.422541 3.58536,-4.615641 0.83797,-0.713271 1.74322,-1.341095 2.62948,-1.991781 -1.94573,-1.115093 -3.77006,-2.464629 -5.37989,-4.025049 -0.35531,-0.273681 -0.48723,-1.034942 -0.99315,-0.508155 z" /><path
       id="path7601"
       style="font-size:10.5833px;line-height:1.25;font-family:'New Rocker';-inkscape-font-specification:'New Rocker';fill:#f04222;fill-opacity:1;stroke-width:0.264583"
       d="m 20.304459,62.15991 c -0.769672,0.02329 -1.832537,-0.198582 -2.242187,0.675781 -0.425691,0.863557 -0.08342,1.917062 0.535156,2.597656 -1.934261,0.607314 -3.905063,1.141001 -5.772745,1.92786 -0.915061,0.346668 -0.916598,1.780929 0.02079,2.097531 2.051174,0.707033 4.254184,0.479136 6.359068,0.167901 5.897834,-0.683595 11.801508,-0.914234 17.738118,-0.902298 14.546945,-0.09008 29.094342,-0.01083 43.641485,-0.04269 12.531699,0.01467 25.064536,-0.04939 37.595306,0.116936 3.13708,0.07045 6.2255,0.218533 9.34766,0.541015 0.74005,-0.209614 1.89084,-0.119588 2.17773,-1.080078 0.25136,-0.982906 -0.83391,-1.561935 -1.58267,-1.903556 -1.19388,-0.526982 -2.49292,-0.800357 -3.68686,-1.338631 0.9823,-0.624825 1.94039,-1.287317 2.91406,-1.925782 -2.55062,-0.484763 -5.16173,-0.619089 -7.74246,-0.311644 C 108.4331,63.329644 97.242593,63.032836 86.060707,63.115389 67.71075,63.100309 49.360023,63.165949 31.010588,63.057059 27.4412,62.969719 23.913469,62.88777 20.404066,62.140388 l -0.09813,0.01924 z" /><path
       id="path7603"
       style="font-size:10.5833px;line-height:1.25;font-family:'New Rocker';-inkscape-font-specification:'New Rocker';fill:#f04222;fill-opacity:1;stroke-width:0.264583"
       d="m 177.60646,62.836842 c 0.60126,0.706238 1.16871,1.444222 1.87191,2.041016 -0.86211,0.938334 -2.04882,1.457222 -2.90762,2.407641 -0.7718,0.683037 -1.54355,1.366142 -2.31518,2.04939 2.39827,0.02804 4.78314,-0.242684 7.15056,-0.616295 6.96861,-0.410008 13.95033,-0.133845 20.92505,-0.216251 7.13726,0.03897 14.27987,-0.128693 21.41311,0.158718 1.96325,0.170993 3.93536,0.633545 5.92152,1.085937 0.93013,-0.01189 1.95692,-0.08673 2.73928,-0.642578 0.72291,-0.739821 0.0412,-1.954875 -0.80175,-2.174142 -0.80473,-0.468326 -1.54772,-1.043147 -2.33229,-1.546561 0.61351,-0.985049 0.68649,-2.216547 0.5004,-3.349609 -1.074,-0.03022 -2.21728,-0.210228 -3.20282,0.353045 -2.91026,0.766127 -5.93956,0.448374 -8.90785,0.544549 -10.75027,-0.03331 -21.50229,0.07159 -32.25139,-0.07363 -2.93035,-0.140106 -5.82399,-0.678433 -8.72405,-1.109117 0.30704,0.36263 0.61409,0.725261 0.92112,1.087891 z" /><path
       id="path7380"
       style="font-size:10.5833px;line-height:1.25;font-family:'New Rocker';-inkscape-font-specification:'New Rocker';fill:#f6821d;fill-opacity:1;stroke-width:0.264583"
       d="m 20.406022,64.275144 c -0.438149,0.154429 -1.554207,-0.288202 -1.470389,0.327632 -0.03577,1.273564 1.285266,1.873535 2.253592,2.346196 -2.301102,0.386799 -4.458699,1.318097 -6.705027,1.916737 -0.296737,0.22312 -1.77123,0.558829 -1.160312,0.695181 1.350283,0.37646 2.755718,0.511386 4.140127,0.250906 4.612914,-0.503677 9.231574,-0.963363 13.863274,-1.017457 10.317767,-0.199516 20.63856,-0.07274 30.957641,-0.109039 16.864793,0.01688 33.729795,-0.03487 50.594452,0.02797 4.87011,0.06506 9.73297,0.09973 14.55398,0.614604 0.39365,-0.165125 1.88445,-0.111197 0.94498,-0.542487 -1.0512,-0.817059 -2.44686,-0.896311 -3.63519,-1.448803 -0.77401,-0.359571 -1.7472,-0.565586 -2.27854,-1.270428 0.6123,-0.461866 1.33982,-0.787438 1.96875,-1.246094 -2.04857,-0.293822 -4.14268,0.112165 -6.1705,0.145635 -9.09286,0.420508 -18.19848,0.214734 -27.297464,0.266474 -19.485629,-0.01261 -38.971497,0.0254 -58.456977,-0.01933 -3.797458,-0.1 -7.554503,-0.109765 -11.298645,-0.765452 -0.271113,-0.03893 -0.53267,-0.151715 -0.803752,-0.172253 z" /><path
       id="path7382"
       style="font-size:10.5833px;line-height:1.25;font-family:'New Rocker';-inkscape-font-specification:'New Rocker';fill:#f6821d;fill-opacity:1;stroke-width:0.264583"
       d="m 227.66417,64.149342 c -1.43974,0.711918 -3.06155,0.718185 -4.58213,0.847648 -5.18428,0.114375 -10.3718,0.01996 -15.55734,0.05079 -7.22962,-0.02782 -14.46045,0.05923 -21.68927,-0.05078 -2.1837,-0.06885 -4.38246,-0.373726 -6.56093,-0.722656 0.4194,0.55343 1.13681,0.92707 1.36344,1.601341 -0.18889,0.950766 -1.17305,1.425769 -1.84406,1.977353 -0.62063,0.367732 -1.11695,0.914315 -1.66929,1.38029 1.75133,-0.02654 3.44803,-0.55518 5.20191,-0.589963 5.58778,-0.26609 11.1842,-0.09221 16.77574,-0.142459 7.54112,0.02921 15.08333,-0.06275 22.62372,0.05469 2.47619,0.02974 4.94748,0.429112 7.33397,1.038538 0.63716,0.253486 1.27751,0.192375 1.9201,-9.45e-4 0.85284,-0.06477 1.02061,-0.261144 0.16922,-0.653308 -1.19167,-0.667336 -2.21333,-1.652494 -3.48508,-2.153816 0.73475,-0.659949 1.28497,-1.60403 1.18245,-2.65625 -0.38639,0.02866 -0.82073,-0.124682 -1.18245,0.01953 z" /><path
       id="path2632"
       style="font-size:54.8654px;line-height:1.25;font-family:'New Rocker';-inkscape-font-specification:'New Rocker';fill:#f04222;fill-opacity:1;stroke-width:0.264583"
       d="m 28.623294,9.5328843 c -1.120475,2.1193117 -2.998857,3.9948807 -5.427735,4.4511707 -2.440092,0.609236 -5.011603,0.253124 -7.51536,-0.144241 -0.617359,-0.221991 -1.355318,0.417347 -0.896749,1.019241 2.113022,2.313448 2.998439,5.458828 3.213226,8.525108 0.463211,4.91091 -0.294945,9.73639 -0.926117,14.60575 4.996998,-1.21595 10.048644,-2.23283 15.19336,-2.67773 0.713121,1.93093 0.627668,3.88089 0.685546,5.89648 -0.03137,2.22924 -0.297641,4.36569 -0.683593,6.55078 -4.298573,-2.06365 -8.292315,-4.75963 -12.746094,-6.50586 -0.846719,-0.28411 -1.753806,-0.22644 -2.632813,-0.27929 0.82183,2.34153 0.870388,5.07627 -0.480354,7.23622 -0.733903,1.35089 -1.807539,2.46952 -2.761833,3.66221 4.933084,0.19519 9.98465,0.65358 14.695313,2.33399 1.721324,0.67886 3.214007,1.55494 4.822265,2.53125 1.668001,-1.76397 3.928701,-2.79366 6.242659,-3.24973 1.579586,-0.34891 3.101491,-0.35449 4.720232,-0.37918 -1.101537,-3.94816 -1.478039,-8.05275 -1.477356,-12.14065 -0.04984,-4.35117 0.256925,-8.6579 0.565246,-12.99216 -5.151926,0.32017 -10.391381,0.14812 -15.4375,1.37891 -0.264728,-0.0274 -0.20366,-0.82444 -0.323763,-1.18084 -0.525481,-3.19367 -0.535693,-6.59195 0.735873,-9.619945 2.802261,1.389416 5.852733,2.405745 8.986675,2.608385 2.495177,-1.5e-4 4.64287,-1.65523 5.99587,-3.639525 1.304626,-1.753905 2.083969,-3.817196 2.853392,-5.84386 -2.381512,0.642423 -4.813454,1.417353 -7.312594,1.098674 -3.542864,-0.252429 -6.901265,-1.706289 -9.80264,-3.7041427 -0.09505,0.152995 -0.190104,0.30599 -0.285156,0.458985 z M 215.50415,10.056321 c -3.34281,2.061271 -7.23112,3.575585 -11.23109,3.309329 -2.29216,-0.08165 -4.48542,-0.463525 -6.7611,-0.764407 0.15711,2.528088 0.73027,5.318138 2.79492,7.003906 0.68665,0.611814 1.47779,1.103774 2.32618,1.457034 0.1664,3.42808 0.0296,6.95496 -1.11719,10.1875 -0.4543,1.12249 -1.03781,2.06282 -1.71875,3.04101 1.92916,1.81207 2.36515,4.57415 2.61343,7.08283 0.1831,2.47649 0.0225,4.84704 -0.73843,7.24334 -0.36255,1.28989 -1.08774,2.42505 -1.83789,3.51954 3.1273,1.60184 6.26591,3.68529 7.9603,6.86355 0.41852,0.85971 0.78163,1.74512 1.17837,2.61496 1.85171,-3.18283 3.49417,-6.76048 6.71094,-8.81217 0.51611,-0.36595 1.03811,-0.72367 1.55664,-1.08627 -1.86651,-0.9536 -3.47408,-2.54001 -4.08007,-4.58639 -0.61607,-1.67756 -0.74963,-3.69159 -0.71876,-5.54446 3.63094,0.13607 7.33741,-0.0176 10.79695,1.30995 0.46709,0.004 0.68017,-0.78625 1.05179,-1.10784 1.41913,-1.83847 3.25204,-3.41012 5.46767,-4.18454 1.20145,-0.50137 2.46035,-0.84264 3.70507,-1.21679 -1.29677,-2.41683 -2.29394,-5.08612 -2.18401,-7.87007 -0.0334,-2.17217 0.12189,-4.34749 0.46136,-6.49321 2.72754,-1.889398 4.20691,-4.983007 5.5332,-7.917974 -3.75717,0.740962 -7.58993,0.581204 -11.28249,-0.346035 -3.28362,-0.826109 -6.72164,-1.676116 -9.59251,-3.427402 -0.23742,-0.21512 -0.57449,-0.3963558 -0.89453,-0.275391 z m -72.04492,1.25 c -3.69324,0.413173 -7.33121,1.277097 -11.05274,1.478516 -2.2885,0.165256 -4.70113,-0.172219 -7.00898,0.279268 -0.75924,0.0359 0.61599,0.604491 0.83452,0.88429 1.31194,0.987101 3.22493,1.409568 3.83462,3.117692 0.6078,1.75336 0.20544,3.644926 0.35867,5.458806 0.12012,6.62596 0.26472,13.25234 0.55735,19.87323 -4.93047,-7.75161 -8.8377,-16.10391 -12.25977,-24.615239 0.23692,-1.475697 1.49543,-2.558981 2.83984,-3.042969 0.44784,-0.409486 1.40792,-0.56873 1.38892,-1.29488 -0.17067,-0.744284 -1.13615,-0.522017 -1.71624,-0.615861 -2.23317,-0.01869 -4.44928,0.06316 -6.64938,-0.247157 -2.96142,-0.327274 -5.90513,-1.06693 -8.91235,-1.278685 -1.32733,-0.05996 -2.57794,0.466797 -3.85313,0.749083 2.24345,1.575619 4.57028,3.332257 6.13281,5.529297 1.76024,2.317511 2.42536,5.351111 1.92788,8.206261 -0.37683,2.57621 -1.47742,5.04347 -2.69351,7.37968 2.95253,4.0333 3.24215,9.50641 1.71533,14.15036 -1.28667,4.32129 -3.81389,8.2676 -7.05126,11.45315 -0.37502,0.50259 -1.10922,0.89449 -0.94336,1.625 0.64848,0.52533 1.41059,-0.0868 2.10858,-0.2048 4.1427,-1.25776 8.19999,-3.47559 10.6703,-7.14156 0.28448,-0.41705 0.78579,0.45638 1.17424,0.5866 1.91403,1.4233 4.15062,2.3337 6.45011,2.89203 0.98085,0.2833 1.96166,0.56672 2.94247,0.85015 -2.03985,-2.57292 -4.55016,-5.05179 -5.19804,-8.40298 -0.77831,-3.2636 -0.74879,-6.58227 -0.74727,-9.91733 3.73848,7.26822 8.45089,14.20526 14.79345,19.45244 5.15753,4.2187 11.58191,7.08002 18.29979,7.30644 6.38905,0.28748 12.74425,-1.19294 18.67629,-3.47568 0.70437,-0.30937 1.35131,-0.73333 1.92578,-1.24414 -0.0854,-0.90661 -1.11391,-0.91095 -1.80896,-0.93202 -2.3281,0.17042 -4.6593,0.50144 -7.00352,0.44669 -3.99975,0.0655 -7.95017,-0.9511 -11.54933,-2.65992 -2.42777,-1.12835 -4.73452,-2.49413 -7.09717,-3.74928 0.60544,1.53622 1.20971,3.07289 1.81445,4.60938 -2.58885,-0.61651 -4.53257,-2.44007 -6.34766,-4.32813 -0.72433,-4.06295 -0.77449,-8.28335 -0.19343,-12.31613 0.47065,-3.14435 1.4165,-6.21947 2.55671,-9.13309 -1.83508,-3.49652 -3.39621,-7.50973 -2.53525,-11.51301 0.69196,-3.358861 3.25353,-5.95321 5.86563,-7.925687 0.6883,-0.527791 1.40135,-1.022866 2.09931,-1.537862 -1.41071,-0.431957 -2.85402,-0.834554 -4.3457,-0.751953 z m -76.642577,0.212891 c -5.039476,0.489314 -10.090277,1.774064 -15.129099,0.652627 -1.115993,-0.212677 -2.289179,-0.547902 -3.423635,-0.84794 0.309894,2.677636 0.494341,5.653507 2.350681,7.779605 0.499735,0.537223 1.106868,0.970848 1.760647,1.300469 0.367142,4.09919 -0.09337,8.53818 -2.296875,12.15039 -0.508181,0.91174 0.534412,1.547 0.851272,2.3058 1.282027,2.25564 1.634066,4.91147 1.75238,7.35644 0.128194,3.61294 -1.255277,7.35401 -3.93959,9.81628 -1.306414,1.00843 -2.67141,1.93936 -3.951172,2.98438 4.116263,-0.32129 8.206176,-1.1156 12.350666,-0.92916 3.68796,0.0649 7.369507,0.50596 11.047772,0.97798 -2.32364,-2.49081 -4.859194,-5.14454 -5.536749,-8.60272 -0.791125,-3.44528 -0.851942,-7.07121 -0.199504,-10.54281 0.226463,-0.97743 0.630422,-1.90487 1.154222,-2.75876 -1.02702,-2.27718 -1.504072,-4.71795 -1.63497,-7.14196 -0.18248,-3.40285 0.01714,-6.995034 1.623251,-10.070934 0.660546,-1.378261 1.891635,-2.30358 3.12588,-3.133582 0.677548,-0.501552 1.354882,-1.003393 2.032323,-1.50509 -0.645833,0.06966 -1.291667,0.139323 -1.9375,0.208985 z m 30.24023,-0.142578 c -4.22206,0.231159 -8.389512,0.76419 -12.6088,0.723643 -5.217109,0.07714 -10.400984,-0.08573 -15.566977,-0.731456 -0.772421,0.07847 -0.634491,1.027635 -0.267578,1.484375 0.909326,2.158015 2.512995,4.067533 4.607422,5.154297 0.217677,3.92947 0.203575,8.07558 -1.091038,11.87697 -0.391503,1.20012 -1.08319,2.29742 -2.039821,3.12694 1.751745,1.94536 2.083227,4.67274 2.270914,7.1757 0.111917,2.88816 -0.127373,5.95872 -1.638102,8.49226 -0.620866,0.93512 -1.892936,0.71023 -2.697266,1.32227 -0.465711,0.47573 0.120055,1.06707 0.662452,1.06295 4.464477,1.45056 9.079275,2.39389 13.51692,3.93972 2.739666,0.92686 5.429647,2.05817 7.863597,3.636 2.17998,-1.82842 4.542137,-3.73312 7.099607,-4.91601 1.20617,-0.57377 2.503488,-0.92099 3.789067,-1.22852 0.78363,-0.34571 0.28644,-1.17926 0.16848,-1.76461 -0.27833,-1.73018 -0.36238,-3.5616 -0.48149,-5.35866 -0.11534,-2.26941 -0.31759,-4.53121 -0.34974,-6.7905 0.56603,-2.26597 1.93252,-4.21568 2.78034,-6.37405 0.28789,-0.42278 0.28928,-1.18928 -0.33612,-1.23043 -0.74985,0.14038 -1.30269,0.80277 -2.05396,1.00052 -2.376757,0.9349 -4.999877,0.73161 -7.497097,0.60902 -2.04942,-0.15455 -4.076351,-0.51352 -6.085884,-0.93504 -0.648325,2.46773 -1.877323,4.71755 -3.128906,6.92188 2.120962,0.16248 4.1748,0.26366 6.164465,0.79842 0.430007,0.26409 1.407604,0.0419 1.218347,0.73283 0.07754,3.0532 0.120912,6.10924 0.0078,9.16211 -2.685887,-0.0879 -5.339853,-0.59917 -7.90895,-1.36577 -0.732818,0.0523 -0.253587,-0.75749 -0.393975,-1.19784 -0.07073,-8.09056 -0.330951,-16.18765 0.04707,-24.27429 0.06193,-1.08374 0.144886,-2.18366 0.384765,-3.273432 2.776804,-0.05405 5.624571,-0.314433 8.341797,0.388671 0.271102,0.286111 0.172599,0.900101 0.351563,1.298831 0.628758,2.62411 2.062518,5.16578 4.412468,6.59952 0.40331,0.40943 1.22477,1.00421 1.65003,0.32235 0.23491,-0.99959 0.16852,-2.10448 0.33471,-3.13987 0.454688,-3.67765 0.961428,-7.361785 1.792407,-10.974973 0.17111,-0.687932 0.47645,-1.329978 0.73616,-1.986717 -1.340449,-0.220178 -2.694527,-0.368676 -4.054687,-0.287109 z m 62.359377,1.625 c 1.3665,1.862581 2.46754,3.942728 2.95323,6.216958 0.70203,3.161031 0.64707,6.485741 -0.0198,9.647791 -0.41169,1.98863 -1.3001,3.85435 -2.59351,5.4209 0.005,0.34047 0.70042,0.54118 0.8533,0.94532 0.71512,1.34493 0.77181,2.88772 1.02255,4.37148 0.34916,2.88277 0.30321,5.80608 0.044,8.69052 0.06,0.93493 1.106,1.2077 1.63369,1.83182 1.97403,1.74439 4.12615,3.36555 5.68367,5.51375 0.37786,0.56251 0.65267,1.1844 0.96194,1.78529 2.47664,-1.46753 5.30345,-2.2187 8.1211,-2.69141 3.66196,-0.51007 7.62928,-0.65757 11.32406,-0.0271 1.98828,0.33544 3.95201,0.84327 5.86734,1.45292 0.81973,0.17541 1.18272,-0.81004 0.86328,-1.43945 -0.24132,-2.96506 -1.72439,-6.13574 -4.61621,-7.32178 -0.38678,-0.21081 -1.01004,-0.18235 -0.82172,-0.79679 -0.0541,-3.25007 -0.0244,-6.70977 1.59028,-9.62948 0.54278,-1.0055 1.31995,-1.85399 2.15429,-2.625 -1.02303,-0.47342 -1.71637,-1.40288 -2.02904,-2.46929 -1.19829,-3.25656 -1.49761,-6.79454 -1.30494,-10.24164 2.73749,-0.84845 4.60035,-3.433901 5.16411,-6.162288 0.22668,-1.046356 0.31968,-2.115568 0.46089,-3.175606 -3.57704,1.050547 -7.36583,1.881082 -11.08923,1.129704 -1.47622,-0.254017 -2.90566,-0.710751 -4.32679,-1.174626 0.35164,4.870436 0.71691,9.712546 0.5582,14.599206 -0.0773,5.94833 0.11139,11.91133 -0.3746,17.84611 -0.0718,0.66716 -0.1574,1.33583 -0.32617,1.98632 -2.21772,0.1702 -4.41769,0.75109 -6.38672,1.79493 -1.11914,-1.37045 -2.23828,-2.74089 -3.35743,-4.11133 0.22842,-7.60423 1.21883,-15.21147 1.03711,-22.8418 -0.57971,-2.733981 -1.41442,-5.761085 -3.82812,-7.451171 -2.25643,-1.455385 -5.04525,-1.443637 -7.61833,-1.787389 -0.74049,-0.07294 -1.481,-0.14576 -2.22151,-0.21847 0.20703,0.310547 0.41406,0.621094 0.62109,0.931641 z m 53.01953,7.023437 c 3.16492,0.979752 6.41278,1.968352 9.62891,2.574222 0.0355,3.37507 0.12406,6.77942 0.26367,10.13867 -0.3906,0.32394 -0.74414,0.83258 -1.11328,1.09766 -2.48923,-0.73507 -5.11797,-0.78083 -7.69247,-0.85725 -0.4743,-0.0663 -1.37791,0.33673 -1.1506,-0.45913 -0.0514,-4.17039 -0.0485,-8.34134 -6.8e-4,-12.51175 z" /><path
       id="path2801"
       style="font-size:54.8654px;line-height:1.25;font-family:'New Rocker';-inkscape-font-specification:'New Rocker';fill:#f6821d;fill-opacity:1;stroke-width:0.264583"
       d="m 28.789309,11.324159 c -1.14722,2.083595 -3.105027,3.761466 -5.473596,4.23307 -2.347927,0.579808 -4.781027,0.332535 -7.113915,-0.04623 -0.614146,-0.0832 -1.508846,-0.332813 -0.696746,0.430003 1.620084,1.984029 2.54107,4.446011 2.846886,6.974391 0.601083,4.08592 0.254285,8.22802 -0.242316,12.29549 -0.13803,1.04883 -0.276762,2.09756 -0.414063,3.14648 4.906624,-1.19243 9.892883,-2.13606 14.898438,-2.55078 0.810481,1.68275 0.786789,3.62313 0.879779,5.4511 0.02359,2.7785 -0.206442,5.58064 -0.877826,8.28132 -4.381719,-2.00302 -8.398523,-4.73306 -12.850385,-6.58309 -0.678781,-0.29792 -1.421508,-0.35824 -2.153521,-0.36612 0.680755,2.22342 0.560513,4.72386 -0.624551,6.75844 -0.58442,1.14379 -1.424527,2.12314 -2.242637,3.10288 4.70297,0.21338 9.462489,0.74408 13.910156,2.36328 1.574292,0.58941 3.011997,1.47265 4.455079,2.32227 2.475241,-2.47639 6.158369,-3.40501 9.499907,-3.46667 0.764052,0.13802 1.009051,-0.12781 0.669585,-0.84726 -1.24382,-4.9054 -1.193186,-9.95324 -1.094701,-14.98003 0.08557,-2.75437 0.289904,-5.49001 0.479896,-8.24901 -4.890094,0.27835 -9.855585,0.16582 -14.649666,1.29997 -0.611224,0.32518 -0.887174,0.10625 -0.880033,-0.55588 -0.767344,-3.78367 -0.849645,-7.94672 0.803136,-11.455025 2.542894,1.353905 5.324083,2.302595 8.176119,2.720245 2.014767,0.372 4.100981,-0.44292 5.470168,-1.935317 1.704327,-1.706426 2.761634,-3.916075 3.591995,-6.150163 -1.846424,0.49257 -3.671204,1.029963 -5.564339,0.893611 -3.759298,-0.07598 -7.423009,-1.449884 -10.517693,-3.544001 -0.09505,0.152343 -0.190104,0.304687 -0.285156,0.457031 z m 186.673821,0.423828 c -3.18646,1.92735 -6.81512,3.329492 -10.59059,3.219257 -2.27225,-0.01681 -4.52047,-0.386598 -6.76683,-0.68996 0.1675,2.189855 0.77136,4.530828 2.54428,5.981859 0.726,0.65131 1.57916,1.16213 2.49674,1.49274 0.17286,2.79986 0.0923,5.59951 -0.44727,8.29102 -0.32326,1.89734 -1.11717,3.69178 -2.23047,5.25586 1.69921,1.73021 2.11853,4.24942 2.43244,6.5558 0.28174,3.10431 0.0563,6.17945 -1.12352,9.08047 -0.30445,0.7377 -0.74535,1.40589 -1.18392,2.06881 2.80272,1.43728 5.47899,3.3668 7.23309,6.0252 0.49984,0.77186 0.81973,1.63818 1.20441,2.46894 1.32968,-2.31349 2.64234,-4.85887 4.56446,-6.65039 0.82034,-0.76995 1.74978,-1.40483 2.67383,-2.04102 -1.6706,-0.96017 -2.97508,-2.50393 -3.57441,-4.34179 -0.75854,-2.02974 -0.82265,-4.22206 -0.7752,-6.36329 3.46199,0.14928 7.01337,-0.0393 10.36718,0.97852 0.58471,0.28095 1.12195,0.41001 1.39928,-0.30794 1.4425,-1.94433 3.30238,-3.63759 5.60478,-4.48197 1.10013,-0.49811 2.26249,-0.83147 3.41782,-1.17298 -1.08054,-2.08709 -1.9074,-4.3495 -1.93993,-6.72592 -0.0942,-2.54652 0.0705,-5.0991 0.48094,-7.61392 2.4661,-1.63095 3.9415,-4.311398 5.12305,-6.941405 -3.70957,0.660331 -7.52238,0.28329 -11.14926,-0.654571 -3.05516,-0.791738 -6.17199,-1.613872 -8.9185,-3.212062 -0.30164,-0.154889 -0.51212,-0.579721 -0.8424,-0.221258 z m -110.32421,1.146484 c -0.72128,0.03415 -1.40527,0.287144 -2.10352,0.447266 2.20599,1.553935 4.40756,3.410955 5.79883,5.669922 1.63513,2.397134 2.04223,5.495354 1.51849,8.248614 -0.42922,2.43908 -1.41204,4.74131 -2.55365,6.92521 2.79074,3.95021 3.12726,9.2959 1.78152,13.75661 -1.26519,4.64356 -3.89246,8.85684 -7.31553,12.21827 -0.22139,0.34228 -1.43055,1.30684 -0.45522,0.8952 4.10368,-1.13588 8.2234,-3.03802 10.88194,-6.49014 0.36521,-0.46683 0.70717,-0.95222 1.0194,-1.45611 1.88782,1.63751 4.06759,2.96505 6.49873,3.60841 0.85459,0.24774 1.70918,0.49544 2.56377,0.74315 -1.64723,-1.99332 -3.38993,-4.04023 -4.05257,-6.60244 -1.17216,-4.22064 -0.89798,-8.65224 -0.94938,-12.98545 3.07706,6.29956 6.77272,12.37078 11.6121,17.48126 5.09146,5.50913 11.88199,9.74992 19.40696,10.76055 6.18141,0.82157 12.46633,-0.28987 18.3461,-2.21005 1.45468,-0.54859 3.04139,-0.88543 4.24423,-1.9238 0.003,-0.19355 -1.08832,-0.23594 -1.51475,-0.23648 -3.41544,0.42718 -6.9327,0.67404 -10.40714,0.22227 -3.60213,-0.50465 -6.9797,-1.82246 -10.14707,-3.52754 -1.25952,-0.64914 -2.49381,-1.34607 -3.7416,-2.01738 0.54249,1.37688 1.08467,2.75389 1.62695,4.13086 -3.1398,-0.32157 -5.60706,-2.56068 -7.67969,-4.75782 -0.67143,-3.53236 -0.75671,-7.19435 -0.46233,-10.73612 0.35112,-3.79095 1.36694,-7.42379 2.74163,-10.9338 -1.25824,-2.41163 -2.31636,-4.98051 -2.64844,-7.69922 -0.20819,-1.7463 -0.0517,-3.88568 0.68494,-5.64522 1.30628,-3.194368 4.0325,-5.505733 6.78186,-7.452428 -1.332,-0.412326 -2.73268,-0.567764 -4.11398,-0.333031 -4.11466,0.613894 -8.21884,1.502099 -12.3704,1.426781 -1.2292,0.01474 -2.4528,-0.10516 -3.67382,0.0957 1.14322,0.912868 2.7083,1.249589 3.58203,2.494141 1.25263,1.627427 0.79304,3.762567 0.899,5.661197 0.1339,7.57407 0.28567,15.14932 0.66545,22.71575 -5.48459,-8.27233 -9.73811,-17.29379 -13.42774,-26.488275 0.21527,-1.704121 1.58228,-3.006296 3.14063,-3.569914 0.25063,-0.273233 1.71861,-0.83833 0.83846,-0.840454 -1.67937,-0.208632 -3.37778,0.02581 -5.06723,-0.108871 -3.49128,-0.158006 -6.92742,-0.943038 -10.34936,-1.422167 -0.53107,-0.05531 -1.06551,-0.08945 -1.5996,-0.06445 z m -8.068357,0.07031 c -3.7534,0.175272 -7.467252,0.697721 -11.21377,0.69954 -5.566967,0.127295 -11.146855,0.0011 -16.680205,-0.661718 -0.842336,-0.250693 0.07244,0.765096 0.123843,1.159283 0.933741,1.934045 2.467946,3.646108 4.430284,4.564614 0.234565,3.287223 0.192757,6.713813 -0.429922,10.001903 -0.455282,1.92543 -1.000635,3.99449 -2.505624,5.38677 1.481521,1.77456 1.789004,4.17536 2.060546,6.39062 0.197417,2.95727 0.0056,6.20276 -1.347099,8.9498 -0.3991,0.88487 -1.208142,1.5073 -2.17438,1.6395 -0.59641,0.16996 -1.552451,0.33483 -0.417577,0.52923 3.629324,1.2515 7.350703,1.96389 10.989032,3.1529 3.508979,1.0594 7.007939,2.29658 10.117993,4.27349 2.851089,-2.39497 5.906159,-4.76321 9.582087,-5.69873 0.39313,-0.24687 1.596709,-0.0492 1.191309,-0.7116 -0.4645,-1.43892 -0.38378,-2.99333 -0.58953,-4.48248 -0.13615,-2.82554 -0.354649,-5.64666 -0.469029,-8.47047 0.453369,-2.1593 1.761199,-4.01161 2.582439,-6.03687 0.15761,-0.46817 0.87368,-1.54745 -0.0309,-0.85329 -1.53782,1.01624 -3.373087,1.42286 -5.197167,1.45038 -3.23316,0.157 -6.467049,-0.2555 -9.625849,-0.9235 -0.583663,2.06581 -1.571528,3.98741 -2.632813,5.84375 2.158926,0.13442 4.333872,0.34734 6.39604,1.02966 0.685419,-0.10527 0.668881,0.40617 0.655036,0.96069 0.08779,3.23929 0.127363,6.48266 -0.01201,9.72059 -2.808677,-0.0884 -5.551166,-0.47662 -8.232422,-1.3418 -0.597187,-0.1409 -1.373958,-0.14002 -1.098942,-0.96951 -0.07352,-7.94888 -0.315233,-15.90242 -0.02692,-23.8496 0.08377,-1.678 0.132486,-3.33789 0.551646,-5.018777 2.84526,-0.0763 5.684557,-0.28681 8.477336,0.26069 0.413704,0.13071 1.014708,0.223667 0.936726,0.792037 0.489322,2.69528 1.664482,5.4416 4.005862,7.0254 0.40114,0.16754 1.16821,1.11261 1.32222,0.75737 0.19616,-3.41318 0.76187,-6.91495 1.322258,-10.344472 0.34231,-1.694476 0.51779,-3.44694 1.234429,-5.039853 -1.089909,-0.187044 -2.190527,-0.244856 -3.294917,-0.185547 z m -48.111332,0.892578 c 0.235417,1.935232 0.574796,3.986414 1.745356,5.597207 0.563605,0.730257 1.3347,1.287117 2.172613,1.662557 0.372736,3.97761 0.06958,8.23712 -1.849871,11.85768 -0.08657,0.46539 -0.850608,1.02411 -0.449216,1.47158 2.020122,2.55751 2.523444,5.94086 2.648361,9.10703 0.05025,3.29863 -1.146629,6.63125 -3.304131,9.13039 -0.950218,1.09192 -2.241845,1.78632 -3.35569,2.68918 3.04637,-0.27068 6.072838,-0.82522 9.142948,-0.76867 3.720912,-0.0174 7.41335,0.33331 11.116818,0.81945 -2.010661,-2.14904 -3.960882,-4.54563 -4.618299,-7.48629 -0.79176,-3.07826 -0.901253,-6.56882 -0.495501,-9.82832 0.16128,-1.3783 0.583211,-2.73483 1.307159,-3.92367 -1.380247,-3.11574 -1.697003,-6.59282 -1.634766,-9.9668 0.175666,-3.14739 0.699975,-6.529482 2.806024,-9.007708 0.775041,-0.84125 1.792968,-1.400285 2.682258,-2.107522 -3.84603,0.354035 -7.651638,1.232001 -11.53311,1.089916 -2.196864,-0.0455 -4.355971,-0.51185 -6.464937,-1.099682 0.02799,0.254558 0.05599,0.509115 0.08398,0.763672 z M 160.47681,14.69525 c 1.42474,1.977058 2.27913,4.37855 2.64358,6.636993 0.53627,3.49405 0.3284,7.1417 -0.75698,10.51322 -0.43323,1.27016 -1.11757,2.43707 -1.94324,3.49041 1.15712,0.83098 1.23604,2.40452 1.50976,3.68555 0.54405,3.09601 0.56967,6.27038 0.36524,9.40039 -0.0756,0.59493 -0.29619,1.24663 0.39567,1.53711 2.12784,1.85171 4.33841,3.57872 6.20198,5.70312 0.53597,0.62944 0.93413,1.3561 1.29102,2.09766 2.02041,-1.17819 4.25858,-1.74213 6.53643,-2.27702 3.38706,-0.62465 6.77658,-0.77878 10.20771,-0.57064 3.02035,0.24585 5.92952,1.00441 8.78906,1.86133 -0.17688,-2.4665 -0.82947,-5.11127 -2.76351,-6.8039 -0.76867,-0.70954 -1.75502,-1.1314 -2.74821,-1.42071 -0.14316,-2.41836 -0.0769,-4.87461 0.34456,-7.26588 0.43351,-2.16509 1.40467,-4.26002 3.0363,-5.78295 -1.32017,-0.77182 -1.64842,-2.40436 -2.15039,-3.73242 -0.8064,-3.08383 -1.08491,-6.29934 -0.83984,-9.47461 2.26972,-0.58044 4.03883,-2.432867 4.77439,-4.623895 0.46306,-1.142699 0.58518,-2.378304 0.73537,-3.590946 -2.76017,0.770149 -5.63559,1.424706 -8.54791,1.174831 -1.81525,-0.09728 -3.82679,-0.584528 -5.66302,-1.198268 0.29246,4.318772 0.65704,8.623198 0.50934,12.959568 -0.0502,5.44622 0.0333,10.89662 -0.19489,16.33926 -0.12355,1.59057 -0.16539,3.30647 -0.61719,4.88867 -2.42055,0.13229 -4.82734,0.76791 -6.94336,1.96289 -1.25325,-1.53255 -2.50651,-3.0651 -3.75976,-4.59766 0.16313,-5.29485 0.66088,-10.55214 0.93467,-15.84899 0.0927,-2.34962 0.18684,-4.71085 0.12319,-7.05753 -0.51028,-2.40528 -1.19137,-5.00282 -3.07173,-6.719241 -1.90745,-1.634225 -4.5526,-1.67871 -6.91564,-2.009077 -0.70122,-0.06915 -1.40245,-0.138101 -2.1037,-0.206953 0.20703,0.309896 0.41407,0.619792 0.6211,0.929688 z m 52.11523,5.880853 c 3.27964,1.03692 6.58918,2.00011 9.96875,2.65625 0.0671,3.39472 0.16983,6.79046 0.26367,10.1836 0.185,0.52093 -0.10447,0.8175 -0.49218,1.10547 -0.30416,0.32074 -0.62156,0.63599 -0.84766,1.01953 -2.23119,-0.79889 -4.64685,-0.81623 -6.98618,-0.96918 -0.88255,-0.0501 -1.76308,0.0388 -2.64468,0.0551 -0.0659,-4.75323 -0.0676,-9.50851 -0.004,-14.26171 0.2474,0.0703 0.49479,0.14062 0.74219,0.21093 z" /><path
       d="m 27.702318,19.191388 q -0.877846,1.645962 -1.261904,3.511386 -0.384058,1.810558 -0.384058,3.730847 0,1.591096 0.219462,3.182193 0.219462,1.591096 0.603519,3.182193 1.31677,-0.384058 2.74327,-0.658385 1.481366,-0.274327 3.237059,-0.438923 1.810558,-0.164596 4.060039,-0.274327 2.249482,-0.109731 5.157348,-0.219462 -0.164596,2.194616 -0.329193,5.047617 -0.164596,2.853001 -0.164596,6.035194 0,3.017597 0.219462,6.090059 0.274327,3.017597 0.987577,5.815732 -2.853001,0 -5.48654,0.877847 -2.633539,0.877846 -4.279501,2.468943 -1.152173,-0.713251 -2.633539,-1.481366 -1.4265,-0.71325 -3.45652,-1.31677 -2.03002,-0.603519 -4.77329,-1.042442 -2.688404,-0.493789 -6.364386,-0.658385 1.261904,-1.481366 1.975154,-3.072462 0.768116,-1.645962 0.768116,-3.45652 0,-0.60352 -0.05487,-1.152174 -0.05486,-0.548654 -0.219461,-1.152173 0.768115,0 2.13975,0.658385 1.371635,0.603519 3.237059,1.591096 1.865423,0.987577 4.16977,2.304347 2.359212,1.261904 5.102482,2.578674 0.493789,-1.371635 0.768116,-3.675982 0.329192,-2.359212 0.329192,-4.828155 0,-2.139751 -0.274327,-3.950309 -0.274327,-1.810558 -0.877846,-2.578674 -1.481366,0.109731 -3.291924,0.329193 -1.810558,0.219461 -3.730847,0.548654 -1.920289,0.329192 -3.840578,0.71325 -1.920289,0.384058 -3.675982,0.822981 0.329193,-2.304347 0.60352,-4.937886 0.274327,-2.633539 0.274327,-5.431674 0,-3.127328 -0.60352,-6.035194 -0.603519,-2.907866 -2.359212,-5.212213 0.548654,0.05486 1.536231,0.219462 0.987577,0.164596 2.414078,0.164596 3.127327,0 5.321943,-1.097308 2.194616,-1.097308 3.730848,-3.730847 0.822981,0.548654 1.975154,1.152173 1.207039,0.60352 2.578674,1.097308 1.4265,0.493789 3.017597,0.822981 1.591096,0.274327 3.291923,0.274327 1.097308,0 2.139751,-0.164596 1.042443,-0.219462 2.03002,-0.493789 -1.097308,2.907866 -2.962732,4.883021 -1.865423,1.975154 -4.114905,1.975154 -0.768115,0 -2.030019,-0.219461 -1.207039,-0.274327 -2.578674,-0.658385 -1.31677,-0.438923 -2.633539,-0.987577 -1.31677,-0.548654 -2.249482,-1.152174 z"
       id="path8043"
       style="font-size:54.8654px;line-height:1.25;font-family:'New Rocker';-inkscape-font-specification:'New Rocker';fill:#fece0b;stroke-width:0.264583" /><path
       d="m 64.955933,14.911887 q -1.152174,0.768116 -1.975154,2.084885 -0.768116,1.261904 -1.261905,2.798136 -0.438923,1.481365 -0.658384,3.127327 -0.219462,1.591097 -0.219462,3.072463 0,1.042442 0.05486,2.249481 0.109731,1.152173 0.274327,2.414077 0.219462,1.207039 0.493789,2.414078 0.329192,1.152173 0.768116,2.139751 -0.877847,1.481365 -1.207039,3.56625 -0.274327,2.084886 -0.274327,4.169771 0,3.511385 0.877846,6.693578 0.877847,3.127328 3.675982,6.144925 -2.962732,-0.384058 -5.212213,-0.493789 -2.194616,-0.164596 -4.005174,-0.164596 -2.468943,0 -4.279501,0.164596 -1.810558,0.164597 -3.621116,0.438924 1.152173,-0.713251 2.13975,-1.865424 0.987577,-1.207039 1.700827,-2.633539 0.713251,-1.426501 1.097308,-3.017597 0.438924,-1.591097 0.438924,-3.127328 0,-2.798135 -0.658385,-5.431674 -0.658385,-2.688405 -2.084885,-4.444097 1.536231,-2.853001 2.030019,-5.212213 0.493789,-2.359212 0.493789,-4.883021 0,-1.536231 -0.164596,-3.291924 -2.139751,-0.877846 -2.907866,-2.74327 -0.768116,-1.920289 -0.987577,-4.224635 1.810558,0.493788 3.346789,0.71325 1.591096,0.219461 3.017597,0.219461 2.523808,0 4.663559,-0.274327 2.13975,-0.329192 4.444097,-0.603519 z"
       id="path8045"
       style="font-size:54.8654px;line-height:1.25;font-family:'New Rocker';-inkscape-font-specification:'New Rocker';fill:#fece0b;stroke-width:0.264583" /><path
       d="m 97.326512,28.792833 q -1.097308,-0.768116 -1.865423,-1.536231 -0.71325,-0.822981 -1.207039,-1.755693 -0.493789,-0.932712 -0.822981,-2.03002 -0.329192,-1.097308 -0.548654,-2.414077 -0.768116,-0.60352 -2.468943,-0.768116 -1.700827,-0.164596 -3.45652,-0.164596 -1.4265,0 -2.468943,0.05487 -1.042442,0.05487 -1.810558,0.05487 -0.493789,1.371635 -0.658385,4.718424 -0.164596,3.291924 -0.164596,7.571425 0,2.304347 0,4.718424 0.05486,2.414078 0.05486,4.77329 0.05487,2.359212 0.05487,4.608693 0.05487,2.194616 0.05487,4.114905 1.645962,0.384058 2.688405,0.71325 1.042442,0.274327 2.030019,0.493789 0.987578,0.164596 2.249482,0.329192 1.261904,0.109731 3.346789,0.219462 0.109731,-0.438923 0.109731,-1.865424 0.05486,-1.481365 0.05486,-3.401654 0,-2.139751 -0.05486,-3.566251 0,-1.4265 -0.109731,-2.853001 -0.71325,0 -1.207039,-0.109731 -0.438923,-0.164596 -1.097308,-0.329192 -0.603519,-0.164596 -1.645962,-0.329192 -0.987577,-0.164597 -2.688404,-0.274327 0.219461,-0.384058 0.548654,-0.987578 0.329192,-0.658384 0.658385,-1.371635 0.329192,-0.71325 0.548654,-1.316769 0.274327,-0.658385 0.384057,-1.097308 2.084886,0.438923 4.06004,0.658385 2.03002,0.219461 3.840578,0.219461 1.865423,0 3.401651,-0.219461 1.536229,-0.274327 2.578669,-0.877847 -0.16459,0.438924 -0.60352,1.261904 -0.38405,0.768116 -0.82298,1.700828 -0.438919,0.877846 -0.768109,1.755693 -0.3292,0.877846 -0.3292,1.536231 0.1646,2.304346 0.27433,4.444097 0.10973,2.139751 0.21946,3.895443 0.1646,1.700828 0.27433,2.853001 0.109729,1.152173 0.274329,1.481366 -2.578671,0.603519 -4.883018,1.865423 -2.304347,1.31677 -5.376809,3.895444 -2.414078,-1.481366 -5.157347,-2.523809 -2.74327,-1.042442 -5.431675,-1.810558 -2.633539,-0.822981 -5.102482,-1.4265 -2.414078,-0.60352 -4.224636,-1.207039 0.877847,-0.219462 1.481366,-1.042443 0.658385,-0.877846 1.042443,-2.13975 0.438923,-1.261904 0.658384,-2.798135 0.219462,-1.591097 0.219462,-3.182194 0,-2.468942 -0.548654,-4.718424 -0.493789,-2.249481 -1.4265,-3.401654 0.877846,-0.877847 1.4265,-2.304347 0.603519,-1.481366 0.932712,-3.127328 0.329192,-1.700827 0.438923,-3.45652 0.109731,-1.755693 0.109731,-3.291924 0,-1.261904 -0.05487,-2.194616 -0.05487,-0.932712 -0.10973,-1.4265 -1.261905,-0.438923 -2.63354,-1.810558 -1.316769,-1.371635 -1.975154,-2.962732 3.511386,0.384058 6.638713,0.548654 3.182193,0.109731 5.980329,0.109731 6.090059,0 9.985502,-0.384058 3.895444,-0.384058 6.035194,-0.384058 0.438923,0 0.768117,0.05487 0.32919,0 0.60352,0.05487 -0.21946,0.493789 -0.49379,1.700827 -0.219462,1.152174 -0.493789,2.63354 -0.274327,1.4265 -0.493789,3.072462 -0.219461,1.591096 -0.438923,3.017597 -0.164596,1.371635 -0.274327,2.414077 -0.109731,1.042443 -0.109731,1.31677 z"
       id="path8047"
       style="font-size:54.8654px;line-height:1.25;font-family:'New Rocker';-inkscape-font-specification:'New Rocker';fill:#fece0b;stroke-width:0.264583" /><path
       d="m 132.22096,48.324915 q -0.27433,-5.431675 -0.43893,-10.424426 -0.10973,-4.992751 -0.21946,-8.833329 -0.0549,-3.840578 -0.10973,-6.144925 0,-2.304346 0,-2.359212 -0.27433,-3.346789 -3.45652,-4.608693 0.54865,0.05486 1.04244,0.05486 0.54866,0 1.09731,0 2.46894,0 4.49896,-0.219462 2.08489,-0.274327 3.78572,-0.548653 1.70082,-0.274327 3.07246,-0.493789 1.4265,-0.274327 2.63354,-0.274327 0.65838,0 1.2619,0.164596 -3.29192,2.359212 -5.10248,5.157348 -1.75569,2.743269 -1.75569,6.19979 0,4.060039 2.6884,9.217387 -1.2619,3.182193 -2.08488,6.858174 -0.76812,3.675982 -0.76812,7.351964 0,1.591096 0.10973,3.675981 0.1646,2.03002 0.54866,4.005174 1.64596,1.755693 2.90786,2.74327 1.31677,0.987578 2.35921,1.481366 1.04245,0.493789 1.92029,0.658385 0.93272,0.164596 1.81056,0.274327 l -1.4265,-3.621116 q 1.86542,1.042442 3.73085,1.975154 1.86542,0.932712 3.84058,1.645962 1.97515,0.71325 4.1149,1.097308 2.19462,0.438923 4.66356,0.438923 1.64596,0 3.40165,-0.109731 1.81056,-0.109731 3.78572,-0.384057 -4.82816,1.920288 -9.10766,2.743269 -4.22463,0.877847 -8.01035,0.877847 -4.82815,0 -8.94306,-1.371635 -4.06004,-1.371635 -7.57142,-3.730847 -3.45652,-2.304347 -6.36439,-5.376809 -2.853,-3.017597 -5.26708,-6.364387 -2.35921,-3.401654 -4.2795,-6.858174 -1.86542,-3.45652 -3.34679,-6.583848 v 5.596271 q 0,3.401654 0.21946,5.706001 0.21947,2.304347 0.71325,4.005174 0.49379,1.700827 1.26191,3.017597 0.76811,1.261904 1.86542,2.578674 -1.20704,-0.329193 -2.13975,-0.658385 -0.87784,-0.329192 -1.75569,-0.768116 -0.82298,-0.438923 -1.75569,-1.097308 -0.87785,-0.658384 -2.08489,-1.645962 -1.48136,2.63354 -3.95031,4.553828 -2.46894,1.920289 -6.63871,3.291924 1.64596,-1.591096 3.07246,-3.621116 1.4265,-1.975154 2.46894,-4.224636 1.09731,-2.304346 1.70083,-4.718424 0.65839,-2.414077 0.65839,-4.88302 0,-2.304347 -0.60352,-4.444098 -0.54866,-2.13975 -1.86543,-4.114904 2.68841,-5.157348 2.68841,-9.217387 0,-3.456521 -1.81056,-6.19979 -1.75569,-2.798136 -5.04762,-5.157348 0.54866,-0.164596 1.26191,-0.164596 1.09731,0 2.46894,0.274327 1.4265,0.219462 3.07246,0.493789 1.70083,0.274326 3.62112,0.548653 1.97515,0.219462 4.22463,0.219462 0.54866,0 1.04245,0 0.54865,0 1.09731,-0.05486 -2.96274,1.152173 -3.40166,4.060039 0.98758,2.468943 2.35921,5.706002 1.4265,3.237058 3.12733,6.803309 1.75569,3.566251 3.78571,7.242233 2.03002,3.621116 4.22464,6.91304 z"
       id="path8049"
       style="font-size:54.8654px;line-height:1.25;font-family:'New Rocker';-inkscape-font-specification:'New Rocker';fill:#fece0b;stroke-width:0.264583" /><path
       d="m 189.99422,26.104428 q 0,1.810559 0.27433,3.621117 0.27432,1.755692 0.65838,3.237058 0.43892,1.426501 0.93271,2.414078 0.49379,0.987577 0.93271,1.261904 -0.98757,0.987577 -1.64596,2.304347 -0.60352,1.261904 -0.98757,2.688404 -0.3292,1.4265 -0.43893,2.962732 -0.10973,1.481365 -0.10973,2.907866 0,0.822981 0,1.481366 0.0549,0.603519 0.10973,1.042442 0.93271,0.219462 1.81056,0.658385 0.87785,0.438923 1.5911,1.261904 0.76811,0.822981 1.2619,2.084885 0.54865,1.261904 0.71325,3.072462 -3.29192,-0.987577 -5.76087,-1.371634 -2.46894,-0.384058 -4.55382,-0.384058 -5.65114,0 -9.32712,0.932712 -3.67598,0.987577 -5.04762,1.810558 -0.76811,-1.645962 -2.90786,-3.566251 -2.13975,-1.975155 -4.77329,-4.169771 0.10973,-0.768115 0.16459,-1.810558 0.0549,-1.097308 0.0549,-1.865423 0,-1.865424 -0.10973,-3.566251 -0.10973,-1.755693 -0.38406,-3.127328 -0.21946,-1.4265 -0.54865,-2.359212 -0.3292,-0.987577 -0.76812,-1.31677 1.48137,-1.920288 2.13975,-4.608693 0.65838,-2.74327 0.65838,-5.870598 0,-2.853 -0.71325,-5.431674 -0.65838,-2.578674 -2.30434,-4.937886 2.46894,0.219462 4.22463,0.548654 1.7557,0.274327 2.96274,1.097308 1.20703,0.822981 1.97515,2.468943 0.82298,1.591097 1.37163,4.389232 0,5.980328 -0.43892,11.521734 -0.43892,5.541405 -0.65838,11.357137 l 4.16977,5.102482 q 1.31677,-0.822981 3.18219,-1.4265 1.92029,-0.60352 4.2795,-0.713251 0.49379,-1.371634 0.65839,-4.005174 0.21946,-2.633539 0.21946,-6.035193 0.0549,-3.401655 0.0549,-7.351964 0,-3.950308 0.0549,-8.065213 -0.1646,-4.005174 -0.49379,-8.504137 3.18219,1.042442 6.36439,1.042442 1.4265,0 3.01759,-0.219461 1.5911,-0.274327 3.62112,-0.822981 -0.1646,1.700827 -0.71325,2.962731 -0.49379,1.261905 -1.26191,2.139751 -0.71325,0.822981 -1.64596,1.316769 -0.87784,0.493789 -1.75569,0.658385 -0.0549,0.438923 -0.10973,1.152174 0,0.71325 0,2.030019 z"
       id="path8051"
       style="font-size:54.8654px;line-height:1.25;font-family:'New Rocker';-inkscape-font-specification:'New Rocker';fill:#fece0b;stroke-width:0.264583" /><path
       d="m 223.02317,43.825952 q -2.30434,-0.822981 -5.26708,-0.987577 -2.90786,-0.164596 -6.36438,-0.219462 v 2.249482 q 0,2.853 0.98758,5.321943 1.04244,2.468943 2.96273,3.675982 -2.35922,1.591097 -3.67598,3.401655 -1.31677,1.810558 -2.57868,4.114905 -0.93271,-2.304347 -3.12733,-4.279502 -2.13975,-1.975154 -4.60869,-3.237058 1.09731,-1.591097 1.64596,-3.895443 0.54866,-2.359212 0.54866,-4.828155 0,-2.798136 -0.65839,-5.212213 -0.60352,-2.414078 -1.75569,-3.621117 1.5911,-2.304346 2.08488,-5.102482 0.54866,-2.853 0.54866,-5.706001 0,-0.768116 -0.0549,-1.536231 0,-0.768116 -0.0549,-1.536231 -1.92029,-0.60352 -3.29193,-2.139751 -1.37163,-1.536231 -1.64596,-4.334366 1.86542,0.274327 3.40166,0.438923 1.53623,0.164596 2.96273,0.164596 2.57867,0 4.99275,-0.71325 2.46894,-0.71325 5.65113,-2.578674 0.60352,0.493789 2.35922,1.261904 1.81056,0.768116 4.22463,1.481366 2.41408,0.71325 5.10248,1.261904 2.68841,0.493789 5.10249,0.493789 0.76811,0 1.48136,-0.05487 0.71325,-0.05486 1.48137,-0.164596 -0.27433,0.60352 -0.71325,1.426501 -0.43893,0.822981 -1.04244,1.645962 -0.54866,0.822981 -1.31677,1.591096 -0.76812,0.768116 -1.64597,1.31677 -0.27432,1.755692 -0.43892,3.45652 -0.10973,1.700827 -0.10973,3.291924 0,2.304346 0.38406,3.950308 0.38406,1.645962 1.37163,3.621117 -1.75569,0.493788 -3.07246,1.097308 -1.31677,0.548654 -2.35921,1.261904 -0.98758,0.71325 -1.86543,1.645962 -0.82298,0.877846 -1.64596,1.975154 z m 0.38406,-8.449271 q -0.0549,-0.768116 -0.10973,-2.194616 0,-1.426501 -0.0549,-3.072463 -0.0549,-1.645961 -0.10973,-3.291923 0,-1.700828 -0.0549,-2.962732 -1.75569,-0.329192 -3.29193,-0.71325 -1.53623,-0.384058 -2.96273,-0.768116 -1.37163,-0.438923 -2.74327,-0.822981 -1.31677,-0.438923 -2.74327,-0.822981 -0.0549,1.810558 -0.0549,3.566251 0,1.755693 0,3.45652 0,2.304347 0,4.389232 0,2.03002 0.0549,4.114905 0.54866,-0.05487 1.15218,-0.05487 0.65838,-0.05487 1.37163,-0.05487 1.09731,0 2.30435,0.109731 1.20704,0.05486 2.30434,0.219462 1.09731,0.10973 1.92029,0.329192 0.87785,0.219462 1.31677,0.493789 0.27433,-0.60352 0.76812,-1.097308 0.49379,-0.548654 0.93271,-0.822981 z"
       id="path8053"
       style="font-size:54.8654px;line-height:1.25;font-family:'New Rocker';-inkscape-font-specification:'New Rocker';fill:#fece0b;stroke-width:0.264583" /><path
       d="m 241.06821,46.459491 q 0.71325,-1.4265 0.82298,-3.017596 0.1646,-1.645962 0.1646,-3.182194 V 20.398427 q 0,-1.536231 -0.1646,-3.127327 -0.10973,-1.645962 -0.82298,-3.072463 h 8.77846 q -0.49378,1.371635 -0.71325,2.962732 -0.21946,1.536231 -0.21946,3.182193 v 19.971005 q 0,1.645962 0.21946,3.237058 0.21947,1.536231 0.71325,2.907866 z m -0.93271,9.820907 q 0.93271,-1.591097 2.24948,-3.127328 1.37163,-1.591096 3.0176,-2.468943 0.32919,0.438923 0.98757,1.042443 0.71325,0.603519 1.48137,1.207038 0.82298,0.60352 1.53623,1.152174 0.76812,0.493788 1.15217,0.71325 -1.86542,1.31677 -3.18219,2.578674 -1.2619,1.207039 -2.19462,3.072462 -0.32919,-0.384058 -1.04244,-0.987577 -0.65838,-0.548654 -1.4265,-1.152173 -0.76811,-0.60352 -1.48136,-1.152174 -0.71325,-0.548654 -1.09731,-0.877846 z"
       id="path8055"
       style="font-size:54.8654px;line-height:1.25;font-family:'New Rocker';-inkscape-font-specification:'New Rocker';fill:#fece0b;stroke-width:0.264583" /><path
       d="m 20.415851,65.862704 q 1.720531,0.478742 5.691009,0.718111 3.970478,0.239371 9.26445,0.239371 h 67.89518 q 3.30873,0 5.95572,-0.01841 2.64699,-0.01841 4.89692,-0.09207 2.24994,-0.05524 4.36753,-0.165719 2.11757,-0.110479 4.36751,-0.276198 -0.92641,0.368263 -0.92641,0.865417 0,0.607633 1.45586,1.270506 1.45584,0.681286 4.10282,1.454638 -3.17638,-0.368263 -8.47035,-0.515569 -5.29397,-0.128886 -12.17614,-0.128886 H 42.782909 q -5.426317,0 -8.999746,0.05524 -3.573429,0.05524 -6.352772,0.184131 -2.779332,0.147312 -5.293972,0.40509 -2.646986,0.257783 -6.220416,0.644458 l -1.191147,-0.110479 q 1.720542,-0.497156 2.779332,-0.828591 0.926405,-0.331436 1.720541,-0.570807 0.794099,-0.220958 1.720543,-0.405089 0.794098,-0.165719 2.249936,-0.34985 -1.588196,-0.53398 -2.646986,-1.160025 -1.058839,-0.607634 -1.058839,-1.196855 z"
       id="path7374"
       style="font-size:10.5833px;line-height:1.25;font-family:'New Rocker';-inkscape-font-specification:'New Rocker';fill:#fece0b;stroke-width:0.264583" /><path
       d="m 227.89228,65.678308 q -0.79234,0.478742 -2.6208,0.718111 -1.82845,0.239371 -4.2664,0.239371 h -31.26662 q -1.52372,0 -2.74269,-0.01841 -1.21897,-0.01841 -2.25509,-0.09207 -1.03614,-0.05524 -2.01131,-0.165719 -0.97517,-0.110479 -2.01129,-0.276198 0.42661,0.368263 0.42661,0.865417 0,0.607633 -0.67043,1.270506 -0.67044,0.681286 -1.88941,1.454638 1.46277,-0.368263 3.90071,-0.515569 2.43795,-0.128886 5.60727,-0.128886 h 29.49912 q 2.49889,0 4.1445,0.05524 1.64561,0.05524 2.92553,0.184131 1.27992,0.147312 2.43794,0.40509 1.21898,0.257783 2.86459,0.644458 l 0.54854,-0.110479 q -0.79234,-0.497156 -1.27992,-0.828591 -0.42662,-0.331436 -0.79234,-0.570807 -0.36568,-0.220958 -0.79232,-0.405089 -0.3657,-0.165719 -1.03613,-0.34985 0.73139,-0.53398 1.21898,-1.160025 0.4876,-0.607634 0.4876,-1.196855 z"
       id="path7378"
       style="font-size:10.5833px;line-height:1.25;font-family:'New Rocker';-inkscape-font-specification:'New Rocker';fill:#fece0b;stroke-width:0.264583" /></g></svg>
