<?xml version="1.0" encoding="UTF-8" standalone="no"?>
<!-- Created with Inkscape (http://www.inkscape.org/) -->

<svg
   width="40"
   height="40"
   viewBox="0 0 10.583333 10.583333"
   version="1.1"
   id="svg1435"
   sodipodi:docname="star.svg"
   inkscape:version="1.2.2 (b0a8486541, 2022-12-01)"
   xmlns:inkscape="http://www.inkscape.org/namespaces/inkscape"
   xmlns:sodipodi="http://sodipodi.sourceforge.net/DTD/sodipodi-0.dtd"
   xmlns="http://www.w3.org/2000/svg"
   xmlns:svg="http://www.w3.org/2000/svg">
  <sodipodi:namedview
     id="namedview1437"
     pagecolor="#ffffff"
     bordercolor="#666666"
     borderopacity="1.0"
     inkscape:showpageshadow="2"
     inkscape:pageopacity="0.0"
     inkscape:pagecheckerboard="0"
     inkscape:deskcolor="#d1d1d1"
     inkscape:document-units="mm"
     showgrid="false"
     inkscape:zoom="13.455443"
     inkscape:cx="5.1280363"
     inkscape:cy="29.839226"
     inkscape:window-width="1516"
     inkscape:window-height="1040"
     inkscape:window-x="10"
     inkscape:window-y="30"
     inkscape:window-maximized="1"
     inkscape:current-layer="layer1" />
  <defs
     id="defs1432" />
  <g
     inkscape:label="Layer 1"
     inkscape:groupmode="layer"
     id="layer1">
    <path
       id="path1932"
       style="fill:#e5e2df;fill-opacity:1;stroke:none;stroke-width:1.32292;stroke-linecap:square;stroke-linejoin:bevel;stroke-dasharray:none;stroke-opacity:1;stop-color:#000000;opacity:0.5"
       inkscape:transform-center-x="25.955355"
       inkscape:transform-center-y="30.753084"
       d="M 5.2916667 0 A 6.8742041 6.8741781 0 0 1 4.157369 2.5678019 A 6.8541172 6.8541432 45 0 1 1.5606283 1.5606283 A 6.8541172 6.8541432 45 0 1 2.5678019 4.157369 A 6.8742041 6.8741781 0 0 1 0 5.2916667 A 6.8742041 6.8741781 0 0 1 2.5678019 6.4259644 A 6.8541172 6.8541432 45 0 1 1.5606283 9.0227051 A 6.8541172 6.8541432 45 0 1 4.157369 8.0155314 A 6.8742041 6.8741781 0 0 1 5.2916667 10.583333 A 6.8742041 6.8741781 0 0 1 6.4259644 8.0155314 A 6.8541172 6.8541432 45 0 1 9.0227051 9.0227051 A 6.8541172 6.8541432 45 0 1 8.0155314 6.4259644 A 6.8742041 6.8741781 0 0 1 10.583333 5.2916667 A 6.8742041 6.8741781 0 0 1 8.0155314 4.157369 A 6.8541172 6.8541432 45 0 1 9.0227051 1.5606283 A 6.8541172 6.8541432 45 0 1 6.4259644 2.5678019 A 6.8742041 6.8741781 0 0 1 5.2916667 0 z " />
  </g>
</svg>
