<?xml version="1.0" encoding="UTF-8" standalone="no"?>
<!-- Created with Inkscape (http://www.inkscape.org/) -->

<svg
   width="1200"
   height="60"
   viewBox="0 0 317.50001 15.874999"
   version="1.1"
   id="svg505"
   inkscape:version="1.2.2 (b0a8486541, 2022-12-01)"
   sodipodi:docname="bar.svg"
   xmlns:inkscape="http://www.inkscape.org/namespaces/inkscape"
   xmlns:sodipodi="http://sodipodi.sourceforge.net/DTD/sodipodi-0.dtd"
   xmlns="http://www.w3.org/2000/svg"
   xmlns:svg="http://www.w3.org/2000/svg">
  <sodipodi:namedview
     id="namedview507"
     pagecolor="#ffffff"
     bordercolor="#666666"
     borderopacity="1.0"
     inkscape:showpageshadow="2"
     inkscape:pageopacity="0.0"
     inkscape:pagecheckerboard="0"
     inkscape:deskcolor="#d1d1d1"
     inkscape:document-units="px"
     showgrid="false"
     inkscape:zoom="0.5946522"
     inkscape:cx="494.40664"
     inkscape:cy="285.04057"
     inkscape:window-width="1900"
     inkscape:window-height="1040"
     inkscape:window-x="10"
     inkscape:window-y="30"
     inkscape:window-maximized="1"
     inkscape:current-layer="layer1" />
  <defs
     id="defs502" />
  <g
     inkscape:label="Layer 1"
     inkscape:groupmode="layer"
     id="layer1"
     transform="translate(247.76766,-41.476945)">
    <path
       id="rect1760-2-3"
       style="fill:#e6e6e6;fill-opacity:1;stroke:#e6e6e6;stroke-width:0.264583;stroke-linecap:square;stroke-linejoin:bevel;stroke-dasharray:none;stroke-opacity:1;stop-color:#000000;opacity:0.5"
       d="m -237.84732,42.799861 a 8.5927529,8.5927209 0 0 1 -6.61461,6.614596 8.5927529,8.5927209 0 0 1 6.61461,6.614571 8.5927529,8.5927209 0 0 1 6.61456,-6.614571 8.5927529,8.5927209 0 0 1 -6.61456,-6.614596 z"
       inkscape:transform-center-x="45.185782"
       inkscape:transform-center-y="-41.032465" />
    <path
       id="path5926"
       style="color:#000000;fill:#e6e6e6;-inkscape-stroke:none;opacity:0.5"
       d="m -226.87199,48.75402 a 1.3229166,1.3229166 0 0 1 -1.05265,0.528133 1.3229166,1.3229166 0 0 1 -5.2e-4,0 v 0.264584 a 1.3229166,1.3229166 0 0 1 5.2e-4,0 1.3229166,1.3229166 0 0 1 1.05368,0.529683 h 37.58013 a 1.3229166,1.3229166 0 0 1 1.05317,-0.529683 v -0.264584 a 1.3229166,1.3229166 0 0 1 -1.05213,-0.528133 z" />
    <path
       id="path6281"
       style="fill:#e6e6e6;fill-opacity:1;stroke:#e6e6e6;stroke-width:0.264583;stroke-linecap:square;stroke-linejoin:bevel;stroke-dasharray:none;stroke-opacity:1;stop-color:#000000;opacity:0.5"
       d="m -178.31545,42.799861 a 8.5927529,8.5927209 0 0 1 -6.61461,6.614596 8.5927529,8.5927209 0 0 1 6.61461,6.614571 8.5927529,8.5927209 0 0 1 6.61456,-6.614571 8.5927529,8.5927209 0 0 1 -6.61456,-6.614596 z"
       inkscape:transform-center-x="45.185782"
       inkscape:transform-center-y="-41.032465" />
    <path
       id="path6283"
       style="color:#000000;fill:#e6e6e6;-inkscape-stroke:none;opacity:0.5"
       d="m -167.34012,48.75402 a 1.3229166,1.3229166 0 0 1 -1.05265,0.528133 1.3229166,1.3229166 0 0 1 -5.2e-4,0 v 0.264584 a 1.3229166,1.3229166 0 0 1 5.2e-4,0 1.3229166,1.3229166 0 0 1 1.05368,0.529683 h 37.58013 a 1.3229166,1.3229166 0 0 1 1.05317,-0.529683 v -0.264584 a 1.3229166,1.3229166 0 0 1 -1.05213,-0.528133 z" />
    <path
       id="path6285"
       style="fill:#e6e6e6;fill-opacity:1;stroke:#e6e6e6;stroke-width:0.264583;stroke-linecap:square;stroke-linejoin:bevel;stroke-dasharray:none;stroke-opacity:1;stop-color:#000000;opacity:0.5"
       d="m -118.78358,42.799861 a 8.5927529,8.5927209 0 0 1 -6.61461,6.614596 8.5927529,8.5927209 0 0 1 6.61461,6.614571 8.5927529,8.5927209 0 0 1 6.61456,-6.614571 8.5927529,8.5927209 0 0 1 -6.61456,-6.614596 z"
       inkscape:transform-center-x="45.185782"
       inkscape:transform-center-y="-41.032465" />
    <path
       id="path6287"
       style="color:#000000;fill:#e6e6e6;-inkscape-stroke:none;opacity:0.5"
       d="m -107.80824,48.75402 a 1.3229166,1.3229166 0 0 1 -1.05265,0.528133 1.3229166,1.3229166 0 0 1 -5.2e-4,0 v 0.264584 a 1.3229166,1.3229166 0 0 1 5.2e-4,0 1.3229166,1.3229166 0 0 1 1.05368,0.529683 h 37.580127 a 1.3229166,1.3229166 0 0 1 1.05317,-0.529683 v -0.264584 a 1.3229166,1.3229166 0 0 1 -1.05213,-0.528133 z" />
    <path
       id="path6289"
       style="fill:#e6e6e6;fill-opacity:1;stroke:#e6e6e6;stroke-width:0.264583;stroke-linecap:square;stroke-linejoin:bevel;stroke-dasharray:none;stroke-opacity:1;stop-color:#000000;opacity:0.5"
       d="m -59.251702,42.799861 a 8.5927529,8.5927209 0 0 1 -6.61461,6.614596 8.5927529,8.5927209 0 0 1 6.61461,6.614571 8.5927529,8.5927209 0 0 1 6.61456,-6.614571 8.5927529,8.5927209 0 0 1 -6.61456,-6.614596 z"
       inkscape:transform-center-x="45.185782"
       inkscape:transform-center-y="-41.032465" />
    <path
       id="path6291"
       style="color:#000000;fill:#e6e6e6;-inkscape-stroke:none;opacity:0.5"
       d="m -48.27637,48.75402 a 1.3229166,1.3229166 0 0 1 -1.05265,0.528133 1.3229166,1.3229166 0 0 1 -5.2e-4,0 v 0.264584 a 1.3229166,1.3229166 0 0 1 5.2e-4,0 1.3229166,1.3229166 0 0 1 1.05368,0.529683 h 37.58013 a 1.3229166,1.3229166 0 0 1 1.0531701,-0.529683 V 49.282153 A 1.3229166,1.3229166 0 0 1 -10.69417,48.75402 Z" />
    <path
       id="path6293"
       style="fill:#e6e6e6;fill-opacity:1;stroke:#e6e6e6;stroke-width:0.264583;stroke-linecap:square;stroke-linejoin:bevel;stroke-dasharray:none;stroke-opacity:1;stop-color:#000000;opacity:0.5"
       d="m 0.2801707,42.799861 a 8.5927529,8.5927209 0 0 1 -6.61461,6.614596 8.5927529,8.5927209 0 0 1 6.61461,6.614571 8.5927529,8.5927209 0 0 1 6.6145602,-6.614571 8.5927529,8.5927209 0 0 1 -6.6145602,-6.614596 z"
       inkscape:transform-center-x="45.185782"
       inkscape:transform-center-y="-41.032465" />
    <path
       id="path6295"
       style="color:#000000;fill:#e6e6e6;-inkscape-stroke:none;opacity:0.5"
       d="m 11.255502,48.75402 a 1.3229166,1.3229166 0 0 1 -1.05265,0.528133 1.3229166,1.3229166 0 0 1 -5.2e-4,0 v 0.264584 a 1.3229166,1.3229166 0 0 1 5.2e-4,0 1.3229166,1.3229166 0 0 1 1.05368,0.529683 h 37.580129 a 1.3229166,1.3229166 0 0 1 1.05317,-0.529683 v -0.264584 a 1.3229166,1.3229166 0 0 1 -1.05213,-0.528133 z" />
    <path
       id="path6297"
       style="fill:#e6e6e6;fill-opacity:1;stroke:#e6e6e6;stroke-width:0.264583;stroke-linecap:square;stroke-linejoin:bevel;stroke-dasharray:none;stroke-opacity:1;stop-color:#000000;opacity:0.5"
       d="m 59.812042,42.799861 a 8.5927529,8.5927209 0 0 1 -6.61461,6.614596 8.5927529,8.5927209 0 0 1 6.61461,6.614571 8.5927529,8.5927209 0 0 1 6.61456,-6.614571 8.5927529,8.5927209 0 0 1 -6.61456,-6.614596 z"
       inkscape:transform-center-x="45.185782"
       inkscape:transform-center-y="-41.032465" />
  </g>
</svg>
