<?xml version="1.0" encoding="UTF-8" standalone="no"?>
<!-- Created with Inkscape (http://www.inkscape.org/) -->

<svg
   width="1000"
   height="1000"
   viewBox="0 0 264.58333 264.58333"
   version="1.1"
   id="svg5"
   xml:space="preserve"
   inkscape:version="1.2.2 (b0a8486541, 2022-12-01)"
   sodipodi:docname="ignite.svg"
   inkscape:export-filename="ignite.jpg"
   inkscape:export-xdpi="103.68"
   inkscape:export-ydpi="103.68"
   xmlns:inkscape="http://www.inkscape.org/namespaces/inkscape"
   xmlns:sodipodi="http://sodipodi.sourceforge.net/DTD/sodipodi-0.dtd"
   xmlns="http://www.w3.org/2000/svg"
   xmlns:svg="http://www.w3.org/2000/svg"><sodipodi:namedview
     id="namedview7"
     pagecolor="#ffffff"
     bordercolor="#666666"
     borderopacity="1.0"
     inkscape:showpageshadow="2"
     inkscape:pageopacity="0.0"
     inkscape:pagecheckerboard="0"
     inkscape:deskcolor="#d1d1d1"
     inkscape:document-units="px"
     showgrid="false"
     inkscape:zoom="0.84096521"
     inkscape:cx="623.09355"
     inkscape:cy="385.86614"
     inkscape:window-width="1900"
     inkscape:window-height="1040"
     inkscape:window-x="10"
     inkscape:window-y="30"
     inkscape:window-maximized="1"
     inkscape:current-layer="layer1" /><defs
     id="defs2" /><g
     inkscape:groupmode="layer"
     id="layer2"
     inkscape:label="bg"
     sodipodi:insensitive="true"><rect
       style="fill:#1d252c;fill-opacity:1;stroke:none;stroke-width:0.705556;stroke-linecap:square;stroke-linejoin:round;stop-color:#000000"
       id="rect690"
       width="264.58331"
       height="264.58334"
       x="0"
       y="0" /></g><g
     inkscape:label="Layer 1"
     inkscape:groupmode="layer"
     id="layer1"><text
       xml:space="preserve"
       style="font-style:normal;font-variant:normal;font-weight:normal;font-stretch:normal;font-size:64.8243px;line-height:1.25;font-family:'New Rocker';-inkscape-font-specification:'New Rocker';fill:#e5e2df;fill-opacity:1;stroke-width:0.264583"
       x="19.108414"
       y="150.99347"
       id="text236"><tspan
         sodipodi:role="line"
         id="tspan234"
         style="font-style:normal;font-variant:normal;font-weight:normal;font-stretch:normal;font-family:'New Rocker';-inkscape-font-specification:'New Rocker';fill:#e5e2df;fill-opacity:1;stroke-width:0.264583"
         x="19.108414"
         y="150.99347">IGNITE</tspan></text><path
       style="fill:#f04222;fill-opacity:1;stroke-width:1"
       d="m 135.26235,94.133023 c -0.94035,-0.87993 -2.74757,-3.02792 -3.48168,-4.13814 -2.12231,-3.20973 -3.58504,-6.82972 -4.54495,-11.2479 -0.31152,-1.43386 -0.46186,-2.42136 -0.77583,-5.09582 -0.0586,-0.49939 -0.11063,-2.26145 -0.11557,-3.91568 -0.0106,-3.43584 0.0888,-4.22122 0.88818,-7.03689 0.69916,-2.46279 2.57581,-6.2934 4.2537,-8.6826 0.17536,-0.24969 0.55794,-0.81151 0.85019,-1.24848 0.29226,-0.43696 0.55941,-0.82002 0.59368,-0.85124 0.0342,-0.0313 0.36971,-0.49087 0.74543,-1.02147 0.37571,-0.53061 0.95341,-1.32562 1.28377,-1.76669 1.00443,-1.34108 1.38366,-1.85927 2.52786,-3.45423 0.60457,-0.84271 1.13392,-1.5833 1.17636,-1.64572 0.98558,-1.44999 1.82828,-2.84488 2.84556,-4.71016 0.36141,-0.66267 1.28226,-2.837072 1.61589,-3.815637 0.3688,-1.081643 0.80746,-2.820609 1.11318,-4.41298 0.11986,-0.62424 0.32166,-1.67126 0.44847,-2.326712 0.89573,-4.630029 1.45477,-10.130541 1.26603,-12.456412 -0.058,-0.714504 -0.0522,-1.049404 0.018,-1.048434 0.22284,0.003 2.16771,1.981373 3.63881,3.701333 3.17591,3.71323 5.32532,7.306537 7.1541,11.959975 0.70193,1.786107 1.57112,5.016241 2.39745,8.909597 0.19873,0.93637 0.42641,2.00892 0.50594,2.38347 0.6681,3.14623 1.60289,9.4761 1.78759,12.10461 0.0881,1.25382 0.16094,1.39621 0.48479,0.94766 0.41226,-0.57102 1.1316,-2.33115 1.34515,-3.29144 0.58905,-2.64879 0.49145,-7.29049 -0.24343,-11.5768 -0.13913,-0.81152 -0.25315,-1.52004 -0.25335,-1.5745 -7.5e-4,-0.196317 0.30744,0.2019 1.15147,1.48772 3.4526,5.25979 5.58429,10.62932 6.09729,15.35849 0.16203,1.49363 0.0516,5.90389 -0.20592,8.22239 -0.39886,3.59135 -0.8119,5.75411 -1.59359,8.34429 -0.16049,0.5318 -0.2918,1.00424 -0.2918,1.04986 0,0.12254 1.13637,0.10079 1.43104,-0.0274 0.39356,-0.17122 1.09097,-0.96479 1.45898,-1.66019 0.1835,-0.34673 0.41026,-0.7414 0.50391,-0.87704 0.16496,-0.23891 0.17039,-0.21979 0.17359,0.61162 0.006,1.63123 -0.66454,6.02476 -1.38526,9.07285 -0.9989,4.22467 -3.00056,8.93297 -4.9946,11.74835 -2.10526,2.97239 -4.73583,5.24143 -7.50334,6.472106 -1.1321,0.50343 -2.9119,1.02908 -4.00986,1.18428 -7.07347,0.812461 -13.42642,-1.1185 -18.3573,-5.676016 z"
       id="path1262"
       sodipodi:nodetypes="cssssssssssscssssscssssssssssssssssssssscc" /><path
       style="fill:#f6821d;fill-opacity:1;stroke-width:1"
       d="m 138.6228,95.314453 c -0.66361,-0.67869 -1.92616,-2.31745 -2.43233,-3.15711 -1.46334,-2.42754 -2.43239,-5.13112 -3.01093,-8.40049 -0.18777,-1.06103 -0.27007,-1.78939 -0.42477,-3.75861 -0.0289,-0.36771 -0.0174,-1.65943 0.0253,-2.87049 0.089,-2.51537 0.18359,-3.08662 0.84778,-5.11825 0.58094,-1.77703 2.06222,-4.51198 3.35751,-6.19915 0.13538,-0.17633 0.4312,-0.5735 0.65741,-0.8826 0.22619,-0.30911 0.4325,-0.57968 0.45848,-0.60126 0.026,-0.0215 0.2844,-0.34573 0.57433,-0.72031 0.28992,-0.37458 0.73512,-0.93527 0.98933,-1.24599 0.77289,-0.9447 1.06505,-1.31008 1.94738,-2.43549 0.4662,-0.59463 0.87449,-1.11725 0.90729,-1.16139 0.76218,-1.02514 1.41819,-2.01518 2.21522,-3.34315 0.28316,-0.47177 1.01828,-2.02955 1.28998,-2.73358 0.30033,-0.77818 0.67028,-2.03496 0.93879,-3.18932 0.10524,-0.45252 0.2824,-1.21151 0.39362,-1.68663 0.7857,-3.35619 1.34941,-7.36194 1.27658,-9.0714 -0.0224,-0.525133 -0.008,-0.770069 0.0427,-0.766773 0.16303,0.0106 1.5311,1.530063 2.55959,2.843153 2.22045,2.83483 3.69288,5.54414 4.90083,9.01765 0.46364,1.33322 1.00914,3.72961 1.50467,6.6099 0.11917,0.69271 0.2557,1.48619 0.3034,1.76327 1.17941,6.80797 0.42633,12.03262 1.08371,15.7326 2.31317,-2.86563 3.10436,-5.91575 3.84832,-10.44817 1.93456,10.92482 -1.39146,14.81356 -0.40141,19.01609 0.83178,1.43209 2.01601,2.56332 2.91413,2.51144 -0.84985,3.05569 -3.30777,7.9574 -4.84646,9.9449 -1.62451,2.09834 -3.61379,3.662506 -5.67413,4.461586 -0.84283,0.32687 -2.16038,0.646191 -2.96844,0.719411 -5.20054,0.3346 -9.79658,-1.312471 -13.27792,-4.829857 z"
       id="path3848"
       sodipodi:nodetypes="cssssssssssscssssscssscccccssccc" /><path
       style="fill:#fece0b;fill-opacity:1;stroke-width:1"
       d="m 141.66214,96.771933 c -0.4651,-0.47566 -1.34997,-1.62422 -1.70472,-2.21271 -1.02562,-1.70135 -1.70477,-3.5962 -2.11025,-5.88757 -0.1316,-0.74364 -0.18929,-1.25413 -0.29772,-2.63427 -0.0202,-0.25772 -0.0122,-1.16303 0.0178,-2.01183 0.0623,-1.76292 0.12867,-2.16329 0.59417,-3.58718 0.40717,-1.24546 1.44534,-3.16227 2.35316,-4.34475 5.86211,-6.52736 7.30155,-8.92874 9.99143,-16.90445 2.38227,11.96382 0.92145,16.6376 7.63622,22.15573 -0.60947,2.0314 2.03106,7.81216 1.23033,10.08522 -0.59563,2.1416 -1.26876,3.70272 -2.34716,5.09568 -1.13857,1.470646 -2.53277,2.566916 -3.97679,3.126946 -0.59071,0.22911 -1.51414,0.452901 -2.08047,0.504211 -3.64486,0.23451 -6.86606,-0.919861 -9.306,-3.385047 z"
       id="path6196"
       sodipodi:nodetypes="csssssccccssccc" /><g
       id="g2076"><path
         d="m 26.172876,236.8435 q 0.698497,-0.55033 1.05833,-0.55033 0.359832,0 1.111246,0.69849 0.761998,0.68792 0.941914,1.12183 0.116416,0.27517 0.116416,1.38641 v 1.24883 q 0,1.11125 -0.116416,1.38642 -0.1905,0.41275 -0.920747,1.05833 -0.730248,0.63499 -1.15358,0.63499 h -2.190743 v -4.52965 q 0,-0.85724 -0.127,-1.20649 -0.116416,-0.34925 -0.507998,-0.8255 l 1.396996,-0.97366 q 0.222249,0.16933 0.391582,0.55033 z m 1.037163,0.96308 q -0.306916,0 -0.761998,0.20108 0.03175,0.22225 0.03175,0.67733 v 3.86291 h 0.730248 q 0.148166,0 0.349249,-0.21167 0.211666,-0.22225 0.296332,-0.41275 0.08467,-0.20108 0.08467,-1.06891 v -1.35467 q 0,-0.86783 -0.08467,-1.05832 -0.08467,-0.20109 -0.296332,-0.41275 -0.201083,-0.22225 -0.349249,-0.22225 z"
         id="path1603"
         style="font-size:10.5833px;line-height:1.25;font-family:'Germania One';-inkscape-font-specification:'Germania One';text-align:center;text-anchor:middle;fill:#e5e2df;stroke-width:0.264583" /><path
         d="m 34.205605,240.9604 v 0.381 h -2.561159 q 0,0.635 0.15875,1.00541 0.05292,0.127 0.190499,0.26459 0.137583,0.12699 0.285749,0.12699 0.148166,0 0.370415,-0.25399 0.22225,-0.254 0.349249,-0.61384 l 1.09008,0.77258 q -0.285749,0.52917 -0.878414,0.92075 -0.582081,0.39158 -0.941913,0.39158 -0.359832,0 -1.047747,-0.56091 -0.677331,-0.56092 -0.825497,-0.86783 -0.148167,-0.3175 -0.148167,-1.54516 0,-1.23825 0.148167,-1.54516 0.148166,-0.3175 0.825497,-0.87842 0.687915,-0.56091 1.005413,-0.56091 0.317499,0 0.994831,0.56091 0.687914,0.56092 0.83608,0.87842 0.148167,0.30691 0.148167,1.52399 z m -1.471079,-1.32291 q -0.07408,-0.14817 -0.243416,-0.28575 -0.15875,-0.13758 -0.306916,-0.13758 -0.137583,0 -0.317499,0.28574 -0.179916,0.27517 -0.222249,0.83609 h 1.206496 q -0.03175,-0.56092 -0.116416,-0.6985 z"
         id="path1605"
         style="font-size:10.5833px;line-height:1.25;font-family:'Germania One';-inkscape-font-specification:'Germania One';text-align:center;text-anchor:middle;fill:#e5e2df;stroke-width:0.264583" /><path
         d="m 36.713849,239.23532 v 2.33891 q 0,0.49742 0.338665,0.91017 0.338666,0.41274 0.93133,0.65616 l -1.164162,0.81491 q -0.634998,-0.29633 -1.068914,-0.81491 -0.433915,-0.52916 -0.433915,-1.11125 v -2.79399 h -0.529165 v -0.79374 l 0.529165,-0.127 q -0.02117,-0.51859 -0.127,-0.81492 -0.105833,-0.30691 -0.402165,-0.59266 l 1.164163,-0.81492 q 0.761998,0.60325 0.761998,1.7145 v 0.3175 h 1.185329 v 1.11124 z"
         id="path1607"
         style="font-size:10.5833px;line-height:1.25;font-family:'Germania One';-inkscape-font-specification:'Germania One';text-align:center;text-anchor:middle;fill:#e5e2df;stroke-width:0.264583" /><path
         d="m 42.587591,238.12408 v 4.33915 q 0.0635,0.37041 0.497415,0.65616 l -0.952497,0.81492 q -0.137583,-0.0953 -0.338666,-0.33867 -0.201083,-0.24341 -0.338666,-0.49741 -0.878413,0.85724 -1.227662,0.85724 -0.253999,0 -0.825498,-0.56091 -0.560915,-0.56092 -0.698497,-0.91016 -0.137583,-0.34925 -0.137583,-1.50283 0,-1.16417 0.137583,-1.51341 0.137582,-0.34925 0.698497,-0.91017 0.571499,-0.56091 0.825498,-0.56091 0.370415,0 1.195913,0.76199 l 0.126999,-0.63499 z m -1.471079,1.61924 q -0.07408,-0.13758 -0.306916,-0.27516 -0.222249,-0.14817 -0.338665,-0.14817 -0.116417,0 -0.254,0.13758 -0.126999,0.13758 -0.169332,0.254 -0.137583,0.1905 -0.137583,1.27 0,1.06891 0.137583,1.25941 0.04233,0.10583 0.169332,0.254 0.137583,0.13758 0.254,0.13758 0.116416,0 0.338665,-0.13758 0.232833,-0.14817 0.296333,-0.26458 0.07408,-0.11642 0.08467,-1.23825 0,-1.12183 -0.07408,-1.24883 z"
         id="path1609"
         style="font-size:10.5833px;line-height:1.25;font-family:'Germania One';-inkscape-font-specification:'Germania One';text-align:center;text-anchor:middle;fill:#e5e2df;stroke-width:0.264583" /><path
         d="m 43.667089,238.12408 h 1.396996 v 3.66182 q 0,0.53975 0.126999,0.83608 0.127,0.29633 0.402166,0.51858 l -1.164163,0.81491 q -0.761998,-0.60324 -0.761998,-1.71449 z m 0.719664,-2.21191 q 0.116417,0 0.518582,0.34925 0.402165,0.33866 0.402165,0.46566 0,0.11642 -0.412748,0.46567 -0.402166,0.34924 -0.518582,0.34924 -0.105833,0 -0.507998,-0.33866 -0.402166,-0.34925 -0.402166,-0.46567 0,-0.127 0.402166,-0.47624 0.412748,-0.34925 0.518581,-0.34925 z"
         id="path1611"
         style="font-size:10.5833px;line-height:1.25;font-family:'Germania One';-inkscape-font-specification:'Germania One';text-align:center;text-anchor:middle;fill:#e5e2df;stroke-width:0.264583" /><path
         d="m 45.963666,235.891 h 1.396995 v 5.8949 q 0,0.53975 0.127,0.83608 0.126999,0.29633 0.402165,0.51858 l -1.164163,0.81491 q -0.761997,-0.60324 -0.761997,-1.71449 z"
         id="path1613"
         style="font-size:10.5833px;line-height:1.25;font-family:'Germania One';-inkscape-font-specification:'Germania One';text-align:center;text-anchor:middle;fill:#e5e2df;stroke-width:0.264583" /><path
         d="m 52.144317,242.11398 q 0,0.32808 -0.814914,1.09008 -0.814914,0.75141 -1.21708,0.75141 -0.391582,0 -0.984246,-0.39158 -0.582082,-0.39158 -0.867831,-0.92075 l 1.09008,-0.75141 q 0.529165,0.74083 0.772581,0.74083 0.179916,0 0.444498,-0.17991 0.264583,-0.17992 0.264583,-0.33867 0,-0.0423 -0.253999,-0.17992 -0.254,-0.14816 -0.624415,-0.35983 -0.359832,-0.22225 -0.719664,-0.48683 -0.359833,-0.27517 -0.613832,-0.66675 -0.253999,-0.39158 -0.253999,-0.79375 0,-0.40216 0.719664,-1.01599 0.719665,-0.61383 1.100663,-0.61383 0.391583,0 0.973664,0.39158 0.592665,0.39158 0.878414,0.92075 l -1.09008,0.75141 q -0.529165,-0.74083 -0.772581,-0.74083 -0.126999,0 -0.317499,0.14817 -0.179916,0.13758 -0.179916,0.25399 0,0.11642 0.380999,0.35984 0.391582,0.24341 0.846664,0.50799 0.465665,0.254 0.846664,0.67734 0.391582,0.41274 0.391582,0.84666 z"
         id="path1615"
         style="font-size:10.5833px;line-height:1.25;font-family:'Germania One';-inkscape-font-specification:'Germania One';text-align:center;text-anchor:middle;fill:#e5e2df;stroke-width:0.264583" /><path
         d="m 59.340957,238.12408 v 4.33915 q 0.0635,0.37041 0.497415,0.65616 l -0.952497,0.81492 q -0.137583,-0.0953 -0.338665,-0.33867 -0.201083,-0.24341 -0.338666,-0.49741 -0.878414,0.85724 -1.227663,0.85724 -0.253999,0 -0.825497,-0.56091 -0.560915,-0.56092 -0.698498,-0.91016 -0.137583,-0.34925 -0.137583,-1.50283 0,-1.16417 0.137583,-1.51341 0.137583,-0.34925 0.698498,-0.91017 0.571498,-0.56091 0.825497,-0.56091 0.370416,0 1.195913,0.76199 l 0.127,-0.63499 z m -1.471079,1.61924 q -0.07408,-0.13758 -0.306915,-0.27516 -0.22225,-0.14817 -0.338666,-0.14817 -0.116416,0 -0.253999,0.13758 -0.127,0.13758 -0.169333,0.254 -0.137583,0.1905 -0.137583,1.27 0,1.06891 0.137583,1.25941 0.04233,0.10583 0.169333,0.254 0.137583,0.13758 0.253999,0.13758 0.116416,0 0.338666,-0.13758 0.232832,-0.14817 0.296332,-0.26458 0.07408,-0.11642 0.08467,-1.23825 0,-1.12183 -0.07408,-1.24883 z"
         id="path1617"
         style="font-size:10.5833px;line-height:1.25;font-family:'Germania One';-inkscape-font-specification:'Germania One';text-align:center;text-anchor:middle;fill:#e5e2df;stroke-width:0.264583" /><path
         d="m 62.082034,243.82847 h -1.396996 v -3.65123 q 0,-0.53975 -0.127,-0.83608 -0.126999,-0.29634 -0.402165,-0.51859 l 1.164163,-0.81491 q 0.391582,0.3175 0.582081,0.73025 0.783165,-0.74083 1.100664,-0.74083 0.328082,0 0.973663,0.59266 0.656165,0.58208 0.656165,1.15358 v 2.04258 q 0,0.53975 0.126999,0.83608 0.127,0.29633 0.402166,0.51858 l -1.164163,0.81491 q -0.761998,-0.60324 -0.761998,-1.71449 v -2.34949 q 0,-0.17992 -0.190499,-0.37042 -0.1905,-0.20108 -0.359832,-0.20108 -0.15875,0 -0.603248,0.4445 z"
         id="path1619"
         style="font-size:10.5833px;line-height:1.25;font-family:'Germania One';-inkscape-font-specification:'Germania One';text-align:center;text-anchor:middle;fill:#e5e2df;stroke-width:0.264583" /><path
         d="m 65.754441,239.39407 q 0.08467,-0.26458 0.656165,-0.8255 0.582081,-0.57149 0.857247,-0.57149 0.275166,0 0.941914,0.57149 v -0.51858 q 0,-0.53975 -0.127,-0.82549 -0.126999,-0.28575 -0.402165,-0.51859 l 1.164163,-0.81491 q 0.761997,0.60325 0.761997,1.70391 v 6.23356 h -1.079496 l -0.127,-0.62441 q -0.772581,0.75141 -1.15358,0.75141 -0.253999,0 -0.83608,-0.56091 -0.571498,-0.5715 -0.656165,-0.83608 -0.116416,-0.26458 -0.116416,-1.57691 0,-1.32292 0.116416,-1.5875 z m 2.381243,0.34925 q -0.07408,-0.13758 -0.306916,-0.27516 -0.222249,-0.14817 -0.338666,-0.14817 -0.116416,0 -0.253999,0.13758 -0.126999,0.13758 -0.190499,0.28575 -0.0635,0.14817 -0.0635,1.23825 0,1.07949 0.0635,1.22766 0.0635,0.13758 0.190499,0.28575 0.137583,0.13758 0.243416,0.13758 0.116416,0 0.338666,-0.13758 0.232832,-0.14817 0.306915,-0.254 0.0635,-0.14817 0.08467,-0.85725 v -0.39158 q 0,-1.12183 -0.07408,-1.24883 z"
         id="path1621"
         style="font-size:10.5833px;line-height:1.25;font-family:'Germania One';-inkscape-font-specification:'Germania One';text-align:center;text-anchor:middle;fill:#e5e2df;stroke-width:0.264583" /><path
         d="m 74.65499,243.82847 h -1.396996 v -3.65123 q 0,-0.53975 -0.137583,-0.83608 -0.126999,-0.30692 -0.391582,-0.52917 l 1.164163,-0.81491 q 0.380999,0.3175 0.582082,0.74083 0.783164,-0.74083 1.100663,-0.74083 0.211666,0 0.645581,0.39158 0.433915,0.39158 0.507998,0.85725 l -1.132413,0.81491 q -0.01058,-0.254 -0.126999,-0.49742 -0.105833,-0.24341 -0.1905,-0.24341 -0.179916,0 -0.624414,0.4445 z"
         id="path1623"
         style="font-size:10.5833px;line-height:1.25;font-family:'Germania One';-inkscape-font-specification:'Germania One';text-align:center;text-anchor:middle;fill:#e5e2df;stroke-width:0.264583" /><path
         d="m 80.899131,240.9604 v 0.381 h -2.561159 q 0,0.635 0.15875,1.00541 0.05292,0.127 0.190499,0.26459 0.137583,0.12699 0.285749,0.12699 0.148166,0 0.370416,-0.25399 0.222249,-0.254 0.349249,-0.61384 l 1.090079,0.77258 q -0.285749,0.52917 -0.878413,0.92075 -0.582082,0.39158 -0.941914,0.39158 -0.359832,0 -1.047747,-0.56091 -0.677331,-0.56092 -0.825497,-0.86783 -0.148166,-0.3175 -0.148166,-1.54516 0,-1.23825 0.148166,-1.54516 0.148166,-0.3175 0.825497,-0.87842 0.687915,-0.56091 1.005414,-0.56091 0.317499,0 0.99483,0.56091 0.687914,0.56092 0.836081,0.87842 0.148166,0.30691 0.148166,1.52399 z m -1.471079,-1.32291 q -0.07408,-0.14817 -0.243416,-0.28575 -0.158749,-0.13758 -0.306915,-0.13758 -0.137583,0 -0.317499,0.28574 -0.179917,0.27517 -0.22225,0.83609 h 1.206496 q -0.03175,-0.56092 -0.116416,-0.6985 z"
         id="path1625"
         style="font-size:10.5833px;line-height:1.25;font-family:'Germania One';-inkscape-font-specification:'Germania One';text-align:center;text-anchor:middle;fill:#e5e2df;stroke-width:0.264583" /><path
         d="m 84.127038,239.72215 q -0.07408,-0.127 -0.296332,-0.26458 -0.222249,-0.13758 -0.338666,-0.13758 -0.116416,0 -0.253999,0.13758 -0.127,0.13758 -0.169333,0.254 -0.08467,0.16933 -0.08467,1.05833 0,0.889 0.08467,1.04775 0.04233,0.10583 0.169333,0.254 0.137583,0.13758 0.253999,0.13758 0.116417,0 0.338666,-0.13758 0.232832,-0.14817 0.306915,-0.26459 0.07408,-0.127 0.07408,-1.03716 0,-0.92075 -0.08467,-1.04775 z m 1.460496,-1.59807 v 5.35515 q 0,1.35466 -0.127,1.60866 -0.116416,0.26458 -0.846664,0.82549 -0.730248,0.56092 -1.100663,0.56092 -0.359832,0 -0.910164,-0.37042 -0.550332,-0.35983 -0.825497,-0.83608 l 1.09008,-0.75141 0.105833,0.13758 q 0.391582,0.49742 0.539748,0.49742 0.158749,0 0.349249,-0.13759 0.201082,-0.13758 0.264582,-0.29633 0.07408,-0.14816 0.07408,-1.29116 l 0.03175,-0.41275 q -0.719664,0.51858 -0.984247,0.51858 -0.253999,0 -0.814914,-0.56091 -0.560915,-0.56092 -0.677331,-0.83608 -0.116416,-0.27517 -0.116416,-1.36525 0,-1.09008 0.116416,-1.36524 0.116416,-0.28575 0.677331,-0.84667 0.560915,-0.56091 0.857248,-0.56091 0.296332,0 1.132413,0.67733 l 0.126999,-0.55033 z"
         id="path1627"
         style="font-size:10.5833px;line-height:1.25;font-family:'Germania One';-inkscape-font-specification:'Germania One';text-align:center;text-anchor:middle;fill:#e5e2df;stroke-width:0.264583" /><path
         d="m 86.381279,238.12408 h 1.396995 v 3.66182 q 0,0.53975 0.127,0.83608 0.126999,0.29633 0.402165,0.51858 l -1.164163,0.81491 q -0.761997,-0.60324 -0.761997,-1.71449 z m 0.719664,-2.21191 q 0.116416,0 0.518582,0.34925 0.402165,0.33866 0.402165,0.46566 0,0.11642 -0.412749,0.46567 -0.402165,0.34924 -0.518581,0.34924 -0.105833,0 -0.507999,-0.33866 -0.402165,-0.34925 -0.402165,-0.46567 0,-0.127 0.402165,-0.47624 0.412749,-0.34925 0.518582,-0.34925 z"
         id="path1629"
         style="font-size:10.5833px;line-height:1.25;font-family:'Germania One';-inkscape-font-specification:'Germania One';text-align:center;text-anchor:middle;fill:#e5e2df;stroke-width:0.264583" /><path
         d="m 92.403178,242.11398 q 0,0.32808 -0.814914,1.09008 -0.814914,0.75141 -1.217079,0.75141 -0.391582,0 -0.984247,-0.39158 -0.582081,-0.39158 -0.86783,-0.92075 l 1.090079,-0.75141 q 0.529165,0.74083 0.772581,0.74083 0.179916,0 0.444499,-0.17991 0.264582,-0.17992 0.264582,-0.33867 0,-0.0423 -0.253999,-0.17992 -0.253999,-0.14816 -0.624415,-0.35983 -0.359832,-0.22225 -0.719664,-0.48683 -0.359832,-0.27517 -0.613831,-0.66675 -0.253999,-0.39158 -0.253999,-0.79375 0,-0.40216 0.719664,-1.01599 0.719664,-0.61383 1.100663,-0.61383 0.391582,0 0.973664,0.39158 0.592664,0.39158 0.878413,0.92075 l -1.090079,0.75141 q -0.529165,-0.74083 -0.772581,-0.74083 -0.127,0 -0.317499,0.14817 -0.179916,0.13758 -0.179916,0.25399 0,0.11642 0.380998,0.35984 0.391583,0.24341 0.846664,0.50799 0.465666,0.254 0.846664,0.67734 0.391582,0.41274 0.391582,0.84666 z"
         id="path1631"
         style="font-size:10.5833px;line-height:1.25;font-family:'Germania One';-inkscape-font-specification:'Germania One';text-align:center;text-anchor:middle;fill:#e5e2df;stroke-width:0.264583" /><path
         d="m 94.699747,239.23532 v 2.33891 q 0,0.49742 0.338666,0.91017 0.338666,0.41274 0.93133,0.65616 l -1.164163,0.81491 q -0.634998,-0.29633 -1.068913,-0.81491 -0.433915,-0.52916 -0.433915,-1.11125 v -2.79399 h -0.529165 v -0.79374 l 0.529165,-0.127 q -0.02117,-0.51859 -0.127,-0.81492 -0.105833,-0.30691 -0.402165,-0.59266 l 1.164163,-0.81492 q 0.761997,0.60325 0.761997,1.7145 v 0.3175 h 1.18533 v 1.11124 z"
         id="path1633"
         style="font-size:10.5833px;line-height:1.25;font-family:'Germania One';-inkscape-font-specification:'Germania One';text-align:center;text-anchor:middle;fill:#e5e2df;stroke-width:0.264583" /><path
         d="m 98.319247,243.82847 h -1.396996 v -3.65123 q 0,-0.53975 -0.137583,-0.83608 -0.126999,-0.30692 -0.391582,-0.52917 l 1.164163,-0.81491 q 0.380999,0.3175 0.582082,0.74083 0.783164,-0.74083 1.100663,-0.74083 0.211666,0 0.645581,0.39158 0.433915,0.39158 0.507995,0.85725 l -1.13241,0.81491 q -0.01058,-0.254 -0.126999,-0.49742 -0.105833,-0.24341 -0.1905,-0.24341 -0.179916,0 -0.624414,0.4445 z"
         id="path1635"
         style="font-size:10.5833px;line-height:1.25;font-family:'Germania One';-inkscape-font-specification:'Germania One';text-align:center;text-anchor:middle;fill:#e5e2df;stroke-width:0.264583" /><path
         d="m 104.62689,238.12408 v 4.33915 q 0.0635,0.37041 0.49741,0.65616 l -0.95249,0.81492 q -0.13759,-0.0953 -0.33867,-0.33867 -0.20108,-0.24341 -0.33867,-0.49741 -0.87841,0.85724 -1.22766,0.85724 -0.254,0 -0.8255,-0.56091 -0.56091,-0.56092 -0.69849,-0.91016 -0.13759,-0.34925 -0.13759,-1.50283 0,-1.16417 0.13759,-1.51341 0.13758,-0.34925 0.69849,-0.91017 0.5715,-0.56091 0.8255,-0.56091 0.37042,0 1.19591,0.76199 l 0.127,-0.63499 z m -1.47108,1.61924 q -0.0741,-0.13758 -0.30692,-0.27516 -0.22225,-0.14817 -0.33866,-0.14817 -0.11642,0 -0.254,0.13758 -0.127,0.13758 -0.16933,0.254 -0.13759,0.1905 -0.13759,1.27 0,1.06891 0.13759,1.25941 0.0423,0.10583 0.16933,0.254 0.13758,0.13758 0.254,0.13758 0.11641,0 0.33866,-0.13758 0.23284,-0.14817 0.29634,-0.26458 0.0741,-0.11642 0.0847,-1.23825 0,-1.12183 -0.0741,-1.24883 z"
         id="path1637"
         style="font-size:10.5833px;line-height:1.25;font-family:'Germania One';-inkscape-font-specification:'Germania One';text-align:center;text-anchor:middle;fill:#e5e2df;stroke-width:0.264583" /><path
         d="m 107.36797,239.23532 v 2.33891 q 0,0.49742 0.33866,0.91017 0.33867,0.41274 0.93133,0.65616 l -1.16416,0.81491 q -0.635,-0.29633 -1.06891,-0.81491 -0.43392,-0.52916 -0.43392,-1.11125 v -2.79399 h -0.52916 v -0.79374 l 0.52916,-0.127 q -0.0212,-0.51859 -0.127,-0.81492 -0.10583,-0.30691 -0.40216,-0.59266 l 1.16416,-0.81492 q 0.762,0.60325 0.762,1.7145 v 0.3175 h 1.18533 v 1.11124 z"
         id="path1639"
         style="font-size:10.5833px;line-height:1.25;font-family:'Germania One';-inkscape-font-specification:'Germania One';text-align:center;text-anchor:middle;fill:#e5e2df;stroke-width:0.264583" /><path
         d="m 109.32588,238.12408 h 1.397 v 3.66182 q 0,0.53975 0.127,0.83608 0.127,0.29633 0.40216,0.51858 l -1.16416,0.81491 q -0.762,-0.60324 -0.762,-1.71449 z m 0.71967,-2.21191 q 0.11641,0 0.51858,0.34925 0.40216,0.33866 0.40216,0.46566 0,0.11642 -0.41275,0.46567 -0.40216,0.34924 -0.51858,0.34924 -0.10583,0 -0.508,-0.33866 -0.40216,-0.34925 -0.40216,-0.46567 0,-0.127 0.40216,-0.47624 0.41275,-0.34925 0.51859,-0.34925 z"
         id="path1641"
         style="font-size:10.5833px;line-height:1.25;font-family:'Germania One';-inkscape-font-specification:'Germania One';text-align:center;text-anchor:middle;fill:#e5e2df;stroke-width:0.264583" /><path
         d="m 113.28404,242.57965 q 0.16933,0.15874 0.26458,0.15874 0.0953,0 0.254,-0.15874 0.16933,-0.15875 0.24342,-0.28575 0.13758,-0.23284 0.13758,-1.31233 0,-1.0795 -0.13758,-1.32292 -0.0741,-0.127 -0.24342,-0.28574 -0.15875,-0.15875 -0.254,-0.15875 -0.0952,0 -0.26458,0.15875 -0.15875,0.15874 -0.23283,0.28574 -0.13759,0.23284 -0.13759,1.31233 0,1.0795 0.13759,1.32292 0.0741,0.127 0.23283,0.28575 z m 1.21708,0.85724 q -0.64558,0.51858 -0.9525,0.51858 -0.30692,0 -0.96308,-0.51858 -0.64558,-0.51858 -0.79375,-0.77258 -0.22225,-0.39158 -0.22225,-1.69333 0,-1.30174 0.22225,-1.68274 0.14817,-0.254 0.79375,-0.77258 0.65616,-0.51858 0.96308,-0.51858 0.30692,0 0.9525,0.51858 0.65616,0.51858 0.80433,0.77258 0.22225,0.381 0.22225,1.68274 0,1.30175 -0.22225,1.69333 -0.14817,0.254 -0.80433,0.77258 z"
         id="path1643"
         style="font-size:10.5833px;line-height:1.25;font-family:'Germania One';-inkscape-font-specification:'Germania One';text-align:center;text-anchor:middle;fill:#e5e2df;stroke-width:0.264583" /><path
         d="m 117.93011,243.82847 h -1.397 v -3.65123 q 0,-0.53975 -0.127,-0.83608 -0.127,-0.29634 -0.40216,-0.51859 l 1.16416,-0.81491 q 0.39158,0.3175 0.58208,0.73025 0.78317,-0.74083 1.10067,-0.74083 0.32808,0 0.97366,0.59266 0.65616,0.58208 0.65616,1.15358 v 2.04258 q 0,0.53975 0.127,0.83608 0.127,0.29633 0.40217,0.51858 l -1.16416,0.81491 q -0.762,-0.60324 -0.762,-1.71449 v -2.34949 q 0,-0.17992 -0.1905,-0.37042 -0.1905,-0.20108 -0.35983,-0.20108 -0.15875,0 -0.60325,0.4445 z"
         id="path1645"
         style="font-size:10.5833px;line-height:1.25;font-family:'Germania One';-inkscape-font-specification:'Germania One';text-align:center;text-anchor:middle;fill:#e5e2df;stroke-width:0.264583" /><path
         d="m 128.15358,238.12408 v 4.33915 q 0.0635,0.37041 0.49742,0.65616 l -0.9525,0.81492 q -0.13758,-0.0953 -0.33866,-0.33867 -0.20109,-0.24341 -0.33867,-0.49741 -0.87841,0.85724 -1.22766,0.85724 -0.254,0 -0.8255,-0.56091 -0.56092,-0.56092 -0.6985,-0.91016 -0.13758,-0.34925 -0.13758,-1.50283 0,-1.16417 0.13758,-1.51341 0.13758,-0.34925 0.6985,-0.91017 0.5715,-0.56091 0.8255,-0.56091 0.37041,0 1.19591,0.76199 l 0.127,-0.63499 z m -1.47108,1.61924 q -0.0741,-0.13758 -0.30691,-0.27516 -0.22225,-0.14817 -0.33867,-0.14817 -0.11641,0 -0.254,0.13758 -0.127,0.13758 -0.16933,0.254 -0.13758,0.1905 -0.13758,1.27 0,1.06891 0.13758,1.25941 0.0423,0.10583 0.16933,0.254 0.13759,0.13758 0.254,0.13758 0.11642,0 0.33867,-0.13758 0.23283,-0.14817 0.29633,-0.26458 0.0741,-0.11642 0.0847,-1.23825 0,-1.12183 -0.0741,-1.24883 z"
         id="path1647"
         style="font-size:10.5833px;line-height:1.25;font-family:'Germania One';-inkscape-font-specification:'Germania One';text-align:center;text-anchor:middle;fill:#e5e2df;stroke-width:0.264583" /><path
         d="m 130.89466,239.23532 v 2.33891 q 0,0.49742 0.33866,0.91017 0.33867,0.41274 0.93133,0.65616 l -1.16416,0.81491 q -0.635,-0.29633 -1.06891,-0.81491 -0.43392,-0.52916 -0.43392,-1.11125 v -2.79399 h -0.52916 v -0.79374 l 0.52916,-0.127 q -0.0212,-0.51859 -0.127,-0.81492 -0.10583,-0.30691 -0.40216,-0.59266 l 1.16416,-0.81492 q 0.762,0.60325 0.762,1.7145 v 0.3175 h 1.18533 v 1.11124 z"
         id="path1649"
         style="font-size:10.5833px;line-height:1.25;font-family:'Germania One';-inkscape-font-specification:'Germania One';text-align:center;text-anchor:middle;fill:#e5e2df;stroke-width:0.264583" /><path
         d="m 134.06966,239.00249 q 0.11641,0 0.52916,0.34925 0.41275,0.34925 0.41275,0.47625 0,0.11641 -0.41275,0.47625 -0.41275,0.35983 -0.52916,0.35983 -0.11642,0 -0.52917,-0.35983 -0.41275,-0.35984 -0.41275,-0.47625 0,-0.127 0.41275,-0.47625 0.42333,-0.34925 0.52917,-0.34925 z m -0.11642,3.29141 q 0.11642,0 0.52916,0.34924 0.41275,0.34925 0.41275,0.47625 0,0.11642 -0.41275,0.47625 -0.41274,0.35983 -0.52916,0.35983 -0.11642,0 -0.52917,-0.35983 -0.41274,-0.35983 -0.41274,-0.47625 0,-0.127 0.41274,-0.47625 0.42334,-0.34924 0.52917,-0.34924 z"
         id="path1651"
         style="font-size:10.5833px;line-height:1.25;font-family:'Germania One';-inkscape-font-specification:'Germania One';text-align:center;text-anchor:middle;fill:#e5e2df;stroke-width:0.264583" /><path
         d="m 138.75807,243.82847 v -5.77848 q 0,-0.53975 -0.127,-0.82549 -0.127,-0.28575 -0.40217,-0.51859 l 1.16416,-0.81491 q 0.762,0.60325 0.762,1.70391 v 0.96308 q 0.635,-0.56091 0.91017,-0.56091 0.28574,0 0.85724,0.57149 0.58208,0.56092 0.66675,0.8255 0.11642,0.26458 0.11642,1.5875 0,1.31233 -0.11642,1.57691 -0.0847,0.26458 -0.66675,0.83608 -0.5715,0.56091 -0.82549,0.56091 -0.37042,0 -1.18533,-0.77258 l -0.11642,0.64558 z m 1.44991,-1.60866 q 0.0741,0.127 0.29633,0.27517 0.23283,0.13758 0.34925,0.13758 0.11642,0 0.24342,-0.13758 0.13758,-0.13758 0.20108,-0.28575 0.0635,-0.14817 0.0635,-1.22766 0,-1.09008 -0.0635,-1.22767 -0.0635,-0.14816 -0.20108,-0.28574 -0.127,-0.14817 -0.24342,-0.14817 -0.10583,0 -0.33867,0.14817 -0.22224,0.13758 -0.29633,0.24341 -0.0847,0.17992 -0.0847,1.28058 0,1.09008 0.0741,1.22766 z"
         id="path1653"
         style="font-size:10.5833px;line-height:1.25;font-family:'Germania One';-inkscape-font-specification:'Germania One';text-align:center;text-anchor:middle;fill:#fece0b;stroke-width:0.264583;fill-opacity:1" /><path
         d="m 143.39356,235.891 h 1.39699 v 5.8949 q 0,0.53975 0.127,0.83608 0.127,0.29633 0.40217,0.51858 l -1.16417,0.81491 q -0.76199,-0.60324 -0.76199,-1.71449 z"
         id="path1655"
         style="font-size:10.5833px;line-height:1.25;font-family:'Germania One';-inkscape-font-specification:'Germania One';text-align:center;text-anchor:middle;fill:#fece0b;stroke-width:0.264583;fill-opacity:1" /><path
         d="m 147.51046,242.57965 q 0.16934,0.15874 0.26459,0.15874 0.0952,0 0.25399,-0.15874 0.16934,-0.15875 0.24342,-0.28575 0.13758,-0.23284 0.13758,-1.31233 0,-1.0795 -0.13758,-1.32292 -0.0741,-0.127 -0.24342,-0.28574 -0.15874,-0.15875 -0.25399,-0.15875 -0.0952,0 -0.26459,0.15875 -0.15875,0.15874 -0.23283,0.28574 -0.13758,0.23284 -0.13758,1.31233 0,1.0795 0.13758,1.32292 0.0741,0.127 0.23283,0.28575 z m 1.21708,0.85724 q -0.64558,0.51858 -0.95249,0.51858 -0.30692,0 -0.96308,-0.51858 -0.64559,-0.51858 -0.79375,-0.77258 -0.22225,-0.39158 -0.22225,-1.69333 0,-1.30174 0.22225,-1.68274 0.14816,-0.254 0.79375,-0.77258 0.65616,-0.51858 0.96308,-0.51858 0.30691,0 0.95249,0.51858 0.65617,0.51858 0.80433,0.77258 0.22225,0.381 0.22225,1.68274 0,1.30175 -0.22225,1.69333 -0.14816,0.254 -0.80433,0.77258 z"
         id="path1657"
         style="font-size:10.5833px;line-height:1.25;font-family:'Germania One';-inkscape-font-specification:'Germania One';text-align:center;text-anchor:middle;fill:#fece0b;stroke-width:0.264583;fill-opacity:1" /><path
         d="m 152.15653,243.82847 h -1.39699 v -3.65123 q 0,-0.53975 -0.127,-0.83608 -0.127,-0.29634 -0.40217,-0.51859 l 1.16417,-0.81491 q 0.39158,0.3175 0.58208,0.73025 0.78316,-0.74083 1.10066,-0.74083 0.32808,0 0.97367,0.59266 0.65616,0.58208 0.65616,1.15358 v 2.04258 q 0,0.53975 0.127,0.83608 0.127,0.29633 0.40216,0.51858 l -1.16416,0.81491 q -0.762,-0.60324 -0.762,-1.71449 v -2.34949 q 0,-0.17992 -0.1905,-0.37042 -0.19049,-0.20108 -0.35983,-0.20108 -0.15875,0 -0.60325,0.4445 z"
         id="path1659"
         style="font-size:10.5833px;line-height:1.25;font-family:'Germania One';-inkscape-font-specification:'Germania One';text-align:center;text-anchor:middle;fill:#fece0b;stroke-width:0.264583;fill-opacity:1" /><path
         d="m 157.42702,242.57965 q 0.16933,0.15874 0.26458,0.15874 0.0952,0 0.254,-0.15874 0.16933,-0.15875 0.24342,-0.28575 0.13758,-0.23284 0.13758,-1.31233 0,-1.0795 -0.13758,-1.32292 -0.0741,-0.127 -0.24342,-0.28574 -0.15875,-0.15875 -0.254,-0.15875 -0.0952,0 -0.26458,0.15875 -0.15875,0.15874 -0.23283,0.28574 -0.13758,0.23284 -0.13758,1.31233 0,1.0795 0.13758,1.32292 0.0741,0.127 0.23283,0.28575 z m 1.21708,0.85724 q -0.64558,0.51858 -0.9525,0.51858 -0.30691,0 -0.96308,-0.51858 -0.64558,-0.51858 -0.79374,-0.77258 -0.22225,-0.39158 -0.22225,-1.69333 0,-1.30174 0.22225,-1.68274 0.14816,-0.254 0.79374,-0.77258 0.65617,-0.51858 0.96308,-0.51858 0.30692,0 0.9525,0.51858 0.65616,0.51858 0.80433,0.77258 0.22225,0.381 0.22225,1.68274 0,1.30175 -0.22225,1.69333 -0.14817,0.254 -0.80433,0.77258 z"
         id="path1661"
         style="font-size:10.5833px;line-height:1.25;font-family:'Germania One';-inkscape-font-specification:'Germania One';text-align:center;text-anchor:middle;fill:#fece0b;stroke-width:0.264583;fill-opacity:1" /><path
         d="m 160.52793,242.66431 q -0.22225,-0.34925 -0.22225,-1.68274 0,-1.3335 0.22225,-1.69333 0.15875,-0.26458 0.78316,-0.77258 0.62442,-0.51858 0.96308,-0.51858 0.34925,0 0.93133,0.41275 0.59267,0.40216 0.889,0.92074 l -1.09008,0.75142 q -0.13758,-0.254 -0.381,-0.56092 -0.23283,-0.30691 -0.34925,-0.30691 -0.21166,0 -0.48683,0.44449 -0.13758,0.27517 -0.13758,1.32292 0,1.03716 0.13758,1.31233 0.0847,0.13758 0.22225,0.29633 0.13758,0.14816 0.27517,0.14816 0.13758,0 0.35983,-0.24341 0.22225,-0.24342 0.35983,-0.62442 l 1.09008,0.762 q -0.28575,0.52917 -0.87841,0.93133 -0.58208,0.39158 -0.93133,0.39158 -0.34925,0 -0.97367,-0.50799 -0.62441,-0.51859 -0.78316,-0.78317 z"
         id="path1663"
         style="font-size:10.5833px;line-height:1.25;font-family:'Germania One';-inkscape-font-specification:'Germania One';text-align:center;text-anchor:middle;fill:#fece0b;stroke-width:0.264583;fill-opacity:1" /><path
         d="m 168.55007,238.12408 v 4.33915 q 0.0635,0.37041 0.49741,0.65616 l -0.95249,0.81492 q -0.13759,-0.0953 -0.33867,-0.33867 -0.20108,-0.24341 -0.33867,-0.49741 -0.87841,0.85724 -1.22766,0.85724 -0.254,0 -0.8255,-0.56091 -0.56091,-0.56092 -0.69849,-0.91016 -0.13759,-0.34925 -0.13759,-1.50283 0,-1.16417 0.13759,-1.51341 0.13758,-0.34925 0.69849,-0.91017 0.5715,-0.56091 0.8255,-0.56091 0.37042,0 1.19591,0.76199 l 0.127,-0.63499 z m -1.47108,1.61924 q -0.0741,-0.13758 -0.30692,-0.27516 -0.22225,-0.14817 -0.33866,-0.14817 -0.11642,0 -0.254,0.13758 -0.127,0.13758 -0.16933,0.254 -0.13759,0.1905 -0.13759,1.27 0,1.06891 0.13759,1.25941 0.0423,0.10583 0.16933,0.254 0.13758,0.13758 0.254,0.13758 0.11641,0 0.33866,-0.13758 0.23284,-0.14817 0.29634,-0.26458 0.0741,-0.11642 0.0847,-1.23825 0,-1.12183 -0.0741,-1.24883 z"
         id="path1665"
         style="font-size:10.5833px;line-height:1.25;font-family:'Germania One';-inkscape-font-specification:'Germania One';text-align:center;text-anchor:middle;fill:#fece0b;stroke-width:0.264583;fill-opacity:1" /><path
         d="m 171.29114,239.23532 v 2.33891 q 0,0.49742 0.33867,0.91017 0.33866,0.41274 0.93133,0.65616 l -1.16417,0.81491 q -0.63499,-0.29633 -1.06891,-0.81491 -0.43392,-0.52916 -0.43392,-1.11125 v -2.79399 h -0.52916 v -0.79374 l 0.52916,-0.127 q -0.0212,-0.51859 -0.127,-0.81492 -0.10583,-0.30691 -0.40216,-0.59266 l 1.16416,-0.81492 q 0.762,0.60325 0.762,1.7145 v 0.3175 h 1.18533 v 1.11124 z"
         id="path1667"
         style="font-size:10.5833px;line-height:1.25;font-family:'Germania One';-inkscape-font-specification:'Germania One';text-align:center;text-anchor:middle;fill:#fece0b;stroke-width:0.264583;fill-opacity:1" /><path
         d="m 174.91065,243.82847 h -1.397 v -5.77848 q 0,-0.53975 -0.127,-0.82549 -0.127,-0.28575 -0.40216,-0.51859 l 1.16416,-0.81491 q 0.762,0.60325 0.762,1.70391 v 0.98425 q 0.65616,-0.58208 0.95249,-0.58208 0.29634,0 0.94192,0.59266 0.65616,0.58208 0.65616,1.15358 v 2.04258 q 0,0.53975 0.127,0.83608 0.127,0.29633 0.40217,0.51858 l -1.16417,0.81491 q -0.76199,-0.60324 -0.76199,-1.71449 v -2.34949 q 0,-0.17992 -0.1905,-0.37042 -0.1905,-0.20108 -0.35984,-0.20108 -0.15874,0 -0.60324,0.4445 z"
         id="path1669"
         style="font-size:10.5833px;line-height:1.25;font-family:'Germania One';-inkscape-font-specification:'Germania One';text-align:center;text-anchor:middle;fill:#fece0b;stroke-width:0.264583;fill-opacity:1" /><path
         d="m 180.18113,242.57965 q 0.16933,0.15874 0.26458,0.15874 0.0953,0 0.254,-0.15874 0.16933,-0.15875 0.24341,-0.28575 0.13759,-0.23284 0.13759,-1.31233 0,-1.0795 -0.13759,-1.32292 -0.0741,-0.127 -0.24341,-0.28574 -0.15875,-0.15875 -0.254,-0.15875 -0.0952,0 -0.26458,0.15875 -0.15875,0.15874 -0.23284,0.28574 -0.13758,0.23284 -0.13758,1.31233 0,1.0795 0.13758,1.32292 0.0741,0.127 0.23284,0.28575 z m 1.21707,0.85724 q -0.64558,0.51858 -0.95249,0.51858 -0.30692,0 -0.96308,-0.51858 -0.64558,-0.51858 -0.79375,-0.77258 -0.22225,-0.39158 -0.22225,-1.69333 0,-1.30174 0.22225,-1.68274 0.14817,-0.254 0.79375,-0.77258 0.65616,-0.51858 0.96308,-0.51858 0.30691,0 0.95249,0.51858 0.65617,0.51858 0.80434,0.77258 0.22224,0.381 0.22224,1.68274 0,1.30175 -0.22224,1.69333 -0.14817,0.254 -0.80434,0.77258 z"
         id="path1671"
         style="font-size:10.5833px;line-height:1.25;font-family:'Germania One';-inkscape-font-specification:'Germania One';text-align:center;text-anchor:middle;fill:#fece0b;stroke-width:0.264583;fill-opacity:1" /><path
         d="m 183.1127,235.891 h 1.397 v 5.8949 q 0,0.53975 0.127,0.83608 0.127,0.29633 0.40216,0.51858 l -1.16416,0.81491 q -0.762,-0.60324 -0.762,-1.71449 z"
         id="path1673"
         style="font-size:10.5833px;line-height:1.25;font-family:'Germania One';-inkscape-font-specification:'Germania One';text-align:center;text-anchor:middle;fill:#fece0b;stroke-width:0.264583;fill-opacity:1" /><path
         d="m 185.62096,238.12408 h 1.39699 v 3.66182 q 0,0.53975 0.127,0.83608 0.127,0.29633 0.40217,0.51858 l -1.16417,0.81491 q -0.76199,-0.60324 -0.76199,-1.71449 z m 0.71966,-2.21191 q 0.11642,0 0.51858,0.34925 0.40217,0.33866 0.40217,0.46566 0,0.11642 -0.41275,0.46567 -0.40217,0.34924 -0.51858,0.34924 -0.10584,0 -0.508,-0.33866 -0.40217,-0.34925 -0.40217,-0.46567 0,-0.127 0.40217,-0.47624 0.41275,-0.34925 0.51858,-0.34925 z"
         id="path1675"
         style="font-size:10.5833px;line-height:1.25;font-family:'Germania One';-inkscape-font-specification:'Germania One';text-align:center;text-anchor:middle;fill:#fece0b;stroke-width:0.264583;fill-opacity:1" /><path
         d="m 188.08686,242.66431 q -0.22225,-0.34925 -0.22225,-1.68274 0,-1.3335 0.22225,-1.69333 0.15875,-0.26458 0.78316,-0.77258 0.62442,-0.51858 0.96308,-0.51858 0.34925,0 0.93133,0.41275 0.59267,0.40216 0.889,0.92074 l -1.09008,0.75142 q -0.13758,-0.254 -0.381,-0.56092 -0.23283,-0.30691 -0.34925,-0.30691 -0.21166,0 -0.48683,0.44449 -0.13758,0.27517 -0.13758,1.32292 0,1.03716 0.13758,1.31233 0.0847,0.13758 0.22225,0.29633 0.13758,0.14816 0.27517,0.14816 0.13758,0 0.35983,-0.24341 0.22225,-0.24342 0.35983,-0.62442 l 1.09008,0.762 q -0.28575,0.52917 -0.87841,0.93133 -0.58208,0.39158 -0.93133,0.39158 -0.34925,0 -0.97367,-0.50799 -0.62441,-0.51859 -0.78316,-0.78317 z"
         id="path1677"
         style="font-size:10.5833px;line-height:1.25;font-family:'Germania One';-inkscape-font-specification:'Germania One';text-align:center;text-anchor:middle;fill:#fece0b;stroke-width:0.264583;fill-opacity:1" /><path
         d="m 193.29384,242.2939 q 0.11642,0 0.52916,0.34924 0.41275,0.34925 0.41275,0.47625 0,0.11642 -0.41275,0.47625 -0.41274,0.35983 -0.52916,0.35983 -0.11642,0 -0.52917,-0.35983 -0.41274,-0.35983 -0.41274,-0.47625 0,-0.127 0.41274,-0.47625 0.42334,-0.34924 0.52917,-0.34924 z"
         id="path1679"
         style="font-size:10.5833px;line-height:1.25;font-family:'Germania One';-inkscape-font-specification:'Germania One';text-align:center;text-anchor:middle;fill:#fece0b;stroke-width:0.264583;fill-opacity:1" /><path
         d="m 195.35758,242.66431 q -0.22225,-0.34925 -0.22225,-1.68274 0,-1.3335 0.22225,-1.69333 0.15875,-0.26458 0.78317,-0.77258 0.62441,-0.51858 0.96308,-0.51858 0.34924,0 0.93133,0.41275 0.59266,0.40216 0.88899,0.92074 l -1.09008,0.75142 q -0.13758,-0.254 -0.381,-0.56092 -0.23283,-0.30691 -0.34924,-0.30691 -0.21167,0 -0.48684,0.44449 -0.13758,0.27517 -0.13758,1.32292 0,1.03716 0.13758,1.31233 0.0847,0.13758 0.22225,0.29633 0.13759,0.14816 0.27517,0.14816 0.13758,0 0.35983,-0.24341 0.22225,-0.24342 0.35983,-0.62442 l 1.09008,0.762 q -0.28575,0.52917 -0.87841,0.93133 -0.58208,0.39158 -0.93133,0.39158 -0.34925,0 -0.97366,-0.50799 -0.62442,-0.51859 -0.78317,-0.78317 z"
         id="path1681"
         style="font-size:10.5833px;line-height:1.25;font-family:'Germania One';-inkscape-font-specification:'Germania One';text-align:center;text-anchor:middle;fill:#fece0b;stroke-width:0.264583;fill-opacity:1" /><path
         d="m 201.07257,242.57965 q 0.16934,0.15874 0.26459,0.15874 0.0952,0 0.254,-0.15874 0.16933,-0.15875 0.24341,-0.28575 0.13758,-0.23284 0.13758,-1.31233 0,-1.0795 -0.13758,-1.32292 -0.0741,-0.127 -0.24341,-0.28574 -0.15875,-0.15875 -0.254,-0.15875 -0.0953,0 -0.26459,0.15875 -0.15875,0.15874 -0.23283,0.28574 -0.13758,0.23284 -0.13758,1.31233 0,1.0795 0.13758,1.32292 0.0741,0.127 0.23283,0.28575 z m 1.21708,0.85724 q -0.64558,0.51858 -0.95249,0.51858 -0.30692,0 -0.96308,-0.51858 -0.64558,-0.51858 -0.79375,-0.77258 -0.22225,-0.39158 -0.22225,-1.69333 0,-1.30174 0.22225,-1.68274 0.14817,-0.254 0.79375,-0.77258 0.65616,-0.51858 0.96308,-0.51858 0.30691,0 0.95249,0.51858 0.65617,0.51858 0.80433,0.77258 0.22225,0.381 0.22225,1.68274 0,1.30175 -0.22225,1.69333 -0.14816,0.254 -0.80433,0.77258 z"
         id="path1683"
         style="font-size:10.5833px;line-height:1.25;font-family:'Germania One';-inkscape-font-specification:'Germania One';text-align:center;text-anchor:middle;fill:#fece0b;stroke-width:0.264583;fill-opacity:1" /><path
         d="m 208.05755,243.82847 h -1.39699 v -3.93698 q 0,-0.17992 -0.1905,-0.37042 -0.1905,-0.20108 -0.32808,-0.20108 -0.127,0 -0.42333,0.254 v 4.25448 h -1.397 v -3.65123 q 0,-0.53975 -0.127,-0.83608 -0.127,-0.29634 -0.40217,-0.51859 l 1.16417,-0.81491 q 0.34925,0.29633 0.51858,0.60325 0.68791,-0.61383 0.9525,-0.61383 0.15875,0 0.51858,0.23283 0.35983,0.23283 0.65616,0.56091 0.83608,-0.79374 1.15358,-0.79374 0.32808,0 0.97367,0.59266 0.65616,0.58208 0.65616,1.15358 v 2.04258 q 0,0.53975 0.127,0.83608 0.127,0.29633 0.40217,0.51858 l -1.16417,0.81491 q -0.76199,-0.60324 -0.76199,-1.71449 v -2.34949 q 0,-0.17992 -0.1905,-0.37042 -0.1905,-0.20108 -0.3175,-0.20108 -0.11642,0 -0.4445,0.26458 0.0212,0.10583 0.0212,0.15875 z"
         id="path1685"
         style="font-size:10.5833px;line-height:1.25;font-family:'Germania One';-inkscape-font-specification:'Germania One';text-align:center;text-anchor:middle;fill:#fece0b;stroke-width:0.264583;fill-opacity:1" /><path
         d="m 217.05335,236.526 -4.23332,9.9483 q -0.13758,0 -0.58208,-0.23283 -0.4445,-0.22225 -0.58208,-0.40217 l 4.23332,-9.9483 q 0.13758,0 0.58208,0.23283 0.4445,0.22225 0.58208,0.40217 z"
         id="path1687"
         style="font-size:10.5833px;line-height:1.25;font-family:'Germania One';-inkscape-font-specification:'Germania One';text-align:center;text-anchor:middle;fill:#fece0b;stroke-width:0.264583;fill-opacity:1" /><path
         d="m 218.05876,238.12408 h 1.397 v 3.66182 q 0,0.53975 0.127,0.83608 0.127,0.29633 0.40216,0.51858 l -1.16416,0.81491 q -0.762,-0.60324 -0.762,-1.71449 z m 0.71967,-2.21191 q 0.11641,0 0.51858,0.34925 0.40216,0.33866 0.40216,0.46566 0,0.11642 -0.41275,0.46567 -0.40216,0.34924 -0.51858,0.34924 -0.10583,0 -0.508,-0.33866 -0.40216,-0.34925 -0.40216,-0.46567 0,-0.127 0.40216,-0.47624 0.41275,-0.34925 0.51859,-0.34925 z"
         id="path1689"
         style="font-size:10.5833px;line-height:1.25;font-family:'Germania One';-inkscape-font-specification:'Germania One';text-align:center;text-anchor:middle;fill:#fece0b;stroke-width:0.264583;fill-opacity:1" /><path
         d="m 222.78951,239.72215 q -0.0741,-0.127 -0.29634,-0.26458 -0.22225,-0.13758 -0.33866,-0.13758 -0.11642,0 -0.254,0.13758 -0.127,0.13758 -0.16933,0.254 -0.0847,0.16933 -0.0847,1.05833 0,0.889 0.0847,1.04775 0.0423,0.10583 0.16933,0.254 0.13758,0.13758 0.254,0.13758 0.11641,0 0.33866,-0.13758 0.23284,-0.14817 0.30692,-0.26459 0.0741,-0.127 0.0741,-1.03716 0,-0.92075 -0.0847,-1.04775 z m 1.46049,-1.59807 v 5.35515 q 0,1.35466 -0.127,1.60866 -0.11641,0.26458 -0.84666,0.82549 -0.73025,0.56092 -1.10067,0.56092 -0.35983,0 -0.91016,-0.37042 -0.55033,-0.35983 -0.8255,-0.83608 l 1.09008,-0.75141 0.10584,0.13758 q 0.39158,0.49742 0.53974,0.49742 0.15875,0 0.34925,-0.13759 0.20109,-0.13758 0.26459,-0.29633 0.0741,-0.14816 0.0741,-1.29116 l 0.0318,-0.41275 q -0.71967,0.51858 -0.98425,0.51858 -0.254,0 -0.81491,-0.56091 -0.56092,-0.56092 -0.67733,-0.83608 -0.11642,-0.27517 -0.11642,-1.36525 0,-1.09008 0.11642,-1.36524 0.11641,-0.28575 0.67733,-0.84667 0.56091,-0.56091 0.85725,-0.56091 0.29633,0 1.13241,0.67733 l 0.127,-0.55033 z"
         id="path1691"
         style="font-size:10.5833px;line-height:1.25;font-family:'Germania One';-inkscape-font-specification:'Germania One';text-align:center;text-anchor:middle;fill:#fece0b;stroke-width:0.264583;fill-opacity:1" /><path
         d="m 226.70532,243.82847 h -1.39699 v -3.65123 q 0,-0.53975 -0.127,-0.83608 -0.127,-0.29634 -0.40217,-0.51859 l 1.16417,-0.81491 q 0.39158,0.3175 0.58208,0.73025 0.78316,-0.74083 1.10066,-0.74083 0.32808,0 0.97367,0.59266 0.65616,0.58208 0.65616,1.15358 v 2.04258 q 0,0.53975 0.127,0.83608 0.127,0.29633 0.40216,0.51858 l -1.16416,0.81491 q -0.762,-0.60324 -0.762,-1.71449 v -2.34949 q 0,-0.17992 -0.1905,-0.37042 -0.19049,-0.20108 -0.35983,-0.20108 -0.15875,0 -0.60325,0.4445 z"
         id="path1693"
         style="font-size:10.5833px;line-height:1.25;font-family:'Germania One';-inkscape-font-specification:'Germania One';text-align:center;text-anchor:middle;fill:#fece0b;stroke-width:0.264583;fill-opacity:1" /><path
         d="m 230.36714,238.12408 h 1.397 v 3.66182 q 0,0.53975 0.127,0.83608 0.127,0.29633 0.40216,0.51858 l -1.16416,0.81491 q -0.762,-0.60324 -0.762,-1.71449 z m 0.71967,-2.21191 q 0.11641,0 0.51858,0.34925 0.40216,0.33866 0.40216,0.46566 0,0.11642 -0.41275,0.46567 -0.40216,0.34924 -0.51858,0.34924 -0.10583,0 -0.508,-0.33866 -0.40216,-0.34925 -0.40216,-0.46567 0,-0.127 0.40216,-0.47624 0.41275,-0.34925 0.51859,-0.34925 z"
         id="path1695"
         style="font-size:10.5833px;line-height:1.25;font-family:'Germania One';-inkscape-font-specification:'Germania One';text-align:center;text-anchor:middle;fill:#fece0b;stroke-width:0.264583;fill-opacity:1" /><path
         d="m 234.37822,239.23532 v 2.33891 q 0,0.49742 0.33867,0.91017 0.33866,0.41274 0.93133,0.65616 l -1.16417,0.81491 q -0.63499,-0.29633 -1.06891,-0.81491 -0.43391,-0.52916 -0.43391,-1.11125 v -2.79399 h -0.52917 v -0.79374 l 0.52917,-0.127 q -0.0212,-0.51859 -0.127,-0.81492 -0.10584,-0.30691 -0.40217,-0.59266 l 1.16416,-0.81492 q 0.762,0.60325 0.762,1.7145 v 0.3175 h 1.18533 v 1.11124 z"
         id="path1697"
         style="font-size:10.5833px;line-height:1.25;font-family:'Germania One';-inkscape-font-specification:'Germania One';text-align:center;text-anchor:middle;fill:#fece0b;stroke-width:0.264583;fill-opacity:1" /><path
         d="m 240.18846,240.9604 v 0.381 h -2.56116 q 0,0.635 0.15875,1.00541 0.0529,0.127 0.1905,0.26459 0.13758,0.12699 0.28575,0.12699 0.14816,0 0.37041,-0.25399 0.22225,-0.254 0.34925,-0.61384 l 1.09008,0.77258 q -0.28575,0.52917 -0.87841,0.92075 -0.58209,0.39158 -0.94192,0.39158 -0.35983,0 -1.04774,-0.56091 -0.67734,-0.56092 -0.8255,-0.86783 -0.14817,-0.3175 -0.14817,-1.54516 0,-1.23825 0.14817,-1.54516 0.14816,-0.3175 0.8255,-0.87842 0.68791,-0.56091 1.00541,-0.56091 0.3175,0 0.99483,0.56091 0.68791,0.56092 0.83608,0.87842 0.14817,0.30691 0.14817,1.52399 z m -1.47108,-1.32291 q -0.0741,-0.14817 -0.24342,-0.28575 -0.15875,-0.13758 -0.30691,-0.13758 -0.13759,0 -0.3175,0.28574 -0.17992,0.27517 -0.22225,0.83609 h 1.20649 q -0.0317,-0.56092 -0.11641,-0.6985 z"
         id="path1699"
         style="font-size:10.5833px;line-height:1.25;font-family:'Germania One';-inkscape-font-specification:'Germania One';text-align:center;text-anchor:middle;fill:#fece0b;stroke-width:0.264583;fill-opacity:1" /></g><text
       xml:space="preserve"
       style="font-style:normal;font-variant:normal;font-weight:normal;font-stretch:normal;font-size:25.4px;line-height:1.25;font-family:'Germania One';-inkscape-font-specification:'Germania One';text-align:center;text-anchor:middle;fill:#e5e2df;fill-opacity:1;stroke-width:0.264583"
       x="132.44513"
       y="191.07649"
       id="text7040"><tspan
         sodipodi:role="line"
         style="font-style:normal;font-variant:normal;font-weight:normal;font-stretch:normal;font-size:25.4px;font-family:'Germania One';-inkscape-font-specification:'Germania One';text-align:center;text-anchor:middle;fill:#e5e2df;fill-opacity:1;stroke-width:0.264583"
         x="132.44513"
         y="191.07649"
         id="tspan7038">Retreat - June 22-23</tspan></text><text
       xml:space="preserve"
       style="font-size:25.4px;line-height:1.25;font-family:Thadscript;-inkscape-font-specification:Thadscript;fill:#fece0b;fill-opacity:1;stroke-width:0.264584"
       x="28.94009"
       y="81.762024"
       id="text768"><tspan
         sodipodi:role="line"
         style="font-style:normal;font-variant:normal;font-weight:normal;font-stretch:normal;font-size:25.4px;font-family:'New Rocker';-inkscape-font-specification:'New Rocker';fill:#fece0b;fill-opacity:1;stroke-width:0.264584"
         x="28.94009"
         y="81.762024"
         id="tspan1587">NOW!</tspan></text><text
       xml:space="preserve"
       style="font-style:normal;font-variant:normal;font-weight:normal;font-stretch:normal;font-size:12.7px;line-height:1.25;font-family:'Germania One';-inkscape-font-specification:'Germania One';text-align:center;text-anchor:middle;fill:#e5e2df;fill-opacity:1;stroke-width:0.264583"
       x="132.44513"
       y="208.87364"
       id="text1591"><tspan
         sodipodi:role="line"
         style="font-style:normal;font-variant:normal;font-weight:normal;font-stretch:normal;font-size:12.7px;font-family:'Germania One';-inkscape-font-specification:'Germania One';text-align:center;text-anchor:middle;fill:#e5e2df;fill-opacity:1;stroke-width:0.264583"
         x="132.44513"
         y="208.87364"
         id="tspan1589">Adoration, Healing Prayer, Speakers,</tspan><tspan
         sodipodi:role="line"
         style="font-style:normal;font-variant:normal;font-weight:normal;font-stretch:normal;font-size:12.7px;font-family:'Germania One';-inkscape-font-specification:'Germania One';text-align:center;text-anchor:middle;fill:#e5e2df;fill-opacity:1;stroke-width:0.264583"
         x="132.44513"
         y="224.74864"
         id="tspan1593">Holy Mass, Hiking + More</tspan></text><text
       xml:space="preserve"
       style="font-size:12.7px;line-height:1.25;font-family:Thadscript;-inkscape-font-specification:Thadscript;text-align:end;text-anchor:end;fill:#f04222;fill-opacity:1;stroke-width:0.264584"
       x="113.17175"
       y="16.674711"
       id="text2082"><tspan
         sodipodi:role="line"
         style="font-style:normal;font-variant:normal;font-weight:normal;font-stretch:normal;font-size:12.7px;font-family:'New Rocker';-inkscape-font-specification:'New Rocker';text-align:end;text-anchor:end;fill:#f04222;fill-opacity:1;stroke-width:0.264584"
         x="113.17175"
         y="16.674711"
         id="tspan2086">Young  adults 18-38</tspan></text><text
       xml:space="preserve"
       style="font-size:25.4px;line-height:1.25;font-family:Thadscript;-inkscape-font-specification:Thadscript;fill:#f6821d;fill-opacity:1;stroke-width:0.264584"
       x="15.171774"
       y="47.141918"
       id="text2310"><tspan
         sodipodi:role="line"
         style="font-style:normal;font-variant:normal;font-weight:normal;font-stretch:normal;font-size:25.4px;font-family:'New Rocker';-inkscape-font-specification:'New Rocker';fill:#f6821d;fill-opacity:1;stroke-width:0.264584"
         x="15.171774"
         y="47.141918"
         id="tspan2308">Sign up</tspan></text></g></svg>
