<?xml version="1.0" encoding="UTF-8" standalone="no"?>
<!-- Created with Inkscape (http://www.inkscape.org/) -->

<svg
   width="1000"
   height="1000"
   viewBox="0 0 1000 1000"
   version="1.1"
   id="svg291"
   xml:space="preserve"
   inkscape:version="1.2.2 (b0a8486541, 2022-12-01)"
   sodipodi:docname="urbanpilgrimage.svg"
   inkscape:export-filename="urbanpilgrimage.jpg"
   inkscape:export-xdpi="103.68"
   inkscape:export-ydpi="103.68"
   xmlns:inkscape="http://www.inkscape.org/namespaces/inkscape"
   xmlns:sodipodi="http://sodipodi.sourceforge.net/DTD/sodipodi-0.dtd"
   xmlns:xlink="http://www.w3.org/1999/xlink"
   xmlns="http://www.w3.org/2000/svg"
   xmlns:svg="http://www.w3.org/2000/svg"><sodipodi:namedview
     id="namedview293"
     pagecolor="#ffffff"
     bordercolor="#666666"
     borderopacity="1.0"
     inkscape:showpageshadow="2"
     inkscape:pageopacity="0.0"
     inkscape:pagecheckerboard="0"
     inkscape:deskcolor="#d1d1d1"
     inkscape:document-units="px"
     showgrid="false"
     inkscape:zoom="0.5946522"
     inkscape:cx="443.95699"
     inkscape:cy="464.97768"
     inkscape:window-width="1612"
     inkscape:window-height="1040"
     inkscape:window-x="10"
     inkscape:window-y="30"
     inkscape:window-maximized="1"
     inkscape:current-layer="layer1" /><defs
     id="defs288"><marker
       style="overflow:visible"
       id="marker38327"
       refX="0"
       refY="0"
       orient="auto-start-reverse"
       inkscape:stockid="Arrow5"
       markerWidth="3.8870001"
       markerHeight="4.3637118"
       viewBox="0 0 5.8874262 6.6094758"
       inkscape:isstock="true"
       inkscape:collect="always"
       preserveAspectRatio="xMidYMid"><path
         transform="scale(0.5)"
         style="fill:context-stroke;fill-rule:evenodd;stroke:context-stroke;stroke-width:1pt"
         d="m 6,0 c -3,1 -7,3 -9,5 0,0 0,-4 2,-5 -2,-1 -2,-5 -2,-5 2,2 6,4 9,5 z"
         id="path38325" /></marker><rect
       x="324.75815"
       y="328.29213"
       width="449.06815"
       height="235.49426"
       id="rect1228" /><filter
       inkscape:collect="always"
       style="color-interpolation-filters:sRGB"
       id="filter11026"
       x="-0.076242836"
       y="-0.27685699"
       width="1.1524857"
       height="1.553714"><feGaussianBlur
         inkscape:collect="always"
         stdDeviation="26.972881"
         id="feGaussianBlur11028" /></filter></defs><g
     inkscape:label="Layer 1"
     inkscape:groupmode="layer"
     id="layer1"><image
       width="1726.3441"
       height="1150.896"
       preserveAspectRatio="none"
       xlink:href="la-solenne-processione-del-corpus-domini_002000_03-b551040d95.jpg"
       id="image420"
       x="-1327.865"
       y="-59.907448"
       style="stroke-width:0.229893"
       transform="matrix(-0.99774836,-0.0670687,-0.0670687,0.99774836,0,0)" /><path
       id="rect11033"
       style="vector-effect:non-scaling-stroke;fill:#ede7ca;stroke:#ebe7cc;stroke-width:1.23029;stroke-linecap:square;-inkscape-stroke:hairline;paint-order:markers stroke fill;filter:url(#filter11026);stop-color:#000000;fill-opacity:0.69338167"
       transform="matrix(0.64776326,0,0,1.0199133,-170.66817,-322.41368)"
       d="m 556.82883,372.18535 412.9488,-89.11931 766.85017,244.70743 -34.3588,268.87137 -359.9148,-1.19551 -53.8214,73.25931 -552.93587,14.01418 -44.43121,-140.25887 -181.81644,-1.24563 -175.25715,-74.30287 z"
       sodipodi:nodetypes="ccccccccccc" /><g
       id="rect11024"
       style="fill:#f1ead5;fill-opacity:1;stroke-width:0.874868;filter:url(#filter11026)"
       transform="matrix(1.306506,0,0,1.1109339,-135.48427,-150.82479)"><path
         style="color:#000000;vector-effect:non-scaling-stroke;fill:#f1ead5;fill-opacity:1;stroke-width:0.900851;stroke-linecap:square;-inkscape-stroke:hairline;paint-order:markers stroke fill"
         d="m 148.98633,825.7832 v 0.47461 203.66019 H 851.01172 V 825.7832 Z m 0.94922,0.94727 h 700.1289 v 202.23833 h -700.1289 z"
         id="path13524" /><path
         style="color:#000000;vector-effect:non-scaling-stroke;fill:#f1ead5;fill-opacity:1;stroke-width:0.830042;stroke-linecap:square;-inkscape-stroke:hairline;paint-order:markers stroke fill"
         d="M 149.46167,826.25684 778.50012,815.30123 911.07786,1044.5808 62.015597,1049.122 Z"
         id="path13526"
         sodipodi:nodetypes="ccccc" /></g><text
       xml:space="preserve"
       style="font-style:normal;font-variant:normal;font-weight:normal;font-stretch:normal;font-size:104px;line-height:1;font-family:Bokor;-inkscape-font-specification:Bokor;text-align:start;text-anchor:start"
       x="331.10812"
       y="223.9702"
       id="text1140"><tspan
         sodipodi:role="line"
         x="331.10812"
         y="223.9702"
         id="tspan1142"
         style="font-style:normal;font-variant:normal;font-weight:bold;font-stretch:normal;font-size:104px;font-family:'New Rocker';-inkscape-font-specification:'New Rocker Bold';text-align:start;text-anchor:start">Urban</tspan><tspan
         sodipodi:role="line"
         x="331.10812"
         y="337.75201"
         id="tspan1196"
         style="font-style:normal;font-variant:normal;font-weight:bold;font-stretch:normal;font-size:104px;font-family:'New Rocker';-inkscape-font-specification:'New Rocker Bold';text-align:start;text-anchor:start">Pilgrimage</tspan></text><text
       xml:space="preserve"
       style="font-style:normal;font-variant:normal;font-weight:normal;font-stretch:normal;font-size:24px;line-height:1.25;font-family:Lexend;-inkscape-font-specification:Lexend"
       x="318.83582"
       y="343.59473"
       id="text1212"><tspan
         sodipodi:role="line"
         x="318.83582"
         y="343.59473"
         id="tspan1214" /></text><text
       xml:space="preserve"
       style="font-style:italic;font-variant:normal;font-weight:normal;font-stretch:normal;font-size:24px;line-height:1.25;font-family:Almendra;-inkscape-font-specification:'Almendra Italic'"
       x="310.44003"
       y="119.53374"
       id="text1220"><tspan
         sodipodi:role="line"
         x="310.44003"
         y="119.53374"
         id="tspan1218">Join us for an</tspan></text><text
       xml:space="preserve"
       id="text1226"
       style="font-style:normal;font-variant:normal;font-weight:normal;font-stretch:normal;font-size:30px;line-height:1.25;font-family:Asul;-inkscape-font-specification:Asul;text-align:center;white-space:pre;shape-inside:url(#rect1228);display:inline"
       x="206.53201"
       y="0"
       transform="translate(-49.427,61.554288)"><tspan
         x="343.98702"
         y="355.5137"
         id="tspan38885">as we walk the streets between </tspan><tspan
         x="406.38699"
         y="393.0137"
         id="tspan38887">several local parishes 
</tspan><tspan
         x="343.88202"
         y="430.5137"
         id="tspan38889">to pray in conjunction with the </tspan><tspan
         x="325.012"
         y="468.0137"
         id="tspan38893"><tspan
           style="font-weight:bold;-inkscape-font-specification:'Asul Bold'"
           id="tspan38891">National Eucharistic Congress!</tspan></tspan></text><text
       xml:space="preserve"
       style="font-style:normal;font-variant:normal;font-weight:normal;font-stretch:normal;font-size:36px;line-height:1.25;font-family:Asul;-inkscape-font-specification:Asul;text-align:center;text-anchor:middle"
       x="499.616"
       y="826.31873"
       id="text10960"><tspan
         sodipodi:role="line"
         x="499.616"
         y="826.31873"
         id="tspan10962"
         style="font-style:normal;font-variant:normal;font-weight:normal;font-stretch:normal;font-size:36px;font-family:Asul;-inkscape-font-specification:Asul;text-align:center;text-anchor:middle">Meet at 1pm at Epiphany Catholic Church</tspan><tspan
         sodipodi:role="line"
         x="499.616"
         y="871.31873"
         style="font-style:normal;font-variant:normal;font-weight:normal;font-stretch:normal;font-size:36px;font-family:Asul;-inkscape-font-specification:Asul;text-align:center;text-anchor:middle"
         id="tspan10970">to carpool over to St. Mary's in Bloomington.</tspan><tspan
         sodipodi:role="line"
         x="499.61597"
         y="916.31873"
         id="tspan10966"
         style="font-style:normal;font-variant:normal;font-weight:normal;font-stretch:normal;font-size:36px;font-family:Asul;-inkscape-font-specification:Asul;text-align:center;text-anchor:middle">Estimated end time will be 5PM at Epiphany.</tspan><tspan
         sodipodi:role="line"
         x="499.616"
         y="961.31873"
         style="font-style:normal;font-variant:normal;font-weight:normal;font-stretch:normal;font-size:36px;font-family:Asul;-inkscape-font-specification:Asul;text-align:center;text-anchor:middle"
         id="tspan13519">Please direct questions to blonocatholic@gmail.com</tspan></text><text
       xml:space="preserve"
       style="font-style:normal;font-variant:normal;font-weight:normal;font-stretch:normal;font-size:56px;line-height:1;font-family:Bokor;-inkscape-font-specification:Bokor;text-align:center;text-anchor:middle"
       x="840.32111"
       y="419.90045"
       id="text13581"><tspan
         sodipodi:role="line"
         x="840.32111"
         y="419.90045"
         id="tspan13579"
         style="font-style:normal;font-variant:normal;font-weight:bold;font-stretch:normal;font-size:56px;font-family:'New Rocker';-inkscape-font-specification:'New Rocker Bold'">July 20</tspan></text><g
       id="g31638"
       transform="matrix(1.6767499,0,0,1.6771636,-188.53541,1038.4795)"
       style="stroke-width:2.98159;stroke-dasharray:none"><path
         d="M 651.27773,-475.60885 351.37648,-592.07905"
         style="fill:none;fill-opacity:1;stroke:#999999;stroke-width:2.98159;stroke-dasharray:5.96318, 5.96318;stroke-dashoffset:0;stroke-opacity:1"
         id="path38053"
         sodipodi:nodetypes="cc" /><path
         style="fill:none;fill-opacity:1;stroke:#333333;stroke-width:2.98159;stroke-dasharray:5.96318, 5.96318;stroke-dashoffset:0;stroke-opacity:1;marker-start:url(#marker38327)"
         d="m 331.04451,-588.56518 -33.49613,7.508 -38.21688,12.07507 -27.06393,60.19304 -26.75587,60.14995 28.58509,-2.4046 28.65124,-2.41903 -12.03096,27.86704 -12.1565,27.90255"
         id="path2794"
         sodipodi:nodetypes="ccccccccc" /><path
         style="fill:#e6e6e6;fill-opacity:1;stroke-width:2.98159;stroke-dasharray:none"
         d="m 664.36949,-485.33881 c -0.008,0.14245 0.0265,0.22239 0.071,0.17737 0.0151,-0.0624 -0.0472,-0.11826 -0.071,-0.17737 z"
         id="path2798"
         inkscape:transform-center-x="-61.361468"
         inkscape:transform-center-y="-18.883118" /><path
         style="fill:#e6e6e6;fill-opacity:1;stroke-width:2.98159;stroke-dasharray:none"
         d="m 664.85663,-484.06839 c -0.0431,-0.10794 -0.0752,-0.0759 -0.0816,0.0816 -0.008,0.14245 0.0265,0.22239 0.0711,0.17756 0.045,-0.045 0.0499,-0.16153 0.0113,-0.25916 z"
         id="path2796"
         inkscape:transform-center-x="-61.47338"
         inkscape:transform-center-y="-18.544543" /><path
         id="rect1760-2-35"
         style="fill:#333333;fill-opacity:1;stroke:#ede7ca;stroke-width:2.98159;stroke-linecap:square;stroke-linejoin:bevel;stroke-dasharray:none;stroke-opacity:1;stop-color:#000000"
         d="m 238.95795,-415.1314 a 21.626611,21.626529 0 0 1 -16.64794,16.64789 21.626611,21.626529 0 0 1 16.64794,16.64784 21.626611,21.626529 0 0 1 16.6478,-16.64784 21.626611,21.626529 0 0 1 -16.6478,-16.64789 z"
         inkscape:transform-center-x="33.475775"
         inkscape:transform-center-y="2.8321603" /><path
         id="rect1760-2-35-9"
         style="fill:#333333;fill-opacity:1;stroke:#ede7ca;stroke-width:2.98159;stroke-linecap:square;stroke-linejoin:bevel;stroke-dasharray:none;stroke-opacity:1;stop-color:#000000"
         d="m 262.70064,-469.34875 a 21.626611,21.626529 0 0 1 -16.64795,16.6479 21.626611,21.626529 0 0 1 16.64795,16.64784 21.626611,21.626529 0 0 1 16.64779,-16.64784 21.626611,21.626529 0 0 1 -16.64779,-16.6479 z"
         inkscape:transform-center-x="33.475775"
         inkscape:transform-center-y="2.83216" /><path
         id="rect1760-2-35-2"
         style="fill:#333333;fill-opacity:1;stroke:#ede7ca;stroke-width:2.98159;stroke-linecap:square;stroke-linejoin:bevel;stroke-dasharray:none;stroke-opacity:1;stop-color:#000000"
         d="m 206.6948,-464.46945 a 21.626611,21.626529 0 0 1 -16.64795,16.6479 21.626611,21.626529 0 0 1 16.64795,16.64783 21.626611,21.626529 0 0 1 16.64779,-16.64783 21.626611,21.626529 0 0 1 -16.64779,-16.6479 z"
         inkscape:transform-center-x="0.1636075"
         inkscape:transform-center-y="0.22367515" /><path
         id="rect1760-2-35-0"
         style="fill:#808080;fill-opacity:1;stroke:#ede7ca;stroke-width:2.98159;stroke-linecap:square;stroke-linejoin:bevel;stroke-dasharray:none;stroke-opacity:1;stop-color:#000000"
         d="m 259.73063,-585.17901 a 21.626611,21.626529 0 0 1 -16.64794,16.6479 21.626611,21.626529 0 0 1 16.64794,16.64784 21.626611,21.626529 0 0 1 16.64779,-16.64784 21.626611,21.626529 0 0 1 -16.64779,-16.6479 z"
         inkscape:transform-center-x="33.475775"
         inkscape:transform-center-y="2.8321599" /><path
         id="rect1760-2-35-23"
         style="fill:#333333;fill-opacity:1;stroke:#ede7ca;stroke-width:2.98159;stroke-linecap:square;stroke-linejoin:bevel;stroke-dasharray:none;stroke-opacity:1;stop-color:#000000"
         d="m 351.37655,-608.72692 a 21.626611,21.626529 0 0 1 -16.64794,16.6479 21.626611,21.626529 0 0 1 16.64794,16.64783 21.626611,21.626529 0 0 1 16.64779,-16.64783 21.626611,21.626529 0 0 1 -16.64779,-16.6479 z"
         inkscape:transform-center-x="33.475775"
         inkscape:transform-center-y="2.8321596" /><path
         id="rect1760-2-35-7"
         style="fill:#808080;fill-opacity:1;stroke:#ede7ca;stroke-width:2.98159;stroke-linecap:square;stroke-linejoin:bevel;stroke-dasharray:none;stroke-opacity:1;stop-color:#000000"
         d="m 651.55927,-490.56308 a 21.626611,21.626529 0 0 1 -16.64791,16.6479 21.626611,21.626529 0 0 1 16.64791,16.64783 21.626611,21.626529 0 0 1 16.6478,-16.64783 21.626611,21.626529 0 0 1 -16.6478,-16.6479 z"
         inkscape:transform-center-x="33.475775"
         inkscape:transform-center-y="2.83216" /><g
         aria-label="Epiphany"
         id="text3606-9"
         style="font-style:italic;font-size:8.46667px;line-height:1.25;font-family:Almendra;-inkscape-font-specification:'Almendra Italic';fill:#333333;fill-opacity:1;stroke-width:1.56336;stroke-dasharray:none"
         transform="matrix(1.9071723,0,0,1.9071723,347.70899,-465.22339)"><path
           d="m 22.430001,-69.540934 q -0.431801,-0.321733 -0.872067,-0.321733 -0.440267,0 -0.762001,0.211666 -0.09313,0.160867 -0.09313,0.414867 0,0.618067 0.4064,0.956734 0.4064,0.338667 1.083734,0.397933 l -0.0508,0.245534 q -0.804334,0 -1.303867,0.313267 -0.491067,0.313266 -0.491067,0.999067 0,0.5334 0.2794,0.8382 0.2794,0.296333 0.753534,0.296333 0.474133,0 0.762,-0.1778 0.1016,-0.2032 0.1016,-0.423333 0,-0.2286 -0.08467,-0.321734 l 0.0085,-0.05927 q 0.211667,-0.127 0.423333,-0.3556 0.1016,0.0085 0.160867,0.08467 0.06773,0.0762 0.06773,0.1778 0,0.584201 -0.4572,0.999067 -0.4572,0.414867 -1.1176,0.592667 -0.694267,0 -1.151467,-0.414866 -0.448734,-0.414867 -0.448734,-1.075268 0,-0.6604 0.4826,-1.0922 0.491067,-0.4318 1.193801,-0.508 v -0.03387 q -0.5588,-0.08467 -0.948267,-0.4318 -0.389467,-0.347134 -0.389467,-0.855134 0.601134,-1.016 1.794934,-1.354667 0.668867,0 1.1176,0.194733 -0.2286,0.279401 -0.4064,0.702734 z"
           id="path6785"
           style="fill:#333333;fill-opacity:1;stroke-width:1.56336;stroke-dasharray:none" /><path
           d="m 26.510938,-67.737533 q 0,0.922867 -0.381,1.769534 -0.381001,0.8382 -1.092201,1.2954 l -0.194733,-0.06773 q -0.296334,-0.1016 -0.440267,-0.118533 v 0.186266 q 0,0.660401 0.05927,1.083734 l 0.03387,0.2286 q -0.4826,0.135467 -0.846667,0.381 l -0.08467,-0.110066 q 0.3048,-0.2794 0.321733,-0.880534 l 0.0254,-0.982134 q -0.2032,0 -0.364067,0.1016 l -0.0762,-0.09313 q 0.143934,-0.2032 0.448734,-0.524934 l 0.01693,-1.329267 q 0,-0.09313 0,-0.4826 0,-0.389467 -0.0508,-1.261534 -0.321733,-0.0254 -0.6604,-0.118533 v -0.118534 q 0.753533,0 1.380067,-0.127 l 0.05927,0.110067 q -0.143934,0.372534 -0.143934,1.430867 -0.04233,0.347134 -0.118533,0.626534 l 0.08467,0.0085 q 0.1524,-0.651934 0.499533,-1.270001 0.347134,-0.618067 0.829734,-0.905934 0.694267,0.127 0.694267,1.168401 z m -2.108201,2.269067 q 0.550333,0.2286 0.778934,0.2286 0.2286,0 0.270933,-0.03387 0.2286,-0.414867 0.338667,-1.024467 0.118533,-0.618067 0.118533,-1.219201 0,-0.6096 -0.313267,-0.719667 -0.4064,0.3048 -0.745067,1.143001 -0.338666,0.829733 -0.448733,1.507067 z"
           id="path6787"
           style="fill:#333333;fill-opacity:1;stroke-width:1.56336;stroke-dasharray:none" /><path
           d="m 28.585269,-68.795867 q -0.287867,0.762 -0.287867,3.268135 v 0.135466 q 0.254001,-0.220133 0.499534,-0.6604 0.245533,-0.448733 0.372533,-0.8382 l 0.118534,0.0254 q -0.160867,0.6604 -0.465667,1.27 -0.3048,0.601134 -0.7366,0.922867 -0.4064,-0.135466 -0.4064,-0.770467 0,-0.3556 0.04233,-1.2192 0.04233,-0.8636 0.04233,-1.253067 0,-0.389467 -0.01693,-0.626534 -0.321734,-0.0254 -0.6604,-0.118533 v -0.118534 q 0.8128,0 1.439334,-0.127 z m 0.01693,-1.253067 q -0.0762,0.127 -0.237067,0.313267 -0.1524,0.186266 -0.270934,0.262466 -0.2032,-0.143933 -0.4064,-0.575733 0.05927,-0.110067 0.220134,-0.254 0.160866,-0.143934 0.2794,-0.211667 0.211667,0.135467 0.414867,0.465667 z"
           id="path6789"
           style="fill:#333333;fill-opacity:1;stroke-width:1.56336;stroke-dasharray:none" /><path
           d="m 32.869402,-67.737533 q 0,0.922867 -0.381,1.769534 -0.381,0.8382 -1.0922,1.2954 l -0.194734,-0.06773 q -0.296333,-0.1016 -0.440267,-0.118533 v 0.186266 q 0,0.660401 0.05927,1.083734 l 0.03387,0.2286 q -0.4826,0.135467 -0.846667,0.381 l -0.08467,-0.110066 q 0.3048,-0.2794 0.321734,-0.880534 l 0.0254,-0.982134 q -0.203201,0 -0.364067,0.1016 l -0.0762,-0.09313 q 0.143933,-0.2032 0.448733,-0.524934 l 0.01693,-1.329267 q 0,-0.09313 0,-0.4826 0,-0.389467 -0.0508,-1.261534 -0.321734,-0.0254 -0.660401,-0.118533 v -0.118534 q 0.753534,0 1.380067,-0.127 l 0.05927,0.110067 q -0.143933,0.372534 -0.143933,1.430867 -0.04233,0.347134 -0.118534,0.626534 l 0.08467,0.0085 q 0.1524,-0.651934 0.499534,-1.270001 0.347133,-0.618067 0.829733,-0.905934 0.694267,0.127 0.694267,1.168401 z m -2.108201,2.269067 q 0.550334,0.2286 0.778934,0.2286 0.2286,0 0.270933,-0.03387 0.228601,-0.414867 0.338667,-1.024467 0.118534,-0.618067 0.118534,-1.219201 0,-0.6096 -0.313267,-0.719667 -0.4064,0.3048 -0.745067,1.143001 -0.338667,0.829733 -0.448734,1.507067 z"
           id="path6791"
           style="fill:#333333;fill-opacity:1;stroke-width:1.56336;stroke-dasharray:none" /><path
           d="m 33.7584,-64.714932 q 0.169333,-0.5842 0.169333,-2.438401 0,-1.854201 -0.04233,-2.523068 -0.04233,-0.668867 -0.194734,-1.0668 l 0.118534,-0.03387 q 0.1524,0.2286 0.313267,0.5588 0.5334,-0.651933 1.3208,-0.931333 l 0.04233,0.118533 q -0.999067,0.423334 -0.999067,2.209801 v 1.45627 q -0.04233,0.347134 -0.118533,0.626534 l 0.08467,0.0085 Q 34.605067,-67.381933 34.9522,-68 q 0.347134,-0.618067 0.829734,-0.905934 0.694267,0.127 0.694267,1.168401 0,0.414867 -0.110067,1.1176 -0.1016,0.694267 -0.1016,1.109134 v 0.135467 q 0.254,-0.220134 0.499534,-0.668867 0.254,-0.4572 0.381,-0.846667 l 0.118533,0.0254 q -0.160867,0.6604 -0.465667,1.27 -0.3048,0.601134 -0.7366,0.922867 -0.4064,-0.135466 -0.4064,-0.770467 0,-0.262466 0.110066,-1.024467 0.110067,-0.770467 0.110067,-1.032933 0,-0.626534 -0.313267,-0.736601 -0.414866,0.296334 -0.778933,1.236134 -0.364067,0.931334 -0.364067,1.515534 0,0.3302 0.06773,0.6858 -0.211666,0.01693 -0.677333,0.127 z"
           id="path6793"
           style="fill:#333333;fill-opacity:1;stroke-width:1.56336;stroke-dasharray:none" /><path
           d="m 37.729267,-66.010333 q 0,-0.9144 0.397933,-1.744134 0.4064,-0.829733 1.143001,-1.151467 0.423333,0 0.880533,0.296334 0.135467,-0.3302 0.3048,-0.567267 l 0.118534,0.03387 q -0.270934,0.719667 -0.270934,2.362201 0,0.9906 0.06773,1.388533 0.254,-0.220133 0.499533,-0.6604 0.245534,-0.448733 0.372534,-0.8382 l 0.118533,0.0254 q -0.160867,0.651933 -0.474133,1.261534 -0.313267,0.6096 -0.745067,0.931333 -0.254001,-0.09313 -0.338667,-0.389466 -0.08467,-0.304801 -0.08467,-1.151468 0.04233,-0.347133 0.118533,-0.626533 l -0.08467,-0.0085 q -0.1524,0.6604 -0.499534,1.278467 -0.338667,0.609601 -0.8128,0.897467 -0.3556,-0.05927 -0.5334,-0.465666 -0.1778,-0.406401 -0.1778,-0.872068 z m 0.601133,-0.262466 q 0,0.2794 0.06773,0.567267 0.0762,0.2794 0.245533,0.338666 0.414867,-0.296333 0.778934,-1.2192 0.364066,-0.922867 0.364066,-1.498601 Q 39.49033,-68.381 39.05853,-68.381 q -0.2286,0 -0.347134,0.118533 -0.381,0.795867 -0.381,1.989668 z"
           id="path6795"
           style="fill:#333333;fill-opacity:1;stroke-width:1.56336;stroke-dasharray:none" /><path
           d="m 44.841269,-67.737533 q 0,0.4318 -0.110067,1.1684 -0.1016,0.736601 -0.1016,1.193801 0.254001,-0.220134 0.499534,-0.668867 0.254,-0.4572 0.381,-0.846667 l 0.118534,0.0254 q -0.160867,0.6604 -0.465667,1.27 -0.3048,0.601134 -0.736601,0.922867 -0.4064,-0.143933 -0.4064,-0.770467 0,-0.262466 0.110067,-1.024467 0.110067,-0.770467 0.110067,-1.032933 0,-0.626534 -0.313267,-0.736601 -0.414867,0.296334 -0.778934,1.236134 -0.364067,0.931334 -0.364067,1.515534 0,0.3302 0.06773,0.6858 -0.245534,0.01693 -0.702734,0.127 l -0.0508,-0.04233 q 0.169334,-0.5842 0.169334,-1.896534 0,-1.320801 -0.0508,-1.930401 -0.321733,-0.0254 -0.6604,-0.118533 v -0.118534 q 0.753534,0 1.380067,-0.127 l 0.05927,0.110067 q -0.143933,0.372534 -0.143933,1.430867 -0.04233,0.347134 -0.118534,0.626534 l 0.08467,0.0085 q 0.1524,-0.651934 0.499534,-1.270001 0.347133,-0.618067 0.829733,-0.905934 0.694267,0.127 0.694267,1.168401 z"
           id="path6797"
           style="fill:#333333;fill-opacity:1;stroke-width:1.56336;stroke-dasharray:none" /><path
           d="m 46.272145,-65.840999 q 0,-0.397934 0.110066,-1.185334 0.118534,-0.7874 0.118534,-1.0668 0,-0.2794 -0.0254,-0.448734 -0.321734,-0.0254 -0.660401,-0.118533 v -0.118534 q 0.753534,0 1.380068,-0.127 l 0.05927,0.110067 q -0.127,0.499534 -0.254,1.354667 -0.127,0.855134 -0.127,1.422401 0,0.567267 0.313267,0.677333 0.414867,-0.296333 0.778934,-1.227667 0.364066,-0.9398 0.364066,-1.524 0,-0.3302 -0.06773,-0.685801 0.245534,-0.01693 0.702734,-0.127 l 0.0508,0.04233 q -0.169334,0.694267 -0.169334,1.888067 0,1.193801 0.0762,1.820334 0.08467,0.618067 0.347134,1.329267 -0.270934,0.296334 -0.550334,0.846667 l -0.262466,-0.127 q -1.126068,-0.541867 -1.989668,-0.541867 -0.575734,0 -1.007534,0.499534 l -0.09313,-0.0762 q 0.389467,-0.601134 1.600201,-1.447801 -0.694267,-0.127 -0.694267,-1.1684 z m 0.3048,1.667934 q 0.2794,0 1.049867,0.211667 0.778933,0.220133 1.016,0.220133 0.237067,0 0.321734,-0.06773 -0.313267,-0.4572 -0.508,-1.024467 -0.194734,-0.575734 -0.194734,-1.092201 v -0.287867 q 0.04233,-0.347133 0.118533,-0.626533 l -0.08467,-0.0085 q -0.4064,1.659467 -1.718734,2.675468 z"
           id="path6799"
           style="fill:#333333;fill-opacity:1;stroke-width:1.56336;stroke-dasharray:none" /></g><g
         aria-label="Holy    Trinity"
         id="text3606-6-9-2"
         style="font-style:italic;font-size:8.46667px;line-height:1.25;font-family:Almendra;-inkscape-font-specification:'Almendra Italic';fill:#333333;fill-opacity:1;stroke-width:1.56336;stroke-dasharray:none"
         transform="matrix(1.9071723,0,0,1.9071723,314.93386,-485.33373)"><path
           d="m -32.57536,-8.9042943 0.0085,-0.6434669 q 0,-1.1938008 -0.09313,-1.6256008 0.474133,-0.0254 0.8636,-0.127 l 0.0508,0.04233 q -0.135466,0.609601 -0.220133,1.7949345 -0.0762,1.1853338 -0.0762,2.2690675 0,1.0837338 0.09313,1.515534 -0.474133,0.0254 -0.8636,0.127 l -0.0508,-0.042333 q 0.211667,-0.9736671 0.270933,-2.8617345 -0.508,-0.059267 -1.0922,-0.059267 -0.575734,0 -1.083734,0.059267 -0.0254,0.4995335 -0.0254,1.4224006 0,0.922867 0.09313,1.3546672 -0.474133,0.0254 -0.8636,0.127 l -0.0508,-0.042333 q 0.118533,-0.4995336 0.2032,-1.693334 0.09313,-1.1938005 0.09313,-2.1844009 0,-0.9990664 -0.06773,-1.4562664 -0.491067,-0.04233 -0.8128,-0.160867 l 0.0085,-0.1016 q 1.016,0 1.642534,-0.110067 l 0.0508,0.04233 q -0.160867,0.728134 -0.254001,2.3452676 0.516467,0.084667 1.109134,0.084667 0.601134,0 1.066801,-0.0762 z"
           id="path6802"
           style="fill:#333333;fill-opacity:1;stroke-width:1.56336;stroke-dasharray:none" /><path
           d="m -28.977021,-6.1610932 q 0.381001,-0.8297337 0.381001,-1.9727341 0,-1.1430005 -0.685801,-1.1430005 -0.2286,0 -0.389467,0.1016001 -0.364066,0.7958669 -0.364066,1.9388674 0,0.4741335 0.1524,0.8297337 0.160866,0.3471334 0.516467,0.3471334 0.2286,0 0.389466,-0.1016 z m -0.491066,0.6096002 q -0.584201,0 -0.880534,-0.4402668 -0.287867,-0.4487335 -0.287867,-1.2192005 0,-0.770467 0.381,-1.5155339 0.389467,-0.7535337 1.092201,-1.0583338 1.176867,0 1.176867,1.566334 0,0.8551336 -0.389467,1.6171339 -0.389467,0.7620003 -1.0922,1.0498671 z"
           id="path6804"
           style="fill:#333333;fill-opacity:1;stroke-width:1.56336;stroke-dasharray:none" /><path
           d="m -26.92809,-6.3219599 0.09313,-3.0988013 q 0,-1.2530668 -0.03387,-1.5748008 -0.321733,-0.0254 -0.6604,-0.118533 v -0.118534 q 0.905934,0 1.667934,-0.397933 l 0.06773,0.110067 q -0.270934,0.245533 -0.355601,0.592667 -0.160866,0.728133 -0.160866,4.5212014 v 0.1354667 q 0.254,-0.2201334 0.499533,-0.6604003 0.245534,-0.4487335 0.372534,-0.8382003 l 0.118533,0.0254 q -0.160867,0.6604003 -0.465667,1.2700005 -0.3048,0.6011336 -0.7366,0.922867 -0.4064,-0.1354667 -0.4064,-0.7704669 z"
           id="path6806"
           style="fill:#333333;fill-opacity:1;stroke-width:1.56336;stroke-dasharray:none" /><path
           d="m -24.616692,-6.7198934 q 0,-0.3979335 0.110066,-1.1853338 0.118534,-0.7874004 0.118534,-1.0668005 0,-0.2794001 -0.0254,-0.4487335 -0.321734,-0.0254 -0.6604,-0.1185334 v -0.1185333 q 0.753533,0 1.380067,-0.1270001 l 0.05927,0.1100667 q -0.127001,0.4995336 -0.254001,1.3546672 -0.127,0.8551337 -0.127,1.4224006 0,0.5672669 0.313267,0.6773336 0.414867,-0.2963335 0.778934,-1.2276672 0.364067,-0.9398003 0.364067,-1.5240006 0,-0.3302001 -0.06773,-0.6858002 0.245534,-0.016933 0.702734,-0.1270001 l 0.0508,0.042333 q -0.169334,0.6942669 -0.169334,1.8880674 0,1.1938005 0.0762,1.820334 0.08467,0.6180669 0.347133,1.3292672 -0.270933,0.2963335 -0.550334,0.846667 l -0.262466,-0.127 q -1.126067,-0.5418669 -1.989668,-0.5418669 -0.575733,0 -1.007534,0.4995335 l -0.09313,-0.0762 q 0.389467,-0.6011336 1.600201,-1.4478006 -0.694267,-0.127 -0.694267,-1.1684004 z m 0.3048,1.667934 q 0.2794,0 1.049867,0.2116667 0.778934,0.2201334 1.016,0.2201334 0.237067,0 0.321734,-0.067733 -0.313267,-0.4572002 -0.508,-1.0244671 -0.194734,-0.5757336 -0.194734,-1.0922004 v -0.2878668 q 0.04233,-0.3471335 0.118534,-0.6265336 l -0.08467,-0.00847 q -0.4064,1.6594674 -1.718734,2.6754678 z"
           id="path6808"
           style="fill:#333333;fill-opacity:1;stroke-width:1.56336;stroke-dasharray:none" /><path
           d="m -30.83967,-0.73395772 q 0.1524,0.008467 0.905934,0.0846667 0.753533,0.0762 1.0414,0.0762 0.287867,0 0.389467,-0.0338667 0.3556,-0.35560014 0.575734,-0.53340018 l 0.09313,0.0508 q -0.389467,0.49953362 -0.4826,1.15993388 l -0.194734,-0.05926669 q -0.508,-0.12700005 -1.210733,-0.18626674 -0.211667,1.43086715 -0.211667,3.03953445 0,1.6086674 0.09313,2.0404675 -0.474133,0.0254 -0.8636,0.1270001 l -0.0508,-0.042333 q 0.135467,-0.6096002 0.211667,-1.794934 0.08467,-1.1853338 0.08467,-2.0066008 0,-0.82126697 -0.0508,-1.4054672 -0.0508,0 -0.09313,0 -0.762,0 -1.032934,0.27093344 -0.05927,0.11853338 -0.05927,0.37253348 0,0.2540001 0.08467,0.34713347 l -0.0085,0.0592667 q -0.211666,0.12700005 -0.423333,0.35560011 -0.1016,-0.00847 -0.160867,-0.084667 -0.06773,-0.0762 -0.06773,-0.17780004 0,-0.4826002 0.448733,-0.97366706 0.457201,-0.49106686 0.982134,-0.68580027 z"
           id="path6810"
           style="fill:#333333;fill-opacity:1;stroke-width:1.56336;stroke-dasharray:none" /><path
           d="m -25.700401,1.6790432 q -0.211667,-0.127 -0.3302,-0.1608667 -0.355601,0.5503336 -0.643467,1.3631339 -0.2794,0.8128003 -0.2794,1.3970005 0,0.2709335 0.06773,0.6265336 -0.245534,0.016933 -0.702734,0.1270001 l -0.0508,-0.042333 q 0.135467,-0.4656668 0.135467,-1.8372674 0,-1.3800672 -0.0508,-1.9896674 -0.321733,-0.0254 -0.6604,-0.1185334 V 0.92550961 q 0.753533,0 1.380067,-0.12700006 l 0.05927,0.11006672 q -0.143934,0.37253343 -0.143934,1.49013393 -0.01693,0.2455334 -0.1016,0.6265336 l 0.08467,0.00847 q 0.118533,-0.6265335 0.381,-1.2446005 0.270933,-0.6180669 0.643467,-0.99060035 l 0.110067,0.0592667 q 0.474133,0.26246675 0.728133,0.26246675 l 0.03387,0.1270001 q -0.4318,0.3556001 -0.4572,1.1176004 h -0.118534 q -0.08467,-0.3217334 -0.08467,-0.6858003 z"
           id="path6812"
           style="fill:#333333;fill-opacity:1;stroke-width:1.56336;stroke-dasharray:none" /><path
           d="m -23.448267,0.90857627 q -0.287866,0.76200033 -0.287866,3.26813463 v 0.1354667 q 0.254,-0.2201334 0.499533,-0.6604002 0.245533,-0.4487336 0.372534,-0.8382004 l 0.118533,0.0254 q -0.160867,0.6604003 -0.465667,1.2700005 -0.3048,0.6011336 -0.7366,0.9228671 -0.4064,-0.1354667 -0.4064,-0.770467 0,-0.3556001 0.04233,-1.2192005 0.04233,-0.8636003 0.04233,-1.2530672 0,-0.3894668 -0.01693,-0.6265335 -0.321733,-0.0254 -0.6604,-0.1185334 V 0.92550961 q 0.8128,0 1.439334,-0.12700006 z m 0.01693,-1.25306717 q -0.0762,0.12700005 -0.237067,0.31326679 -0.1524,0.18626674 -0.270934,0.26246677 -0.2032,-0.14393339 -0.4064,-0.57573356 0.05927,-0.11006671 0.220134,-0.2540001 0.160866,-0.14393339 0.2794,-0.21166675 0.211667,0.13546672 0.414867,0.46566685 z"
           id="path6814"
           style="fill:#333333;fill-opacity:1;stroke-width:1.56336;stroke-dasharray:none" /><path
           d="m -19.2234,1.96691 q 0,0.4318002 -0.110067,1.1684005 -0.1016,0.7366003 -0.1016,1.1938005 0.254,-0.2201335 0.499533,-0.668867 0.254,-0.4572002 0.381001,-0.846667 l 0.118533,0.0254 q -0.160867,0.6604003 -0.465667,1.2700005 -0.3048,0.6011336 -0.7366,0.9228671 -0.4064,-0.1439334 -0.4064,-0.770467 0,-0.2624668 0.110066,-1.0244671 0.110067,-0.7704669 0.110067,-1.0329337 0,-0.6265336 -0.313267,-0.7366003 -0.414867,0.2963334 -0.778933,1.2361338 -0.364067,0.9313337 -0.364067,1.5155339 0,0.3302002 0.06773,0.6858003 -0.245533,0.016933 -0.702733,0.1270001 l -0.0508,-0.042333 q 0.169333,-0.5842002 0.169333,-1.8965341 0,-1.3208005 -0.0508,-1.9304007 -0.321734,-0.0254 -0.6604,-0.1185334 V 0.92550961 q 0.753533,0 1.380067,-0.12700006 l 0.05927,0.11006672 q -0.143934,0.37253343 -0.143934,1.43086723 -0.04233,0.3471335 -0.118533,0.6265336 l 0.08467,0.00847 q 0.152401,-0.6519336 0.499534,-1.2700006 0.347133,-0.6180669 0.829734,-0.90593365 Q -19.2234,0.92550961 -19.2234,1.96691 Z"
           id="path6816"
           style="fill:#333333;fill-opacity:1;stroke-width:1.56336;stroke-dasharray:none" /><path
           d="m -16.666459,0.90857627 q -0.287867,0.76200033 -0.287867,3.26813463 v 0.1354667 q 0.254001,-0.2201334 0.499534,-0.6604002 0.245533,-0.4487336 0.372533,-0.8382004 l 0.118534,0.0254 q -0.160867,0.6604003 -0.465667,1.2700005 -0.3048,0.6011336 -0.7366,0.9228671 -0.4064,-0.1354667 -0.4064,-0.770467 0,-0.3556001 0.04233,-1.2192005 0.04233,-0.8636003 0.04233,-1.2530672 0,-0.3894668 -0.01693,-0.6265335 -0.321734,-0.0254 -0.6604,-0.1185334 V 0.92550961 q 0.8128,0 1.439334,-0.12700006 z m 0.01693,-1.25306717 q -0.0762,0.12700005 -0.237067,0.31326679 -0.1524,0.18626674 -0.270934,0.26246677 -0.2032,-0.14393339 -0.4064,-0.57573356 0.05927,-0.11006671 0.220134,-0.2540001 0.160866,-0.14393339 0.2794,-0.21166675 0.211666,0.13546672 0.414867,0.46566685 z"
           id="path6818"
           style="fill:#333333;fill-opacity:1;stroke-width:1.56336;stroke-dasharray:none" /><path
           d="M -14.465127,1.3319098 Q -14.60906,2.5341769 -14.60906,4.2444443 V 4.379911 q 0.635,-0.4572002 0.948267,-1.2954005 l 0.118533,0.033867 q -0.4572,1.3970006 -1.278467,1.9050008 -0.4064,-0.1354667 -0.4064,-0.770467 0,-0.4572002 0.04233,-1.2361338 0.04233,-0.7789336 0.04233,-1.1684005 0,-0.3894668 -0.0254,-0.5672669 -0.1524,-0.0254 -0.287867,-0.0254 L -15.47266,1.120243 q 0.474133,-0.44026683 0.719667,-0.99060038 0.220133,-0.0846667 0.347133,-0.17780007 l 0.0508,0.04233335 q -0.09313,0.41486683 -0.09313,0.63500025 0,0.22013343 0,0.27940012 0.3556,-0.0254 0.6858,-0.11853339 l 0.04233,0.0508 q -0.09313,0.27093342 -0.127,0.55880022 -0.3302,-0.059267 -0.618067,-0.067733 z"
           id="path6820"
           style="fill:#333333;fill-opacity:1;stroke-width:1.56336;stroke-dasharray:none" /><path
           d="m -12.839533,3.8634441 q 0,-0.3979335 0.110067,-1.1853338 0.118534,-0.7874003 0.118534,-1.0668004 0,-0.2794001 -0.0254,-0.4487335 -0.321734,-0.0254 -0.660401,-0.1185334 V 0.92550961 q 0.753534,0 1.380068,-0.12700006 l 0.05927,0.11006672 q -0.127,0.49953353 -0.254,1.35466723 -0.127,0.8551336 -0.127,1.4224005 0,0.5672669 0.313267,0.6773336 0.414867,-0.2963334 0.778933,-1.2276671 0.364067,-0.9398004 0.364067,-1.5240006 0,-0.3302002 -0.06773,-0.68580029 0.245533,-0.0169333 0.702734,-0.12700006 l 0.0508,0.0423334 q -0.169334,0.69426685 -0.169334,1.88806735 0,1.1938005 0.0762,1.8203341 0.08467,0.6180669 0.3471337,1.3292672 -0.2709337,0.2963334 -0.5503337,0.846667 l -0.262467,-0.1270001 q -1.126067,-0.5418669 -1.989667,-0.5418669 -0.575734,0 -1.007534,0.4995336 l -0.09313,-0.0762 q 0.389467,-0.6011335 1.6002,-1.4478005 -0.694267,-0.1270001 -0.694267,-1.1684005 z m 0.304801,1.667934 q 0.2794,0 1.049867,0.2116668 0.778933,0.2201334 1.016,0.2201334 0.237067,0 0.321734,-0.067733 -0.313267,-0.4572002 -0.508001,-1.0244671 -0.194733,-0.5757335 -0.194733,-1.0922004 V 3.4909106 q 0.04233,-0.3471334 0.118533,-0.6265336 l -0.08467,-0.00847 q -0.406401,1.6594673 -1.718734,2.6754677 z"
           id="path6822"
           style="fill:#333333;fill-opacity:1;stroke-width:1.56336;stroke-dasharray:none" /></g><g
         aria-label="St. Mary's"
         id="text3606-6"
         style="font-style:italic;font-size:8.46667px;line-height:1.25;font-family:Almendra;-inkscape-font-specification:'Almendra Italic';fill:#333333;fill-opacity:1;stroke-width:1.56336;stroke-dasharray:none"
         transform="matrix(1.9071723,0,0,1.9071723,334.23466,-470.44472)"><path
           d="m -83.704666,44.867289 q 0.3048,0.1778 0.618067,0.3556 0.313267,0.169334 0.524934,0.389467 0.220133,0.220134 0.220133,0.448734 0,0.592667 -0.491067,1.363134 -0.4826,0.770467 -1.0414,1.210734 -0.3556,-0.08467 -0.745067,-0.364067 -0.381,-0.2794 -0.6096,-0.592667 l -0.2286,-0.313267 q 0.491066,-0.465667 0.778933,-0.922867 l 0.1016,0.0508 q -0.1016,0.220133 -0.1016,0.508 0,0.2794 0.321734,0.5842 0.321733,0.304801 0.702733,0.440267 0.2032,-0.135466 0.465667,-0.677333 0.270934,-0.541867 0.270934,-0.787401 0,-0.245533 -0.330201,-0.508 -0.321733,-0.262467 -0.7112,-0.448733 -0.381,-0.194734 -0.7112,-0.474134 -0.321734,-0.2794 -0.321734,-0.5588 0,-0.448734 0.448734,-0.956734 0.4572,-0.508 0.948267,-0.745067 0.381,0.127 0.855134,0.127 0.4826,0 0.643467,-0.04233 l 0.0508,0.09313 q -0.482601,0.4572 -0.482601,1.473201 h -0.1016 q -0.127,-0.4064 -0.160866,-0.8128 l -0.169334,-0.06773 q -0.4064,-0.160867 -0.897467,-0.160867 -0.592667,0.279401 -0.592667,0.626534 0,0.347134 0.745067,0.762 z"
           id="path6825"
           style="fill:#333333;fill-opacity:1;stroke-width:1.56336;stroke-dasharray:none" /><path
           d="m -80.546602,44.935023 q -0.143934,1.202267 -0.143934,2.912534 v 0.135467 q 0.635001,-0.4572 0.948268,-1.295401 l 0.118533,0.03387 q -0.4572,1.397001 -1.278467,1.905001 -0.4064,-0.135467 -0.4064,-0.770467 0,-0.4572 0.04233,-1.236134 0.04233,-0.778934 0.04233,-1.1684 0,-0.389467 -0.0254,-0.567267 -0.1524,-0.0254 -0.287867,-0.0254 l -0.01693,-0.135467 q 0.474134,-0.440267 0.719667,-0.9906 0.220133,-0.08467 0.347134,-0.177801 l 0.0508,0.04233 q -0.09313,0.414867 -0.09313,0.635 0,0.220134 0,0.2794 0.3556,-0.0254 0.6858,-0.118533 l 0.04233,0.0508 q -0.09313,0.270933 -0.127,0.5588 -0.3302,-0.05927 -0.618067,-0.06773 z"
           id="path6827"
           style="fill:#333333;fill-opacity:1;stroke-width:1.56336;stroke-dasharray:none" /><path
           d="m -78.201341,48.059224 q -0.0762,0.127 -0.237067,0.313267 -0.1524,0.186266 -0.270933,0.262467 -0.2032,-0.143934 -0.4064,-0.575734 0.05927,-0.110067 0.220133,-0.254 0.160867,-0.143934 0.2794,-0.211667 0.211667,0.135467 0.414867,0.465667 z"
           id="path6829"
           style="fill:#333333;fill-opacity:1;stroke-width:1.56336;stroke-dasharray:none" /><path
           d="m -74.272791,43.309422 q 0,0.6096 0.626533,2.599268 l 0.262467,0.829733 0.05927,-0.01693 q 0,-0.211667 0.143933,-0.6858 l 0.804334,-2.573868 q 0.0508,-0.160867 0.0508,-0.270933 0,-0.110067 -0.0254,-0.160867 l 0.0254,-0.05927 q 0.160867,0.0254 0.4064,0.0254 0.254,0 0.651934,-0.118533 l 0.05927,0.04233 q -0.186266,0.982134 -0.186266,2.912535 0,1.9304 0.1778,2.675467 -0.423334,0.0254 -0.863601,0.127001 l -0.05927,-0.04233 q 0.194733,-1.0414 0.194733,-2.463801 0,-1.430867 -0.09313,-2.218267 h -0.03387 q -0.8128,2.269067 -0.9906,3.056468 -0.05927,0.262466 -0.0762,0.508 -0.321733,0.1016 -0.7366,0.364067 l -0.1016,-0.06773 q 0.01693,-0.186267 0.01693,-0.2794 0,-0.821267 -0.846667,-3.352801 l -0.03387,0.0085 q -0.4572,2.768601 -0.474134,4.360335 -0.414867,0.0085 -0.872067,0.118534 l -0.0508,-0.04233 q 0.2794,-0.8382 0.660401,-2.650067 0.389466,-1.820334 0.4572,-2.675468 -0.491067,-0.04233 -0.812801,-0.160867 l 0.0085,-0.1016 q 1.024467,0 1.651001,-0.110066 l 0.0508,0.04233 q -0.0508,0.1778 -0.0508,0.381 z"
           id="path6831"
           style="fill:#333333;fill-opacity:1;stroke-width:1.56336;stroke-dasharray:none" /><path
           d="m -70.039457,47.297224 q 0,-0.914401 0.397934,-1.744134 0.4064,-0.829734 1.143,-1.151468 0.423334,0 0.880534,0.296334 0.135466,-0.3302 0.3048,-0.567267 l 0.118533,0.03387 q -0.270933,0.719667 -0.270933,2.362201 0,0.9906 0.06773,1.388534 0.254,-0.220134 0.499534,-0.660401 0.245533,-0.448733 0.372533,-0.8382 l 0.118534,0.0254 q -0.160867,0.651934 -0.474134,1.261534 -0.313267,0.6096 -0.745067,0.931334 -0.254,-0.09313 -0.338667,-0.389467 -0.08467,-0.3048 -0.08467,-1.151467 0.04233,-0.347134 0.118533,-0.626534 l -0.08467,-0.0085 q -0.1524,0.660401 -0.499533,1.278467 -0.338667,0.609601 -0.812801,0.897468 -0.3556,-0.05927 -0.5334,-0.465667 -0.1778,-0.406401 -0.1778,-0.872067 z m 0.601134,-0.262467 q 0,0.2794 0.06773,0.567267 0.0762,0.2794 0.245533,0.338667 0.414867,-0.296334 0.778934,-1.219201 0.364067,-0.922867 0.364067,-1.498601 -0.296334,-0.296333 -0.728134,-0.296333 -0.2286,0 -0.347133,0.118533 -0.381,0.795867 -0.381,1.989668 z"
           id="path6833"
           style="fill:#333333;fill-opacity:1;stroke-width:1.56336;stroke-dasharray:none" /><path
           d="m -63.69792,45.282156 q -0.211667,-0.127 -0.3302,-0.160867 -0.355601,0.550334 -0.643467,1.363134 -0.2794,0.812801 -0.2794,1.397001 0,0.270933 0.06773,0.626533 -0.245534,0.01693 -0.702734,0.127001 l -0.0508,-0.04233 q 0.135467,-0.465667 0.135467,-1.837267 0,-1.380067 -0.0508,-1.989668 -0.321734,-0.0254 -0.6604,-0.118533 v -0.118533 q 0.753533,0 1.380067,-0.127001 l 0.05927,0.110067 q -0.143934,0.372534 -0.143934,1.490134 -0.01693,0.245534 -0.1016,0.626534 l 0.08467,0.0085 q 0.118533,-0.626533 0.381,-1.2446 0.270933,-0.618067 0.643467,-0.990601 l 0.110067,0.05927 q 0.474133,0.262467 0.728133,0.262467 l 0.03387,0.127 q -0.4318,0.3556 -0.4572,1.1176 h -0.118534 q -0.08467,-0.321733 -0.08467,-0.6858 z"
           id="path6835"
           style="fill:#333333;fill-opacity:1;stroke-width:1.56336;stroke-dasharray:none" /><path
           d="m -62.571853,47.466557 q 0,-0.397933 0.110066,-1.185334 0.118534,-0.7874 0.118534,-1.0668 0,-0.2794 -0.0254,-0.448734 -0.321734,-0.0254 -0.6604,-0.118533 v -0.118533 q 0.753533,0 1.380067,-0.127001 l 0.05927,0.110067 q -0.127,0.499534 -0.254,1.354667 -0.127,0.855134 -0.127,1.422401 0,0.567267 0.313267,0.677334 0.414867,-0.296334 0.778934,-1.227668 0.364067,-0.9398 0.364067,-1.524 0,-0.3302 -0.06773,-0.6858 0.245534,-0.01693 0.702734,-0.127001 l 0.0508,0.04233 q -0.169334,0.694267 -0.169334,1.888067 0,1.193801 0.0762,1.820334 0.08467,0.618067 0.347134,1.329268 -0.270934,0.296333 -0.550334,0.846667 l -0.262466,-0.127001 q -1.126068,-0.541866 -1.989668,-0.541866 -0.575733,0 -1.007534,0.499533 l -0.09313,-0.0762 q 0.389467,-0.601133 1.600201,-1.4478 -0.694267,-0.127001 -0.694267,-1.168401 z m 0.3048,1.667934 q 0.2794,0 1.049867,0.211667 0.778934,0.220133 1.016,0.220133 0.237067,0 0.321734,-0.06773 -0.313267,-0.4572 -0.508,-1.024467 -0.194734,-0.575734 -0.194734,-1.092201 v -0.287866 q 0.04233,-0.347134 0.118534,-0.626534 l -0.08467,-0.0085 q -0.4064,1.659468 -1.718734,2.675468 z"
           id="path6837"
           style="fill:#333333;fill-opacity:1;stroke-width:1.56336;stroke-dasharray:none" /><path
           d="m -58.101455,42.869155 q 0.0254,0 0.0508,0 l 0.09313,0.110067 q -0.338666,0.651934 -0.618067,1.854201 l -0.194733,0.01693 0.110067,-1.837267 q 0.3048,-0.143934 0.5588,-0.143934 z"
           id="path6839"
           style="fill:#333333;fill-opacity:1;stroke-width:1.56336;stroke-dasharray:none" /><path
           d="m -56.890718,46.89929 q -0.06773,0.1778 -0.06773,0.381 0,0.194734 0.262467,0.4826 0.270933,0.287867 0.5334,0.381001 0.160867,-0.1016 0.372533,-0.457201 0.220134,-0.364066 0.220134,-0.541866 0,-0.1778 -0.262467,-0.364067 -0.262467,-0.186267 -0.575734,-0.313267 -0.313266,-0.135467 -0.575733,-0.338667 -0.262467,-0.2032 -0.262467,-0.4064 0,-0.4064 0.397934,-0.770467 0.397933,-0.372533 0.880533,-0.550334 0.440267,0.160867 0.719667,0.160867 0.287867,0 0.4572,-0.127 l 0.08467,0.110067 q -0.474133,0.4318 -0.6604,0.6858 l -0.262467,-0.110067 q -0.414867,-0.160866 -0.728134,-0.211666 -0.143933,0.04233 -0.2794,0.169333 -0.135466,0.127 -0.135466,0.2794 0,0.1524 0.270933,0.338667 0.270933,0.1778 0.592667,0.313267 0.321733,0.135467 0.592667,0.338667 0.270933,0.194733 0.270933,0.397933 0,0.423334 -0.423333,0.982134 -0.423334,0.550333 -0.880534,0.905934 -0.3048,-0.0762 -0.626534,-0.313267 -0.313266,-0.245534 -0.516466,-0.524934 l -0.169334,-0.2286 q 0.4064,-0.372533 0.651934,-0.728134 z"
           id="path6841"
           style="fill:#333333;fill-opacity:1;stroke-width:1.56336;stroke-dasharray:none" /></g><g
         aria-label="Old St. Patrick   "
         id="text3606-6-9"
         style="font-style:italic;font-size:8.46667px;line-height:1.25;font-family:Almendra;-inkscape-font-specification:'Almendra Italic';text-align:end;text-anchor:end;fill:#333333;fill-opacity:1;stroke-width:1.56336;stroke-dasharray:none"
         transform="matrix(1.9071723,0,0,1.9071723,317.92363,-443.14388)"><path
           d="m -84.813477,-8.1846275 q 0,-1.6933341 -1.092201,-1.6933341 -0.321733,0 -0.550333,0.1354668 -0.321734,0.5757335 -0.499534,1.3208005 -0.1778,0.7366003 -0.1778,1.2954005 0,0.5588002 0.1016,0.9313337 0.1016,0.3640668 0.3556,0.6350003 0.262467,0.2709334 0.601134,0.2709334 0.338667,0 0.567267,-0.1439334 0.321733,-0.4572002 0.508,-1.2700005 0.186267,-0.8128003 0.186267,-1.4816672 z m -1.363134,3.4798013 q -0.804334,0 -1.227667,-0.6096002 -0.423334,-0.6180669 -0.423334,-1.4478006 0,-0.8382003 0.220134,-1.5494006 0.2286,-0.7112003 0.702733,-1.2954005 0.4826,-0.5926669 1.143001,-0.8635999 1.642534,0 1.642534,2.1420671 0,1.1514671 -0.550334,2.1928675 -0.541867,1.0329337 -1.507067,1.4308672 z"
           id="path6737"
           style="fill:#333333;fill-opacity:1;stroke-width:1.56336;stroke-dasharray:none" /><path
           d="m -83.137077,-5.4752931 0.09313,-3.0988013 q 0,-1.2530671 -0.03387,-1.5748006 -0.321733,-0.0254 -0.6604,-0.118533 v -0.118534 q 0.905934,0 1.667934,-0.397933 l 0.06773,0.110066 q -0.270933,0.245534 -0.3556,0.592667 -0.160866,0.728134 -0.160866,4.5212022 v 0.1354667 q 0.254,-0.2201334 0.499533,-0.6604003 0.245534,-0.4487335 0.372534,-0.8382003 l 0.118533,0.0254 q -0.160867,0.6604003 -0.465667,1.2700005 -0.3048,0.6011336 -0.7366,0.922867 -0.4064,-0.1354667 -0.4064,-0.7704669 z"
           id="path6739"
           style="fill:#333333;fill-opacity:1;stroke-width:1.56336;stroke-dasharray:none" /><path
           d="m -78.328012,-8.3708943 q 0,0.9313337 -0.4826,1.9812008 -0.474134,1.0498671 -1.168401,1.6848673 -1.016,-0.2286001 -1.016,-1.5917339 0,-0.7366003 0.347133,-1.4647339 0.3556,-0.7281337 0.939801,-1.1684005 -0.660401,-0.4402668 -1.532468,-0.719667 l -0.220133,-0.0762 q 0.0762,-0.3386665 0.0762,-0.5418665 0,-0.2032 -0.01693,-0.457201 l 0.135466,-0.01693 q 0.03387,0.118533 0.127,0.2794 0.09313,0.1524 0.694267,0.4910671 l 2.040468,1.1514671 q 0.0762,0.2032001 0.0762,0.4487335 z m -1.701801,0.0762 q -0.364067,0.8128004 -0.364067,1.7187341 0,0.9059337 0.626534,1.2107338 0.372533,-0.3894668 0.601134,-1.1430005 0.2286,-0.7620003 0.2286,-1.2446005 0,-0.4910668 -0.04233,-0.6265336 -0.440267,-0.3556001 -0.6096,-0.4656668 z"
           id="path6741"
           style="fill:#333333;fill-opacity:1;stroke-width:1.56336;stroke-dasharray:none" /><path
           d="m -74.975196,-8.4724943 q 0.3048,0.1778 0.618067,0.3556001 0.313266,0.1693334 0.524933,0.3894668 0.220134,0.2201335 0.220134,0.4487335 0,0.592667 -0.491067,1.3631339 -0.4826,0.770467 -1.041401,1.2107338 -0.3556,-0.084667 -0.745067,-0.3640668 -0.381,-0.2794001 -0.6096,-0.5926669 l -0.2286,-0.3132668 q 0.491067,-0.4656668 0.778934,-0.922867 l 0.1016,0.0508 q -0.1016,0.2201334 -0.1016,0.5080002 0,0.2794001 0.321733,0.5842003 0.321734,0.3048001 0.702734,0.4402668 0.2032,-0.1354667 0.465667,-0.6773336 0.270933,-0.5418669 0.270933,-0.7874003 0,-0.2455334 -0.3302,-0.5080002 -0.321734,-0.2624668 -0.7112,-0.4487335 -0.381,-0.1947334 -0.711201,-0.4741336 -0.321733,-0.2794001 -0.321733,-0.5588002 0,-0.4487335 0.448733,-0.9567337 0.457201,-0.5080005 0.948267,-0.7450665 0.381001,0.127 0.855134,0.127 0.4826,0 0.643467,-0.04233 l 0.0508,0.09313 q -0.4826,0.4571998 -0.4826,1.4732002 h -0.1016 q -0.127,-0.4064002 -0.160867,-0.8128003 l -0.169333,-0.067733 q -0.4064,-0.1608667 -0.897467,-0.1608667 -0.592667,0.2794001 -0.592667,0.6265336 0,0.3471334 0.745067,0.7619999 z"
           id="path6743"
           style="fill:#333333;fill-opacity:1;stroke-width:1.56336;stroke-dasharray:none" /><path
           d="m -71.817132,-8.404761 q -0.143934,1.2022672 -0.143934,2.9125345 v 0.1354667 q 0.635,-0.4572001 0.948267,-1.2954005 l 0.118534,0.033867 q -0.457201,1.3970006 -1.278468,1.9050008 -0.4064,-0.1354668 -0.4064,-0.770467 0,-0.4572002 0.04233,-1.2361338 0.04233,-0.7789337 0.04233,-1.1684005 0,-0.3894668 -0.0254,-0.5672669 -0.1524,-0.0254 -0.287867,-0.0254 l -0.01693,-0.1354667 q 0.474133,-0.4402669 0.719667,-0.9906004 0.220133,-0.084667 0.347133,-0.1778001 l 0.0508,0.042333 q -0.09313,0.4148668 -0.09313,0.6350002 0,0.2201334 0,0.2794001 0.3556,-0.0254 0.6858,-0.1185333 l 0.04233,0.0508 q -0.09313,0.2709334 -0.127001,0.5588002 -0.3302,-0.059267 -0.618066,-0.067733 z"
           id="path6745"
           style="fill:#333333;fill-opacity:1;stroke-width:1.56336;stroke-dasharray:none" /><path
           d="m -69.47187,-5.2805597 q -0.0762,0.127 -0.237067,0.3132668 -0.1524,0.1862667 -0.270934,0.2624667 -0.2032,-0.1439334 -0.4064,-0.5757335 0.05927,-0.1100667 0.220134,-0.2540001 0.160866,-0.1439334 0.2794,-0.2116668 0.211667,0.1354667 0.414867,0.4656669 z"
           id="path6747"
           style="fill:#333333;fill-opacity:1;stroke-width:1.56336;stroke-dasharray:none" /><path
           d="m -92.695953,0.14657577 q 0.702733,0 1.0668,0.28786678 0.364067,0.27940011 0.364067,1.01600045 0,0.7281336 -0.567267,1.1938004 -0.5588,0.4656669 -1.397001,0.4656669 l 0.0254,-0.2540001 q 1.227667,0 1.227667,-1.1938005 0,-1.20226714 -0.8636,-1.20226714 -0.3048,0 -0.601133,0.0931334 -0.228601,1.44780054 -0.228601,3.57293474 0,1.1938005 0.09313,1.6256006 -0.474134,0.0254 -0.863601,0.1270001 l -0.0508,-0.042333 q 0.118534,-0.4995335 0.203201,-1.693334 0.09313,-1.1938004 0.09313,-2.1844008 0,-0.99906708 -0.06773,-1.45626726 -0.491067,-0.0423333 -0.812801,-0.16086673 l 0.0085,-0.10160004 q 0.491067,0 1.278467,-0.0423333 0.7874,-0.0508 1.092201,-0.0508 z"
           id="path6749"
           style="fill:#333333;fill-opacity:1;stroke-width:1.56336;stroke-dasharray:none" /><path
           d="m -90.740147,4.5407775 q 0,-0.9144003 0.397933,-1.744134 0.406401,-0.8297337 1.143001,-1.1514671 0.423333,0 0.880534,0.2963334 0.135466,-0.3302001 0.3048,-0.5672669 l 0.118533,0.033867 q -0.270933,0.719667 -0.270933,2.3622009 0,0.9906004 0.06773,1.3885339 0.254,-0.2201334 0.499534,-0.6604002 0.245533,-0.4487335 0.372533,-0.8382004 l 0.118533,0.0254 q -0.160866,0.6519336 -0.474133,1.2615339 -0.313267,0.6096002 -0.745067,0.9313337 -0.254,-0.093133 -0.338667,-0.3894668 -0.08467,-0.3048002 -0.08467,-1.1514672 0.04233,-0.3471334 0.118534,-0.6265335 l -0.08467,-0.00847 q -0.1524,0.6604002 -0.499533,1.2784672 -0.338667,0.6096002 -0.812801,0.897467 -0.3556,-0.059267 -0.5334,-0.4656669 -0.1778,-0.4064001 -0.1778,-0.872067 z m 0.601134,-0.2624668 q 0,0.2794002 0.06773,0.5672669 0.0762,0.2794002 0.245533,0.3386668 0.414867,-0.2963334 0.778934,-1.2192004 0.364067,-0.9228671 0.364067,-1.4986006 -0.296334,-0.2963335 -0.728134,-0.2963335 -0.2286,0 -0.347133,0.1185334 -0.381,0.795867 -0.381,1.9896674 z"
           id="path6751"
           style="fill:#333333;fill-opacity:1;stroke-width:1.56336;stroke-dasharray:none" /><path
           d="m -85.651678,2.1785766 q -0.143933,1.2022671 -0.143933,2.9125345 v 0.1354667 q 0.635,-0.4572002 0.948267,-1.2954005 l 0.118533,0.033867 q -0.4572,1.3970005 -1.278467,1.9050007 -0.4064,-0.1354667 -0.4064,-0.770467 0,-0.4572001 0.04233,-1.2361338 0.04233,-0.7789336 0.04233,-1.1684004 0,-0.3894669 -0.0254,-0.5672669 -0.1524,-0.0254 -0.287867,-0.0254 l -0.01693,-0.1354667 q 0.474133,-0.4402668 0.719667,-0.99060037 0.220133,-0.0846667 0.347133,-0.17780007 l 0.0508,0.0423334 q -0.09313,0.41486684 -0.09313,0.63500034 0,0.2201333 0,0.2794001 0.3556,-0.0254 0.6858,-0.1185334 l 0.04233,0.0508 q -0.09313,0.2709334 -0.127,0.5588002 -0.3302,-0.059267 -0.618067,-0.067733 z"
           id="path6753"
           style="fill:#333333;fill-opacity:1;stroke-width:1.56336;stroke-dasharray:none" /><path
           d="m -81.977149,2.5257101 q -0.211667,-0.1270001 -0.3302,-0.1608668 -0.355601,0.5503336 -0.643467,1.3631339 -0.279401,0.8128003 -0.279401,1.3970006 0,0.2709334 0.06773,0.6265335 -0.245534,0.016933 -0.702734,0.1270001 l -0.0508,-0.042333 q 0.135467,-0.4656668 0.135467,-1.8372674 0,-1.3800672 -0.0508,-1.9896674 -0.321734,-0.0254 -0.6604,-0.1185334 V 1.7721764 q 0.753533,0 1.380067,-0.127 l 0.05927,0.1100667 q -0.143934,0.3725335 -0.143934,1.4901339 -0.01693,0.2455334 -0.1016,0.6265336 l 0.08467,0.00847 q 0.118533,-0.6265336 0.381,-1.2446005 0.270933,-0.618067 0.643467,-0.9906004 l 0.110067,0.059267 q 0.474133,0.2624667 0.728133,0.2624667 l 0.03387,0.1270001 q -0.4318,0.3556001 -0.4572,1.1176004 h -0.118534 q -0.08467,-0.3217334 -0.08467,-0.6858002 z"
           id="path6755"
           style="fill:#333333;fill-opacity:1;stroke-width:1.56336;stroke-dasharray:none" /><path
           d="m -79.725015,1.7552431 q -0.287867,0.7620003 -0.287867,3.2681346 v 0.1354667 q 0.254,-0.2201334 0.499534,-0.6604002 0.245533,-0.4487335 0.372533,-0.8382004 l 0.118533,0.0254 q -0.160866,0.6604003 -0.465666,1.2700006 -0.304801,0.6011335 -0.736601,0.922867 -0.4064,-0.1354667 -0.4064,-0.770467 0,-0.3556001 0.04233,-1.2192005 0.04233,-0.8636003 0.04233,-1.2530671 0,-0.3894669 -0.01693,-0.6265336 -0.321733,-0.0254 -0.6604,-0.1185334 V 1.7721764 q 0.8128,0 1.439334,-0.127 z m 0.01693,-1.25306719 q -0.0762,0.12700005 -0.237067,0.31326679 -0.1524,0.1862667 -0.270933,0.2624668 -0.2032,-0.14393342 -0.4064,-0.57573359 0.05927,-0.11006671 0.220133,-0.2540001 0.160867,-0.14393339 0.2794,-0.21166675 0.211667,0.13546672 0.414867,0.46566685 z"
           id="path6757"
           style="fill:#333333;fill-opacity:1;stroke-width:1.56336;stroke-dasharray:none" /><path
           d="m -78.505817,4.4222441 q 0,-0.8551336 0.347134,-1.6086673 0.347133,-0.7535336 1.016,-1.1684004 0.414867,0.1524 0.719667,0.1524 0.3048,0 0.414867,-0.033867 l 0.0508,0.1270001 q -0.347134,0.2878668 -0.347134,1.2107338 h -0.118533 Q -76.516149,2.7627768 -76.541549,2.44951 l -0.2286,-0.093133 q -0.397934,-0.1608668 -0.702734,-0.2032001 -0.4318,0.821267 -0.4318,1.8288007 0,1.0075337 0.6096,1.2530672 0.635,-0.4572002 0.948267,-1.2954006 l 0.194733,0.0762 q -0.186266,0.5588002 -0.541866,1.0668004 -0.355601,0.5080002 -0.812801,0.795867 -0.4826,-0.093133 -0.745067,-0.4995335 -0.254,-0.4148669 -0.254,-0.956734 z"
           id="path6759"
           style="fill:#333333;fill-opacity:1;stroke-width:1.56336;stroke-dasharray:none" /><path
           d="m -74.568818,1.6113097 v 1.5748006 q -0.04233,0.3471335 -0.118533,0.6265336 l 0.08467,0.00847 q 0.1524,-0.6519336 0.499534,-1.2700005 0.347133,-0.618067 0.829734,-0.9059337 0.364066,0.067733 0.5588,0.4064001 0.194733,0.3302002 0.194733,0.7620003 0,0.719667 -0.872067,1.1176005 0.1778,0.6350002 0.491067,1.1176004 l 0.09313,0.1439334 q 0.254001,-0.2286001 0.508001,-0.6858003 0.262466,-0.4572001 0.389466,-0.846667 l 0.118534,0.0254 q -0.160867,0.6604003 -0.465667,1.2700006 -0.3048,0.6011335 -0.7366,0.922867 -0.397934,-0.1524001 -0.635001,-0.770467 -0.237066,-0.6265336 -0.296333,-1.1430004 v -0.059267 q 0.397933,-0.093133 0.601134,-0.2878668 0.2032,-0.2032001 0.2032,-0.5080002 0,-0.6350003 -0.372534,-0.770467 -0.423333,0.2963335 -0.7874,1.2192005 -0.3556,0.9144004 -0.3556,1.5070673 0,0.3302001 0.06773,0.6858002 -0.211667,0.016933 -0.677334,0.1270001 l -0.0508,-0.042333 q 0.169334,-0.5842002 0.169334,-3.8269348 0,-1.0075338 -0.05927,-1.57480065 -0.321733,-0.0254 -0.6604,-0.11853338 V 0.19737579 q 0.855134,0 1.617134,-0.39793349 l 0.06773,0.11006671 q -0.194733,0.17780007 -0.287867,0.47413352 -0.09313,0.28786678 -0.110066,0.52493354 -0.0085,0.23706673 -0.0085,0.70273363 z"
           id="path6761"
           style="fill:#333333;fill-opacity:1;stroke-width:1.56336;stroke-dasharray:none" /></g></g><text
       xml:space="preserve"
       style="font-style:italic;font-variant:normal;font-weight:normal;font-stretch:normal;font-size:24px;line-height:1.25;font-family:Almendra;-inkscape-font-specification:'Almendra Italic'"
       x="741.08148"
       y="460.478"
       id="text38697"><tspan
         sodipodi:role="line"
         x="741.08148"
         y="460.478"
         id="tspan38695">feast of St. Apollinaris</tspan></text></g></svg>
